Prestige Elite Standard.ufo
<glyph name="exclam" format="1">
  <advance width="600"/>
  <unicode hex="0021"/>
  <outline>
    <contour>
      <point x="314" y="159" type="line"/>
      <point x="284" y="159" type="line"/>
      <point x="251" y="567" type="line" smooth="yes"/>
      <point x="249" y="593"/>
      <point x="273" y="612"/>
      <point x="299" y="612" type="curve" smooth="yes"/>
      <point x="325" y="612"/>
      <point x="349" y="593"/>
      <point x="347" y="567" type="curve" smooth="yes"/>
    </contour>
    <contour>
      <point x="246" y="42" type="curve" smooth="yes"/>
      <point x="246" y="71"/>
      <point x="270" y="95"/>
      <point x="299" y="95" type="curve" smooth="yes"/>
      <point x="329" y="95"/>
      <point x="353" y="71"/>
      <point x="353" y="42" type="curve" smooth="yes"/>
      <point x="353" y="12"/>
      <point x="329" y="-12"/>
      <point x="299" y="-12" type="curve" smooth="yes"/>
      <point x="270" y="-12"/>
      <point x="246" y="12"/>
    </contour>
  </outline>
</glyph>
<glyph name="quotedbl" format="1">
  <advance width="600"/>
  <unicode hex="0022"/>
  <outline>
    <contour>
      <point x="226" y="320" type="line"/>
      <point x="186" y="320" type="line"/>
      <point x="158" y="498" type="line" smooth="yes"/>
      <point x="155" y="520"/>
      <point x="150" y="556"/>
      <point x="150" y="574" type="curve" smooth="yes"/>
      <point x="150" y="589"/>
      <point x="175" y="612"/>
      <point x="206" y="612" type="curve" smooth="yes"/>
      <point x="237" y="612"/>
      <point x="262" y="589"/>
      <point x="262" y="574" type="curve" smooth="yes"/>
      <point x="262" y="556"/>
      <point x="257" y="520"/>
      <point x="254" y="498" type="curve" smooth="yes"/>
    </contour>
    <contour>
      <point x="414" y="320" type="line"/>
      <point x="374" y="320" type="line"/>
      <point x="346" y="498" type="line" smooth="yes"/>
      <point x="343" y="520"/>
      <point x="338" y="556"/>
      <point x="338" y="574" type="curve" smooth="yes"/>
      <point x="338" y="589"/>
      <point x="363" y="612"/>
      <point x="394" y="612" type="curve" smooth="yes"/>
      <point x="425" y="612"/>
      <point x="450" y="589"/>
      <point x="450" y="574" type="curve" smooth="yes"/>
      <point x="450" y="556"/>
      <point x="445" y="520"/>
      <point x="442" y="498" type="curve" smooth="yes"/>
    </contour>
  </outline>
</glyph>
<glyph name="numbersign" format="1">
  <advance width="600"/>
  <unicode hex="0023"/>
  <outline>
    <contour>
      <point x="267" y="805" type="line"/>
      <point x="311" y="805" type="line"/>
      <point x="149" y="-96" type="line"/>
      <point x="104" y="-96" type="line"/>
      <point x="165" y="239" type="line"/>
      <point x="31" y="239" type="line"/>
      <point x="39" y="283" type="line"/>
      <point x="173" y="283" type="line"/>
      <point x="201" y="440" type="line"/>
      <point x="67" y="440" type="line"/>
      <point x="75" y="484" type="line"/>
      <point x="209" y="484" type="line"/>
    </contour>
    <contour>
      <point x="329" y="-96" type="line"/>
      <point x="284" y="-96" type="line"/>
      <point x="449" y="805" type="line"/>
      <point x="493" y="805" type="line"/>
      <point x="435" y="484" type="line"/>
      <point x="570" y="484" type="line"/>
      <point x="561" y="440" type="line"/>
      <point x="427" y="440" type="line"/>
      <point x="399" y="283" type="line"/>
      <point x="533" y="283" type="line"/>
      <point x="525" y="239" type="line"/>
      <point x="391" y="239" type="line"/>
    </contour>
  </outline>
</glyph>
<glyph name="dollar" format="1">
  <advance width="600"/>
  <unicode hex="0024"/>
  <outline>
    <contour>
      <point x="283" y="604" type="curve"/>
      <point x="283" y="709" type="line"/>
      <point x="322" y="709" type="line"/>
      <point x="322" y="604" type="line"/>
      <point x="375" y="606"/>
      <point x="430" y="593"/>
      <point x="466" y="552" type="curve"/>
      <point x="462" y="537"/>
      <point x="461" y="522"/>
      <point x="462" y="507" type="curve" smooth="yes"/>
      <point x="466" y="442" type="line"/>
      <point x="427" y="442" type="line"/>
      <point x="427" y="464" type="line" smooth="yes"/>
      <point x="427" y="541"/>
      <point x="405" y="568"/>
      <point x="323" y="568" type="curve" smooth="yes"/>
      <point x="252" y="568"/>
      <point x="175" y="533"/>
      <point x="175" y="448" type="curve" smooth="yes"/>
      <point x="175" y="307"/>
      <point x="488" y="357"/>
      <point x="488" y="173" type="curve" smooth="yes"/>
      <point x="488" y="83"/>
      <point x="407" y="19"/>
      <point x="322" y="14" type="curve"/>
      <point x="322" y="-120" type="line"/>
      <point x="283" y="-120" type="line"/>
      <point x="283" y="14" type="line"/>
      <point x="226" y="18"/>
      <point x="171" y="34"/>
      <point x="117" y="49" type="curve"/>
      <point x="121" y="103" type="line" smooth="yes"/>
      <point x="123" y="128"/>
      <point x="118" y="154"/>
      <point x="111" y="179" type="curve"/>
      <point x="151" y="179" type="line"/>
      <point x="153" y="153"/>
      <point x="156" y="119"/>
      <point x="172" y="97" type="curve" smooth="yes"/>
      <point x="197" y="62"/>
      <point x="264" y="50"/>
      <point x="303" y="50" type="curve" smooth="yes"/>
      <point x="375" y="50"/>
      <point x="446" y="92"/>
      <point x="446" y="171" type="curve" smooth="yes"/>
      <point x="446" y="328"/>
      <point x="133" y="272"/>
      <point x="133" y="444" type="curve" smooth="yes"/>
      <point x="133" y="527"/>
      <point x="204" y="593"/>
    </contour>
  </outline>
</glyph>
<glyph name="percent" format="1">
  <advance width="600"/>
  <unicode hex="0025"/>
  <outline>
    <contour>
      <point x="150" y="612" type="curve" smooth="yes"/>
      <point x="221" y="612"/>
      <point x="242" y="540"/>
      <point x="242" y="481" type="curve" smooth="yes"/>
      <point x="242" y="422"/>
      <point x="221" y="350"/>
      <point x="150" y="350" type="curve" smooth="yes"/>
      <point x="79" y="350"/>
      <point x="58" y="423"/>
      <point x="58" y="481" type="curve" smooth="yes"/>
      <point x="58" y="540"/>
      <point x="79" y="612"/>
    </contour>
    <contour>
      <point x="150" y="584" type="curve" smooth="yes"/>
      <point x="97" y="584"/>
      <point x="93" y="521"/>
      <point x="93" y="481" type="curve" smooth="yes"/>
      <point x="93" y="442"/>
      <point x="97" y="378"/>
      <point x="150" y="378" type="curve" smooth="yes"/>
      <point x="203" y="378"/>
      <point x="207" y="441"/>
      <point x="207" y="481" type="curve" smooth="yes"/>
      <point x="207" y="521"/>
      <point x="203" y="584"/>
    </contour>
    <contour>
      <point x="450" y="250" type="curve" smooth="yes"/>
      <point x="521" y="250"/>
      <point x="542" y="178"/>
      <point x="542" y="119" type="curve" smooth="yes"/>
      <point x="542" y="60"/>
      <point x="521" y="-12"/>
      <point x="450" y="-12" type="curve" smooth="yes"/>
      <point x="379" y="-12"/>
      <point x="358" y="61"/>
      <point x="358" y="119" type="curve" smooth="yes"/>
      <point x="358" y="178"/>
      <point x="379" y="250"/>
    </contour>
    <contour>
      <point x="450" y="222" type="curve" smooth="yes"/>
      <point x="397" y="222"/>
      <point x="393" y="159"/>
      <point x="393" y="119" type="curve" smooth="yes"/>
      <point x="393" y="80"/>
      <point x="397" y="16"/>
      <point x="450" y="16" type="curve" smooth="yes"/>
      <point x="503" y="16"/>
      <point x="507" y="79"/>
      <point x="507" y="119" type="curve" smooth="yes"/>
      <point x="507" y="159"/>
      <point x="503" y="222"/>
    </contour>
    <contour>
      <point x="424" y="629" type="line"/>
      <point x="451" y="613" type="line"/>
      <point x="176" y="-27" type="line"/>
      <point x="149" y="-11" type="line"/>
    </contour>
  </outline>
</glyph>
<glyph name="ampersand" format="1">
  <advance width="600"/>
  <unicode hex="0026"/>
  <outline>
    <contour>
      <point x="314" y="239" type="curve" smooth="yes"/>
      <point x="246" y="329" type="line"/>
      <point x="176" y="306"/>
      <point x="143" y="246"/>
      <point x="143" y="174" type="curve" smooth="yes"/>
      <point x="143" y="99"/>
      <point x="186" y="24"/>
      <point x="269" y="24" type="curve" smooth="yes"/>
      <point x="318" y="24"/>
      <point x="357" y="49"/>
      <point x="388" y="86" type="curve"/>
      <point x="374" y="119" type="line" smooth="yes"/>
      <point x="356" y="162"/>
      <point x="342" y="202"/>
    </contour>
    <contour>
      <point x="271" y="362" type="curve" smooth="yes"/>
      <point x="306" y="317" type="line" smooth="yes"/>
      <point x="352" y="257"/>
      <point x="390" y="195"/>
      <point x="414" y="123" type="curve"/>
      <point x="438" y="176"/>
      <point x="445" y="235"/>
      <point x="447" y="292" type="curve"/>
      <point x="532" y="292" type="line"/>
      <point x="532" y="256" type="line"/>
      <point x="481" y="256" type="line"/>
      <point x="480" y="208"/>
      <point x="468" y="138"/>
      <point x="432" y="81" type="curve"/>
      <point x="439" y="64"/>
      <point x="454" y="33"/>
      <point x="475" y="33" type="curve" smooth="yes"/>
      <point x="494" y="33"/>
      <point x="501" y="58"/>
      <point x="504" y="73" type="curve"/>
      <point x="532" y="57" type="line"/>
      <point x="527" y="25"/>
      <point x="511" y="-3"/>
      <point x="475" y="-3" type="curve" smooth="yes"/>
      <point x="440" y="-3"/>
      <point x="421" y="22"/>
      <point x="404" y="50" type="curve"/>
      <point x="370" y="8"/>
      <point x="316" y="-12"/>
      <point x="263" y="-12" type="curve" smooth="yes"/>
      <point x="165" y="-12"/>
      <point x="101" y="79"/>
      <point x="101" y="171" type="curve" smooth="yes"/>
      <point x="101" y="255"/>
      <point x="144" y="327"/>
      <point x="224" y="357" type="curve"/>
      <point x="193" y="398"/>
      <point x="166" y="451"/>
      <point x="166" y="503" type="curve" smooth="yes"/>
      <point x="166" y="568"/>
      <point x="224" y="612"/>
      <point x="286" y="612" type="curve" smooth="yes"/>
      <point x="328" y="612"/>
      <point x="365" y="589"/>
      <point x="390" y="556" type="curve"/>
      <point x="361" y="526" type="line"/>
      <point x="341" y="552"/>
      <point x="317" y="576"/>
      <point x="283" y="576" type="curve" smooth="yes"/>
      <point x="241" y="576"/>
      <point x="208" y="543"/>
      <point x="208" y="502" type="curve" smooth="yes"/>
      <point x="208" y="451"/>
      <point x="241" y="400"/>
    </contour>
  </outline>
</glyph>
<glyph name="quotesingle" format="1">
  <advance width="600"/>
  <unicode hex="0027"/>
  <outline>
    <contour>
      <point x="320" y="320" type="line"/>
      <point x="280" y="320" type="line"/>
      <point x="252" y="498" type="line" smooth="yes"/>
      <point x="249" y="520"/>
      <point x="244" y="556"/>
      <point x="244" y="574" type="curve" smooth="yes"/>
      <point x="244" y="589"/>
      <point x="269" y="612"/>
      <point x="300" y="612" type="curve" smooth="yes"/>
      <point x="331" y="612"/>
      <point x="356" y="589"/>
      <point x="356" y="574" type="curve" smooth="yes"/>
      <point x="356" y="556"/>
      <point x="351" y="520"/>
      <point x="348" y="498" type="curve" smooth="yes"/>
    </contour>
  </outline>
</glyph>
<glyph name="parenleft" format="1">
  <advance width="600"/>
  <unicode hex="0028"/>
  <outline>
    <contour>
      <point x="460" y="-79" type="curve"/>
      <point x="435" y="-109" type="line"/>
      <point x="302" y="-8"/>
      <point x="249" y="135"/>
      <point x="249" y="300" type="curve" smooth="yes"/>
      <point x="249" y="464"/>
      <point x="302" y="607"/>
      <point x="435" y="709" type="curve"/>
      <point x="460" y="678" type="line"/>
      <point x="333" y="592"/>
      <point x="291" y="446"/>
      <point x="291" y="300" type="curve" smooth="yes"/>
      <point x="291" y="153"/>
      <point x="333" y="7"/>
    </contour>
  </outline>
</glyph>
<glyph name="parenright" format="1">
  <advance width="600"/>
  <unicode hex="0029"/>
  <outline>
    <contour>
      <point x="140" y="679" type="curve"/>
      <point x="165" y="709" type="line"/>
      <point x="298" y="608"/>
      <point x="351" y="465"/>
      <point x="351" y="300" type="curve" smooth="yes"/>
      <point x="351" y="136"/>
      <point x="298" y="-7"/>
      <point x="165" y="-109" type="curve"/>
      <point x="140" y="-78" type="line"/>
      <point x="267" y="8"/>
      <point x="309" y="154"/>
      <point x="309" y="300" type="curve" smooth="yes"/>
      <point x="309" y="447"/>
      <point x="267" y="593"/>
    </contour>
  </outline>
</glyph>
<glyph name="asterisk" format="1">
  <advance width="600"/>
  <unicode hex="002A"/>
  <outline>
    <contour>
      <point x="215" y="341" type="curve" smooth="yes"/>
      <point x="200" y="352"/>
      <point x="201" y="372"/>
      <point x="212" y="388" type="curve" smooth="yes"/>
      <point x="226" y="407"/>
      <point x="258" y="428"/>
      <point x="275" y="440" type="curve"/>
      <point x="270" y="447"/>
      <point x="266" y="453"/>
      <point x="265" y="461" type="curve"/>
      <point x="244" y="461"/>
      <point x="205" y="460"/>
      <point x="184" y="467" type="curve" smooth="yes"/>
      <point x="164" y="473"/>
      <point x="153" y="488"/>
      <point x="158" y="507" type="curve" smooth="yes"/>
      <point x="165" y="524"/>
      <point x="183" y="530"/>
      <point x="202" y="524" type="curve" smooth="yes"/>
      <point x="224" y="517"/>
      <point x="254" y="493"/>
      <point x="271" y="480" type="curve"/>
      <point x="275" y="487"/>
      <point x="282" y="493"/>
      <point x="291" y="497" type="curve"/>
      <point x="284" y="517"/>
      <point x="271" y="553"/>
      <point x="271" y="576" type="curve" smooth="yes"/>
      <point x="271" y="596"/>
      <point x="282" y="612"/>
      <point x="301" y="612" type="curve" smooth="yes"/>
      <point x="320" y="612"/>
      <point x="331" y="596"/>
      <point x="331" y="576" type="curve" smooth="yes"/>
      <point x="331" y="553"/>
      <point x="317" y="517"/>
      <point x="311" y="497" type="curve"/>
      <point x="319" y="493"/>
      <point x="325" y="487"/>
      <point x="328" y="480" type="curve"/>
      <point x="345" y="493"/>
      <point x="375" y="517"/>
      <point x="397" y="524" type="curve" smooth="yes"/>
      <point x="416" y="530"/>
      <point x="435" y="524"/>
      <point x="441" y="506" type="curve" smooth="yes"/>
      <point x="446" y="488"/>
      <point x="435" y="473"/>
      <point x="416" y="467" type="curve" smooth="yes"/>
      <point x="394" y="460"/>
      <point x="356" y="461"/>
      <point x="334" y="461" type="curve"/>
      <point x="334" y="454"/>
      <point x="330" y="447"/>
      <point x="326" y="442" type="curve"/>
      <point x="343" y="430"/>
      <point x="375" y="409"/>
      <point x="388" y="390" type="curve" smooth="yes"/>
      <point x="400" y="374"/>
      <point x="401" y="355"/>
      <point x="385" y="343" type="curve" smooth="yes"/>
      <point x="370" y="332"/>
      <point x="352" y="339"/>
      <point x="340" y="355" type="curve" smooth="yes"/>
      <point x="326" y="374"/>
      <point x="316" y="410"/>
      <point x="310" y="431" type="curve"/>
      <point x="305" y="428"/>
      <point x="297" y="428"/>
      <point x="291" y="429" type="curve"/>
      <point x="285" y="408"/>
      <point x="274" y="371"/>
      <point x="261" y="353" type="curve" smooth="yes"/>
      <point x="249" y="337"/>
      <point x="231" y="329"/>
    </contour>
  </outline>
</glyph>
<glyph name="plus" format="1">
  <advance width="600"/>
  <unicode hex="002B"/>
  <outline>
    <contour>
      <point x="566" y="382" type="line"/>
      <point x="566" y="338" type="line"/>
      <point x="322" y="338" type="line"/>
      <point x="322" y="94" type="line"/>
      <point x="278" y="94" type="line"/>
      <point x="278" y="338" type="line"/>
      <point x="34" y="338" type="line"/>
      <point x="34" y="382" type="line"/>
      <point x="278" y="382" type="line"/>
      <point x="278" y="626" type="line"/>
      <point x="322" y="626" type="line"/>
      <point x="322" y="382" type="line"/>
    </contour>
  </outline>
</glyph>
<glyph name="hyphen" format="1">
  <advance width="600"/>
  <unicode hex="002D"/>
  <outline>
    <contour>
      <point x="420" y="282" type="line"/>
      <point x="180" y="282" type="line"/>
      <point x="180" y="318" type="line"/>
      <point x="420" y="318" type="line"/>
    </contour>
  </outline>
</glyph>
<glyph name="period" format="1">
  <advance width="600"/>
  <unicode hex="002E"/>
  <outline>
    <contour>
      <point x="239" y="49" type="curve" smooth="yes"/>
      <point x="239" y="82"/>
      <point x="267" y="110"/>
      <point x="300" y="110" type="curve" smooth="yes"/>
      <point x="333" y="110"/>
      <point x="361" y="82"/>
      <point x="361" y="49" type="curve" smooth="yes"/>
      <point x="361" y="16"/>
      <point x="333" y="-12"/>
      <point x="300" y="-12" type="curve" smooth="yes"/>
      <point x="267" y="-12"/>
      <point x="239" y="16"/>
    </contour>
  </outline>
</glyph>
<glyph name="slash" format="1">
  <advance width="600"/>
  <unicode hex="002F"/>
  <outline>
    <contour>
      <point x="175" y="-27" type="line"/>
      <point x="129" y="-27" type="line"/>
      <point x="425" y="747" type="line"/>
      <point x="471" y="747" type="line"/>
    </contour>
  </outline>
</glyph>
<glyph name="zero" format="1">
  <advance width="600"/>
  <unicode hex="0030"/>
  <outline>
    <contour>
      <point x="300" y="612" type="curve" smooth="yes"/>
      <point x="395" y="612"/>
      <point x="499" y="536"/>
      <point x="499" y="300" type="curve" smooth="yes"/>
      <point x="499" y="64"/>
      <point x="395" y="-12"/>
      <point x="300" y="-12" type="curve" smooth="yes"/>
      <point x="205" y="-12"/>
      <point x="101" y="64"/>
      <point x="101" y="300" type="curve" smooth="yes"/>
      <point x="101" y="536"/>
      <point x="205" y="612"/>
    </contour>
    <contour>
      <point x="457" y="300" type="curve" smooth="yes"/>
      <point x="457" y="506"/>
      <point x="381" y="576"/>
      <point x="300" y="576" type="curve" smooth="yes"/>
      <point x="219" y="576"/>
      <point x="143" y="506"/>
      <point x="143" y="300" type="curve" smooth="yes"/>
      <point x="143" y="94"/>
      <point x="219" y="24"/>
      <point x="300" y="24" type="curve" smooth="yes"/>
      <point x="381" y="24"/>
      <point x="457" y="94"/>
    </contour>
  </outline>
</glyph>
<glyph name="one" format="1">
  <advance width="600"/>
  <unicode hex="0031"/>
  <outline>
    <contour>
      <point x="324" y="573" type="curve" smooth="yes"/>
      <point x="324" y="36" type="line"/>
      <point x="461" y="36" type="line"/>
      <point x="461" y="0" type="line"/>
      <point x="138" y="0" type="line"/>
      <point x="138" y="36" type="line"/>
      <point x="285" y="36" type="line"/>
      <point x="285" y="548" type="line"/>
      <point x="257" y="542"/>
      <point x="198" y="534"/>
      <point x="149" y="533" type="curve"/>
      <point x="143" y="568" type="line"/>
      <point x="191" y="569"/>
      <point x="266" y="574"/>
      <point x="287" y="599" type="curve" smooth="yes"/>
      <point x="293" y="606"/>
      <point x="298" y="612"/>
      <point x="309" y="612" type="curve" smooth="yes"/>
      <point x="323" y="612"/>
      <point x="324" y="587"/>
    </contour>
  </outline>
</glyph>
<glyph name="two" format="1">
  <advance width="600"/>
  <unicode hex="0032"/>
  <outline>
    <contour>
      <point x="453" y="102" type="line"/>
      <point x="488" y="94" type="line"/>
      <point x="444" y="0" type="line"/>
      <point x="114" y="0" type="line"/>
      <point x="114" y="42" type="line"/>
      <point x="306" y="250" type="line" smooth="yes"/>
      <point x="356" y="304"/>
      <point x="411" y="384"/>
      <point x="411" y="460" type="curve" smooth="yes"/>
      <point x="411" y="512"/>
      <point x="368" y="576"/>
      <point x="288" y="576" type="curve" smooth="yes"/>
      <point x="247" y="576"/>
      <point x="209" y="561"/>
      <point x="185" y="520" type="curve"/>
      <point x="185" y="491"/>
      <point x="176" y="453"/>
      <point x="147" y="453" type="curve" smooth="yes"/>
      <point x="134" y="453"/>
      <point x="128" y="464"/>
      <point x="128" y="475" type="curve" smooth="yes"/>
      <point x="128" y="559"/>
      <point x="213" y="612"/>
      <point x="289" y="612" type="curve" smooth="yes"/>
      <point x="376" y="612"/>
      <point x="453" y="552"/>
      <point x="453" y="461" type="curve" smooth="yes"/>
      <point x="453" y="384"/>
      <point x="411" y="314"/>
      <point x="361" y="258" type="curve" smooth="yes"/>
      <point x="206" y="85" type="line"/>
      <point x="158" y="36" type="line"/>
      <point x="419" y="36" type="line"/>
    </contour>
  </outline>
</glyph>
<glyph name="three" format="1">
  <advance width="600"/>
  <unicode hex="0033"/>
  <outline>
    <contour>
      <point x="280" y="308" type="curve" smooth="yes"/>
      <point x="240" y="308" type="line"/>
      <point x="240" y="344" type="line"/>
      <point x="265" y="344" type="line" smooth="yes"/>
      <point x="339" y="344"/>
      <point x="393" y="372"/>
      <point x="393" y="450" type="curve" smooth="yes"/>
      <point x="393" y="545"/>
      <point x="326" y="576"/>
      <point x="273" y="576" type="curve" smooth="yes"/>
      <point x="243" y="576"/>
      <point x="214" y="566"/>
      <point x="192" y="546" type="curve"/>
      <point x="191" y="521"/>
      <point x="173" y="476"/>
      <point x="143" y="476" type="curve" smooth="yes"/>
      <point x="130" y="476"/>
      <point x="125" y="488"/>
      <point x="125" y="500" type="curve" smooth="yes"/>
      <point x="125" y="558"/>
      <point x="204" y="612"/>
      <point x="282" y="612" type="curve" smooth="yes"/>
      <point x="372" y="612"/>
      <point x="435" y="543"/>
      <point x="435" y="455" type="curve" smooth="yes"/>
      <point x="435" y="402"/>
      <point x="409" y="351"/>
      <point x="359" y="329" type="curve"/>
      <point x="429" y="302"/>
      <point x="466" y="244"/>
      <point x="466" y="169" type="curve" smooth="yes"/>
      <point x="466" y="56"/>
      <point x="377" y="-12"/>
      <point x="269" y="-12" type="curve" smooth="yes"/>
      <point x="210" y="-12"/>
      <point x="141" y="0"/>
      <point x="91" y="30" type="curve"/>
      <point x="107" y="62" type="line"/>
      <point x="151" y="37"/>
      <point x="212" y="24"/>
      <point x="263" y="24" type="curve" smooth="yes"/>
      <point x="351" y="24"/>
      <point x="424" y="70"/>
      <point x="424" y="166" type="curve" smooth="yes"/>
      <point x="424" y="255"/>
      <point x="370" y="308"/>
    </contour>
  </outline>
</glyph>
<glyph name="four" format="1">
  <advance width="600"/>
  <unicode hex="0034"/>
  <outline>
    <contour>
      <point x="389" y="414" type="line"/>
      <point x="428" y="414" type="line"/>
      <point x="428" y="198" type="line"/>
      <point x="516" y="198" type="line"/>
      <point x="516" y="162" type="line"/>
      <point x="428" y="162" type="line"/>
      <point x="428" y="36" type="line"/>
      <point x="516" y="36" type="line"/>
      <point x="516" y="0" type="line"/>
      <point x="287" y="0" type="line"/>
      <point x="287" y="36" type="line"/>
      <point x="389" y="36" type="line"/>
      <point x="389" y="162" type="line"/>
      <point x="89" y="162" type="line"/>
      <point x="89" y="204" type="line"/>
      <point x="171" y="343"/>
      <point x="249" y="487"/>
      <point x="290" y="645" type="curve"/>
      <point x="329" y="633" type="line"/>
      <point x="287" y="477"/>
      <point x="206" y="335"/>
      <point x="122" y="198" type="curve"/>
      <point x="389" y="198" type="line"/>
    </contour>
  </outline>
</glyph>
<glyph name="five" format="1">
  <advance width="600"/>
  <unicode hex="0035"/>
  <outline>
    <contour>
      <point x="431" y="600" type="line"/>
      <point x="431" y="564" type="line"/>
      <point x="196" y="564" type="line"/>
      <point x="182" y="397" type="line"/>
      <point x="206" y="402"/>
      <point x="230" y="408"/>
      <point x="254" y="408" type="curve" smooth="yes"/>
      <point x="373" y="408"/>
      <point x="458" y="334"/>
      <point x="458" y="211" type="curve" smooth="yes"/>
      <point x="458" y="75"/>
      <point x="352" y="-12"/>
      <point x="221" y="-12" type="curve" smooth="yes"/>
      <point x="173" y="-12"/>
      <point x="130" y="-3"/>
      <point x="86" y="14" type="curve"/>
      <point x="96" y="48" type="line"/>
      <point x="136" y="32"/>
      <point x="174" y="24"/>
      <point x="218" y="24" type="curve" smooth="yes"/>
      <point x="329" y="24"/>
      <point x="416" y="93"/>
      <point x="416" y="208" type="curve" smooth="yes"/>
      <point x="416" y="305"/>
      <point x="352" y="372"/>
      <point x="255" y="372" type="curve" smooth="yes"/>
      <point x="217" y="372"/>
      <point x="179" y="363"/>
      <point x="143" y="352" type="curve"/>
      <point x="162" y="600" type="line"/>
    </contour>
  </outline>
</glyph>
<glyph name="six" format="1">
  <advance width="600"/>
  <unicode hex="0036"/>
  <outline>
    <contour>
      <point x="416" y="612" type="curve"/>
      <point x="416" y="576" type="line"/>
      <point x="256" y="579"/>
      <point x="162" y="445"/>
      <point x="153" y="299" type="curve"/>
      <point x="155" y="297" type="line"/>
      <point x="186" y="350"/>
      <point x="247" y="384"/>
      <point x="307" y="384" type="curve" smooth="yes"/>
      <point x="416" y="384"/>
      <point x="489" y="289"/>
      <point x="489" y="186" type="curve" smooth="yes"/>
      <point x="489" y="83"/>
      <point x="416" y="-12"/>
      <point x="307" y="-12" type="curve" smooth="yes"/>
      <point x="233" y="-12"/>
      <point x="110" y="33"/>
      <point x="110" y="244" type="curve" smooth="yes"/>
      <point x="110" y="437"/>
      <point x="202" y="610"/>
    </contour>
    <contour>
      <point x="155" y="194" type="curve" smooth="yes"/>
      <point x="155" y="111"/>
      <point x="211" y="24"/>
      <point x="307" y="24" type="curve" smooth="yes"/>
      <point x="389" y="24"/>
      <point x="447" y="103"/>
      <point x="447" y="186" type="curve" smooth="yes"/>
      <point x="447" y="269"/>
      <point x="389" y="348"/>
      <point x="307" y="348" type="curve" smooth="yes"/>
      <point x="221" y="348"/>
      <point x="155" y="281"/>
    </contour>
  </outline>
</glyph>
<glyph name="seven" format="1">
  <advance width="600"/>
  <unicode hex="0037"/>
  <outline>
    <contour>
      <point x="114" y="600" type="line"/>
      <point x="470" y="600" type="line"/>
      <point x="221" y="-12" type="line"/>
      <point x="178" y="-12" type="line"/>
      <point x="416" y="564" type="line"/>
      <point x="114" y="564" type="line"/>
    </contour>
  </outline>
</glyph>
<glyph name="eight" format="1">
  <advance width="600"/>
  <unicode hex="0038"/>
  <outline>
    <contour>
      <point x="300" y="294" type="curve" smooth="yes"/>
      <point x="226" y="294"/>
      <point x="146" y="247"/>
      <point x="146" y="162" type="curve" smooth="yes"/>
      <point x="146" y="81"/>
      <point x="225" y="24"/>
      <point x="300" y="24" type="curve" smooth="yes"/>
      <point x="375" y="24"/>
      <point x="454" y="81"/>
      <point x="454" y="162" type="curve" smooth="yes"/>
      <point x="454" y="247"/>
      <point x="374" y="294"/>
    </contour>
    <contour>
      <point x="300" y="-12" type="curve" smooth="yes"/>
      <point x="196" y="-12"/>
      <point x="104" y="61"/>
      <point x="104" y="158" type="curve" smooth="yes"/>
      <point x="104" y="243"/>
      <point x="169" y="301"/>
      <point x="249" y="316" type="curve"/>
      <point x="183" y="343"/>
      <point x="126" y="399"/>
      <point x="126" y="475" type="curve" smooth="yes"/>
      <point x="126" y="564"/>
      <point x="211" y="612"/>
      <point x="300" y="612" type="curve" smooth="yes"/>
      <point x="389" y="612"/>
      <point x="474" y="564"/>
      <point x="474" y="475" type="curve" smooth="yes"/>
      <point x="474" y="399"/>
      <point x="417" y="343"/>
      <point x="351" y="316" type="curve"/>
      <point x="431" y="301"/>
      <point x="496" y="243"/>
      <point x="496" y="158" type="curve" smooth="yes"/>
      <point x="496" y="61"/>
      <point x="404" y="-12"/>
    </contour>
    <contour>
      <point x="300" y="576" type="curve" smooth="yes"/>
      <point x="237" y="576"/>
      <point x="168" y="547"/>
      <point x="168" y="474" type="curve" smooth="yes"/>
      <point x="168" y="401"/>
      <point x="211" y="371"/>
      <point x="300" y="331" type="curve"/>
      <point x="389" y="371"/>
      <point x="432" y="401"/>
      <point x="432" y="474" type="curve" smooth="yes"/>
      <point x="432" y="547"/>
      <point x="363" y="576"/>
    </contour>
  </outline>
</glyph>
<glyph name="nine" format="1">
  <advance width="600"/>
  <unicode hex="0039"/>
  <outline>
    <contour>
      <point x="154" y="-12" type="line"/>
      <point x="154" y="24" type="line"/>
      <point x="201" y="24" type="line" smooth="yes"/>
      <point x="350" y="24"/>
      <point x="441" y="167"/>
      <point x="447" y="304" type="curve"/>
      <point x="445" y="306" type="line"/>
      <point x="415" y="255"/>
      <point x="353" y="218"/>
      <point x="292" y="218" type="curve" smooth="yes"/>
      <point x="186" y="218"/>
      <point x="111" y="305"/>
      <point x="111" y="409" type="curve" smooth="yes"/>
      <point x="111" y="516"/>
      <point x="183" y="612"/>
      <point x="296" y="612" type="curve" smooth="yes"/>
      <point x="373" y="612"/>
      <point x="489" y="557"/>
      <point x="489" y="358" type="curve" smooth="yes"/>
      <point x="489" y="176"/>
      <point x="399" y="-12"/>
      <point x="193" y="-12" type="curve" smooth="yes"/>
    </contour>
    <contour>
      <point x="443" y="405" type="curve" smooth="yes"/>
      <point x="443" y="487"/>
      <point x="387" y="576"/>
      <point x="298" y="576" type="curve" smooth="yes"/>
      <point x="211" y="576"/>
      <point x="153" y="496"/>
      <point x="153" y="415" type="curve" smooth="yes"/>
      <point x="153" y="334"/>
      <point x="205" y="254"/>
      <point x="292" y="254" type="curve" smooth="yes"/>
      <point x="387" y="254"/>
      <point x="443" y="340"/>
    </contour>
  </outline>
</glyph>
<glyph name="colon" format="1">
  <advance width="600"/>
  <unicode hex="003A"/>
  <outline>
    <contour>
      <point x="239" y="49" type="curve" smooth="yes"/>
      <point x="239" y="82"/>
      <point x="267" y="110"/>
      <point x="300" y="110" type="curve" smooth="yes"/>
      <point x="333" y="110"/>
      <point x="361" y="82"/>
      <point x="361" y="49" type="curve" smooth="yes"/>
      <point x="361" y="16"/>
      <point x="333" y="-12"/>
      <point x="300" y="-12" type="curve" smooth="yes"/>
      <point x="267" y="-12"/>
      <point x="239" y="16"/>
    </contour>
    <contour>
      <point x="239" y="359" type="curve" smooth="yes"/>
      <point x="239" y="392"/>
      <point x="267" y="420"/>
      <point x="300" y="420" type="curve" smooth="yes"/>
      <point x="333" y="420"/>
      <point x="361" y="392"/>
      <point x="361" y="359" type="curve" smooth="yes"/>
      <point x="361" y="326"/>
      <point x="333" y="298"/>
      <point x="300" y="298" type="curve" smooth="yes"/>
      <point x="267" y="298"/>
      <point x="239" y="326"/>
    </contour>
  </outline>
</glyph>
<glyph name="semicolon" format="1">
  <advance width="600"/>
  <unicode hex="003B"/>
  <outline>
    <contour>
      <point x="251" y="-92" type="curve"/>
      <point x="251" y="-54" type="line"/>
      <point x="278" y="-46"/>
      <point x="309" y="-30"/>
      <point x="320" y="-2" type="curve"/>
      <point x="317" y="-3"/>
      <point x="314" y="-4"/>
      <point x="312" y="-4" type="curve" smooth="yes"/>
      <point x="309" y="-5"/>
      <point x="307" y="-5"/>
      <point x="304" y="-5" type="curve" smooth="yes"/>
      <point x="273" y="-5"/>
      <point x="249" y="16"/>
      <point x="249" y="48" type="curve" smooth="yes"/>
      <point x="249" y="82"/>
      <point x="273" y="108"/>
      <point x="308" y="108" type="curve" smooth="yes"/>
      <point x="347" y="108"/>
      <point x="371" y="71"/>
      <point x="371" y="36" type="curve" smooth="yes"/>
      <point x="371" y="-28"/>
      <point x="307" y="-77"/>
    </contour>
    <contour>
      <point x="249" y="359" type="curve" smooth="yes"/>
      <point x="249" y="392"/>
      <point x="277" y="420"/>
      <point x="310" y="420" type="curve" smooth="yes"/>
      <point x="343" y="420"/>
      <point x="371" y="392"/>
      <point x="371" y="359" type="curve" smooth="yes"/>
      <point x="371" y="326"/>
      <point x="343" y="298"/>
      <point x="310" y="298" type="curve" smooth="yes"/>
      <point x="277" y="298"/>
      <point x="249" y="326"/>
    </contour>
  </outline>
</glyph>
<glyph name="less" format="1">
  <advance width="600"/>
  <unicode hex="003C"/>
  <outline>
    <contour>
      <point x="98" y="360" type="line"/>
      <point x="477" y="720" type="line"/>
      <point x="502" y="688" type="line"/>
      <point x="162" y="360" type="line"/>
      <point x="502" y="32" type="line"/>
      <point x="477" y="0" type="line"/>
    </contour>
  </outline>
</glyph>
<glyph name="greater" format="1">
  <advance width="600"/>
  <unicode hex="003E"/>
  <outline>
    <contour>
      <point x="123" y="720" type="line"/>
      <point x="502" y="360" type="line"/>
      <point x="123" y="0" type="line"/>
      <point x="98" y="32" type="line"/>
      <point x="438" y="360" type="line"/>
      <point x="98" y="688" type="line"/>
    </contour>
  </outline>
</glyph>
<glyph name="question" format="1">
  <advance width="600"/>
  <unicode hex="003F"/>
  <outline>
    <contour>
      <point x="288" y="159" type="curve"/>
      <point x="251" y="159" type="line"/>
      <point x="251" y="178" type="line" smooth="yes"/>
      <point x="251" y="327"/>
      <point x="382" y="364"/>
      <point x="382" y="469" type="curve" smooth="yes"/>
      <point x="382" y="527"/>
      <point x="342" y="576"/>
      <point x="283" y="576" type="curve" smooth="yes"/>
      <point x="227" y="576"/>
      <point x="178" y="541"/>
      <point x="171" y="484" type="curve"/>
      <point x="175" y="474"/>
      <point x="177" y="464"/>
      <point x="177" y="453" type="curve" smooth="yes"/>
      <point x="177" y="439"/>
      <point x="170" y="420"/>
      <point x="154" y="420" type="curve" smooth="yes"/>
      <point x="129" y="420"/>
      <point x="127" y="448"/>
      <point x="127" y="467" type="curve" smooth="yes"/>
      <point x="127" y="544"/>
      <point x="191" y="612"/>
      <point x="283" y="612" type="curve" smooth="yes"/>
      <point x="358" y="612"/>
      <point x="424" y="554"/>
      <point x="424" y="477" type="curve" smooth="yes"/>
      <point x="424" y="409"/>
      <point x="389" y="367"/>
      <point x="347" y="318" type="curve" smooth="yes"/>
      <point x="299" y="263"/>
      <point x="286" y="234"/>
    </contour>
    <contour>
      <point x="216" y="42" type="curve" smooth="yes"/>
      <point x="216" y="71"/>
      <point x="240" y="95"/>
      <point x="269" y="95" type="curve" smooth="yes"/>
      <point x="299" y="95"/>
      <point x="323" y="71"/>
      <point x="323" y="42" type="curve" smooth="yes"/>
      <point x="323" y="12"/>
      <point x="299" y="-12"/>
      <point x="269" y="-12" type="curve" smooth="yes"/>
      <point x="240" y="-12"/>
      <point x="216" y="12"/>
    </contour>
  </outline>
</glyph>
<glyph name="at" format="1">
  <advance width="600"/>
  <unicode hex="0040"/>
  <outline>
    <contour>
      <point x="487" y="91" type="curve"/>
      <point x="502" y="54" type="line"/>
      <point x="439" y="17"/>
      <point x="370" y="-12"/>
      <point x="280" y="-12" type="curve" smooth="yes"/>
      <point x="138" y="-12"/>
      <point x="43" y="91"/>
      <point x="43" y="248" type="curve" smooth="yes"/>
      <point x="43" y="410"/>
      <point x="134" y="612"/>
      <point x="321" y="612" type="curve" smooth="yes"/>
      <point x="449" y="612"/>
      <point x="556" y="513"/>
      <point x="556" y="361" type="curve" smooth="yes"/>
      <point x="556" y="283"/>
      <point x="521" y="154"/>
      <point x="423" y="154" type="curve" smooth="yes"/>
      <point x="389" y="154"/>
      <point x="357" y="173"/>
      <point x="346" y="207" type="curve"/>
      <point x="325" y="177"/>
      <point x="293" y="154"/>
      <point x="255" y="154" type="curve" smooth="yes"/>
      <point x="210" y="154"/>
      <point x="181" y="187"/>
      <point x="181" y="231" type="curve" smooth="yes"/>
      <point x="181" y="277"/>
      <point x="196" y="342"/>
      <point x="244" y="386" type="curve" smooth="yes"/>
      <point x="283" y="421"/>
      <point x="332" y="426"/>
      <point x="385" y="426" type="curve" smooth="yes"/>
      <point x="408" y="426" type="line"/>
      <point x="384" y="286" type="line" smooth="yes"/>
      <point x="372" y="218"/>
      <point x="388" y="190"/>
      <point x="423" y="190" type="curve" smooth="yes"/>
      <point x="495" y="190"/>
      <point x="514" y="301"/>
      <point x="514" y="359" type="curve" smooth="yes"/>
      <point x="514" y="485"/>
      <point x="434" y="576"/>
      <point x="317" y="576" type="curve" smooth="yes"/>
      <point x="233" y="576"/>
      <point x="85" y="482"/>
      <point x="85" y="247" type="curve" smooth="yes"/>
      <point x="85" y="110"/>
      <point x="163" y="24"/>
      <point x="286" y="24" type="curve" smooth="yes"/>
      <point x="359" y="24"/>
      <point x="425" y="52"/>
    </contour>
    <contour>
      <point x="358" y="357" type="curve" smooth="yes"/>
      <point x="363" y="388" type="line"/>
      <point x="339" y="386"/>
      <point x="300" y="382"/>
      <point x="282" y="369" type="curve" smooth="yes"/>
      <point x="233" y="334"/>
      <point x="223" y="274"/>
      <point x="223" y="236" type="curve" smooth="yes"/>
      <point x="223" y="213"/>
      <point x="236" y="190"/>
      <point x="260" y="190" type="curve" smooth="yes"/>
      <point x="292" y="190"/>
      <point x="319" y="227"/>
      <point x="332" y="254" type="curve" smooth="yes"/>
      <point x="347" y="285"/>
      <point x="353" y="324"/>
    </contour>
  </outline>
</glyph>
<glyph name="B" format="1">
  <advance width="600"/>
  <unicode hex="0042"/>
  <outline>
    <contour>
      <point x="198" y="306" type="line"/>
      <point x="198" y="48" type="line"/>
      <point x="236" y="48" type="line"/>
      <point x="338" y="36" type="line" smooth="yes"/>
      <point x="422" y="26"/>
      <point x="481" y="71"/>
      <point x="481" y="163" type="curve" smooth="yes"/>
      <point x="481" y="234"/>
      <point x="438" y="306"/>
      <point x="299" y="306" type="curve" smooth="yes"/>
    </contour>
    <contour>
      <point x="63" y="0" type="curve"/>
      <point x="55" y="36" type="line"/>
      <point x="159" y="48" type="line"/>
      <point x="159" y="552" type="line"/>
      <point x="53" y="564" type="line"/>
      <point x="53" y="600" type="line"/>
      <point x="87" y="596"/>
      <point x="121" y="588"/>
      <point x="155" y="588" type="curve" smooth="yes"/>
      <point x="187" y="588"/>
      <point x="283" y="600"/>
      <point x="326" y="600" type="curve" smooth="yes"/>
      <point x="402" y="600"/>
      <point x="471" y="553"/>
      <point x="471" y="472" type="curve" smooth="yes"/>
      <point x="471" y="410"/>
      <point x="428" y="356"/>
      <point x="372" y="333" type="curve"/>
      <point x="463" y="315"/>
      <point x="523" y="257"/>
      <point x="523" y="161" type="curve" smooth="yes"/>
      <point x="523" y="62"/>
      <point x="455" y="0"/>
      <point x="360" y="0" type="curve" smooth="yes"/>
      <point x="319" y="0"/>
      <point x="237" y="12"/>
      <point x="202" y="12" type="curve" smooth="yes"/>
      <point x="147" y="12"/>
      <point x="100" y="4"/>
    </contour>
    <contour>
      <point x="198" y="552" type="curve"/>
      <point x="198" y="342" type="line"/>
      <point x="249" y="342" type="line" smooth="yes"/>
      <point x="384" y="342"/>
      <point x="429" y="406"/>
      <point x="429" y="468" type="curve" smooth="yes"/>
      <point x="429" y="532"/>
      <point x="381" y="567"/>
      <point x="321" y="567" type="curve" smooth="yes"/>
      <point x="280" y="567"/>
      <point x="239" y="556"/>
    </contour>
  </outline>
</glyph>
<glyph name="C" format="1">
  <advance width="600"/>
  <unicode hex="0043"/>
  <outline>
    <contour>
      <point x="475" y="571" type="curve"/>
      <point x="487" y="609" type="line"/>
      <point x="522" y="597" type="line"/>
      <point x="516" y="581"/>
      <point x="513" y="564"/>
      <point x="511" y="547" type="curve" smooth="yes"/>
      <point x="509" y="530"/>
      <point x="507" y="513"/>
      <point x="508" y="496" type="curve" smooth="yes"/>
      <point x="511" y="426" type="line"/>
      <point x="475" y="420" type="line"/>
      <point x="471" y="517"/>
      <point x="435" y="576"/>
      <point x="330" y="576" type="curve" smooth="yes"/>
      <point x="181" y="576"/>
      <point x="128" y="427"/>
      <point x="128" y="302" type="curve" smooth="yes"/>
      <point x="128" y="179"/>
      <point x="183" y="24"/>
      <point x="329" y="24" type="curve" smooth="yes"/>
      <point x="433" y="24"/>
      <point x="483" y="92"/>
      <point x="483" y="192" type="curve"/>
      <point x="522" y="192" type="line"/>
      <point x="522" y="75" type="line"/>
      <point x="469" y="22"/>
      <point x="401" y="-12"/>
      <point x="326" y="-12" type="curve" smooth="yes"/>
      <point x="221" y="-12"/>
      <point x="86" y="71"/>
      <point x="86" y="306" type="curve" smooth="yes"/>
      <point x="86" y="537"/>
      <point x="222" y="612"/>
      <point x="328" y="612" type="curve" smooth="yes"/>
      <point x="379" y="612"/>
      <point x="431" y="597"/>
    </contour>
  </outline>
</glyph>
<glyph name="D" format="1">
  <advance width="600"/>
  <unicode hex="0044"/>
  <outline>
    <contour>
      <point x="133" y="48" type="line"/>
      <point x="133" y="552" type="line"/>
      <point x="52" y="564" type="line"/>
      <point x="56" y="600" type="line"/>
      <point x="82" y="596"/>
      <point x="108" y="588"/>
      <point x="142" y="588" type="curve" smooth="yes"/>
      <point x="181" y="588"/>
      <point x="223" y="600"/>
      <point x="273" y="600" type="curve" smooth="yes"/>
      <point x="448" y="600"/>
      <point x="524" y="463"/>
      <point x="524" y="289" type="curve" smooth="yes"/>
      <point x="524" y="49"/>
      <point x="387" y="0"/>
      <point x="280" y="0" type="curve" smooth="yes"/>
      <point x="236" y="0"/>
      <point x="192" y="12"/>
      <point x="148" y="12" type="curve" smooth="yes"/>
      <point x="117" y="12"/>
      <point x="87" y="4"/>
      <point x="56" y="0" type="curve"/>
      <point x="50" y="36" type="line"/>
    </contour>
    <contour>
      <point x="172" y="552" type="line"/>
      <point x="172" y="48" type="line"/>
      <point x="278" y="36" type="line" smooth="yes"/>
      <point x="390" y="23"/>
      <point x="482" y="100"/>
      <point x="482" y="273" type="curve" smooth="yes"/>
      <point x="482" y="500"/>
      <point x="373" y="580"/>
      <point x="257" y="564" type="curve" smooth="yes"/>
    </contour>
  </outline>
</glyph>
<glyph name="F" format="1">
  <advance width="600"/>
  <unicode hex="0046"/>
  <outline>
    <contour>
      <point x="62" y="600" type="line"/>
      <point x="521" y="600" type="line"/>
      <point x="521" y="442" type="line"/>
      <point x="482" y="442" type="line"/>
      <point x="482" y="457" type="line" smooth="yes"/>
      <point x="482" y="546"/>
      <point x="473" y="564"/>
      <point x="385" y="564" type="curve" smooth="yes"/>
      <point x="201" y="564" type="line"/>
      <point x="201" y="330" type="line"/>
      <point x="365" y="330" type="line"/>
      <point x="365" y="417" type="line"/>
      <point x="404" y="417" type="line"/>
      <point x="404" y="196" type="line"/>
      <point x="365" y="196" type="line"/>
      <point x="365" y="294" type="line"/>
      <point x="201" y="294" type="line"/>
      <point x="201" y="36" type="line"/>
      <point x="381" y="36" type="line"/>
      <point x="381" y="0" type="line"/>
      <point x="62" y="0" type="line"/>
      <point x="62" y="36" type="line"/>
      <point x="162" y="36" type="line"/>
      <point x="162" y="564" type="line"/>
      <point x="62" y="564" type="line"/>
    </contour>
  </outline>
</glyph>
<glyph name="G" format="1">
  <advance width="600"/>
  <unicode hex="0047"/>
  <outline>
    <contour>
      <point x="463" y="567" type="curve"/>
      <point x="478" y="610" type="line"/>
      <point x="509" y="601" type="line"/>
      <point x="500" y="569"/>
      <point x="496" y="536"/>
      <point x="496" y="503" type="curve" smooth="yes"/>
      <point x="503" y="424" type="line"/>
      <point x="463" y="418" type="line"/>
      <point x="460" y="446"/>
      <point x="457" y="475"/>
      <point x="446" y="502" type="curve" smooth="yes"/>
      <point x="425" y="556"/>
      <point x="370" y="576"/>
      <point x="315" y="576" type="curve" smooth="yes"/>
      <point x="237" y="576"/>
      <point x="109" y="525"/>
      <point x="109" y="311" type="curve" smooth="yes"/>
      <point x="109" y="102"/>
      <point x="220" y="24"/>
      <point x="303" y="24" type="curve" smooth="yes"/>
      <point x="353" y="24"/>
      <point x="421" y="44"/>
      <point x="453" y="85" type="curve" smooth="yes"/>
      <point x="473" y="111"/>
      <point x="470" y="154"/>
      <point x="470" y="185" type="curve" smooth="yes"/>
      <point x="470" y="212" type="line"/>
      <point x="334" y="212" type="line"/>
      <point x="334" y="248" type="line"/>
      <point x="571" y="248" type="line"/>
      <point x="571" y="212" type="line"/>
      <point x="509" y="212" type="line"/>
      <point x="509" y="75" type="line"/>
      <point x="454" y="23"/>
      <point x="382" y="-12"/>
      <point x="305" y="-12" type="curve" smooth="yes"/>
      <point x="211" y="-12"/>
      <point x="67" y="69"/>
      <point x="67" y="300" type="curve" smooth="yes"/>
      <point x="67" y="529"/>
      <point x="199" y="612"/>
      <point x="315" y="612" type="curve" smooth="yes"/>
      <point x="367" y="612"/>
      <point x="420" y="595"/>
    </contour>
  </outline>
</glyph>
<glyph name="I" format="1">
  <advance width="600"/>
  <unicode hex="0049"/>
  <outline>
    <contour>
      <point x="117" y="600" type="line"/>
      <point x="483" y="600" type="line"/>
      <point x="483" y="564" type="line"/>
      <point x="320" y="564" type="line"/>
      <point x="320" y="36" type="line"/>
      <point x="483" y="36" type="line"/>
      <point x="483" y="0" type="line"/>
      <point x="117" y="0" type="line"/>
      <point x="117" y="36" type="line"/>
      <point x="281" y="36" type="line"/>
      <point x="281" y="564" type="line"/>
      <point x="117" y="564" type="line"/>
    </contour>
  </outline>
</glyph>
<glyph name="J" format="1">
  <advance width="600"/>
  <unicode hex="004A"/>
  <outline>
    <contour>
      <point x="263" y="600" type="line"/>
      <point x="533" y="600" type="line"/>
      <point x="533" y="564" type="line"/>
      <point x="430" y="564" type="line"/>
      <point x="430" y="134" type="line" smooth="yes"/>
      <point x="430" y="32"/>
      <point x="386" y="-12"/>
      <point x="273" y="-12" type="curve" smooth="yes"/>
      <point x="203" y="-12"/>
      <point x="139" y="4"/>
      <point x="78" y="40" type="curve"/>
      <point x="78" y="187" type="line"/>
      <point x="117" y="187" type="line"/>
      <point x="117" y="166" type="line" smooth="yes"/>
      <point x="117" y="134"/>
      <point x="115" y="93"/>
      <point x="137" y="68" type="curve" smooth="yes"/>
      <point x="166" y="35"/>
      <point x="231" y="24"/>
      <point x="273" y="24" type="curve" smooth="yes"/>
      <point x="369" y="24"/>
      <point x="391" y="66"/>
      <point x="391" y="158" type="curve" smooth="yes"/>
      <point x="391" y="564" type="line"/>
      <point x="263" y="564" type="line"/>
    </contour>
  </outline>
</glyph>
<glyph name="K" format="1">
  <advance width="600"/>
  <unicode hex="004B"/>
  <outline>
    <contour>
      <point x="40" y="600" type="line"/>
      <point x="244" y="600" type="line"/>
      <point x="244" y="564" type="line"/>
      <point x="162" y="564" type="line"/>
      <point x="162" y="312" type="line"/>
      <point x="214" y="315"/>
      <point x="270" y="362"/>
      <point x="306" y="397" type="curve" smooth="yes"/>
      <point x="356" y="446"/>
      <point x="399" y="504"/>
      <point x="435" y="564" type="curve"/>
      <point x="352" y="564" type="line"/>
      <point x="352" y="600" type="line"/>
      <point x="556" y="600" type="line"/>
      <point x="556" y="564" type="line"/>
      <point x="478" y="564" type="line"/>
      <point x="424" y="472"/>
      <point x="361" y="383"/>
      <point x="273" y="320" type="curve"/>
      <point x="499" y="36" type="line"/>
      <point x="584" y="36" type="line"/>
      <point x="584" y="0" type="line"/>
      <point x="374" y="0" type="line"/>
      <point x="374" y="36" type="line"/>
      <point x="447" y="36" type="line"/>
      <point x="237" y="300" type="line"/>
      <point x="214" y="287"/>
      <point x="188" y="279"/>
      <point x="162" y="277" type="curve"/>
      <point x="162" y="36" type="line"/>
      <point x="244" y="36" type="line"/>
      <point x="244" y="0" type="line"/>
      <point x="40" y="0" type="line"/>
      <point x="40" y="36" type="line"/>
      <point x="123" y="36" type="line"/>
      <point x="123" y="564" type="line"/>
      <point x="40" y="564" type="line"/>
    </contour>
  </outline>
</glyph>
<glyph name="M" format="1">
  <advance width="600"/>
  <unicode hex="004D"/>
  <outline>
    <contour>
      <point x="502" y="564" type="line"/>
      <point x="502" y="36" type="line"/>
      <point x="574" y="36" type="line"/>
      <point x="574" y="0" type="line"/>
      <point x="379" y="0" type="line"/>
      <point x="379" y="36" type="line"/>
      <point x="463" y="36" type="line"/>
      <point x="463" y="543" type="line"/>
      <point x="461" y="543" type="line"/>
      <point x="300" y="185" type="line"/>
      <point x="139" y="543" type="line"/>
      <point x="137" y="543" type="line"/>
      <point x="137" y="36" type="line"/>
      <point x="221" y="36" type="line"/>
      <point x="221" y="0" type="line"/>
      <point x="26" y="0" type="line"/>
      <point x="26" y="36" type="line"/>
      <point x="98" y="36" type="line"/>
      <point x="98" y="564" type="line"/>
      <point x="26" y="564" type="line"/>
      <point x="26" y="600" type="line"/>
      <point x="152" y="600" type="line"/>
      <point x="300" y="273" type="line"/>
      <point x="448" y="600" type="line"/>
      <point x="574" y="600" type="line"/>
      <point x="574" y="564" type="line"/>
    </contour>
  </outline>
</glyph>
<glyph name="N" format="1">
  <advance width="600"/>
  <unicode hex="004E"/>
  <outline>
    <contour>
      <point x="503" y="564" type="line"/>
      <point x="503" y="0" type="line"/>
      <point x="457" y="0" type="line"/>
      <point x="149" y="543" type="line"/>
      <point x="147" y="543" type="line"/>
      <point x="147" y="36" type="line"/>
      <point x="241" y="36" type="line"/>
      <point x="241" y="0" type="line"/>
      <point x="32" y="0" type="line"/>
      <point x="32" y="36" type="line"/>
      <point x="108" y="36" type="line"/>
      <point x="108" y="564" type="line"/>
      <point x="32" y="564" type="line"/>
      <point x="32" y="600" type="line"/>
      <point x="159" y="600" type="line"/>
      <point x="462" y="64" type="line"/>
      <point x="464" y="64" type="line"/>
      <point x="464" y="564" type="line"/>
      <point x="367" y="564" type="line"/>
      <point x="367" y="600" type="line"/>
      <point x="567" y="600" type="line"/>
      <point x="567" y="564" type="line"/>
    </contour>
  </outline>
</glyph>
<glyph name="P" format="1">
  <advance width="600"/>
  <unicode hex="0050"/>
  <outline>
    <contour>
      <point x="203" y="268" type="line"/>
      <point x="203" y="36" type="line"/>
      <point x="356" y="36" type="line"/>
      <point x="356" y="0" type="line"/>
      <point x="79" y="0" type="line"/>
      <point x="79" y="36" type="line"/>
      <point x="164" y="36" type="line"/>
      <point x="164" y="558" type="line"/>
      <point x="79" y="564" type="line"/>
      <point x="79" y="601" type="line"/>
      <point x="173" y="597" type="line" smooth="yes"/>
      <point x="227" y="595"/>
      <point x="282" y="603"/>
      <point x="336" y="603" type="curve" smooth="yes"/>
      <point x="443" y="603"/>
      <point x="515" y="551"/>
      <point x="515" y="444" type="curve" smooth="yes"/>
      <point x="515" y="329"/>
      <point x="438" y="268"/>
      <point x="272" y="268" type="curve" smooth="yes"/>
    </contour>
    <contour>
      <point x="203" y="559" type="line"/>
      <point x="203" y="304" type="line"/>
      <point x="279" y="304" type="line" smooth="yes"/>
      <point x="403" y="304"/>
      <point x="473" y="346"/>
      <point x="473" y="447" type="curve" smooth="yes"/>
      <point x="473" y="531"/>
      <point x="414" y="572"/>
      <point x="336" y="567" type="curve" smooth="yes"/>
    </contour>
  </outline>
</glyph>
<glyph name="Q" format="1">
  <advance width="600"/>
  <unicode hex="0051"/>
  <outline>
    <contour>
      <point x="440" y="39" type="curve"/>
      <point x="502" y="-54" type="line"/>
      <point x="571" y="-54" type="line"/>
      <point x="571" y="-90" type="line"/>
      <point x="477" y="-90" type="line"/>
      <point x="407" y="16" type="line"/>
      <point x="380" y="1"/>
      <point x="340" y="-12"/>
      <point x="300" y="-12" type="curve" smooth="yes"/>
      <point x="198" y="-12"/>
      <point x="67" y="66"/>
      <point x="67" y="300" type="curve" smooth="yes"/>
      <point x="67" y="534"/>
      <point x="198" y="612"/>
      <point x="300" y="612" type="curve" smooth="yes"/>
      <point x="402" y="612"/>
      <point x="533" y="534"/>
      <point x="533" y="300" type="curve" smooth="yes"/>
      <point x="533" y="209"/>
      <point x="512" y="101"/>
    </contour>
    <contour>
      <point x="387" y="47" type="curve"/>
      <point x="303" y="175" type="line"/>
      <point x="333" y="199" type="line"/>
      <point x="418" y="72" type="line"/>
      <point x="475" y="128"/>
      <point x="491" y="228"/>
      <point x="491" y="300" type="curve" smooth="yes"/>
      <point x="491" y="504"/>
      <point x="391" y="576"/>
      <point x="300" y="576" type="curve" smooth="yes"/>
      <point x="209" y="576"/>
      <point x="109" y="504"/>
      <point x="109" y="300" type="curve" smooth="yes"/>
      <point x="109" y="96"/>
      <point x="209" y="24"/>
      <point x="300" y="24" type="curve" smooth="yes"/>
      <point x="333" y="24"/>
      <point x="361" y="32"/>
    </contour>
  </outline>
</glyph>
<glyph name="R" format="1">
  <advance width="600"/>
  <unicode hex="0052"/>
  <outline>
    <contour>
      <point x="571" y="36" type="line"/>
      <point x="571" y="0" type="line"/>
      <point x="477" y="0" type="line"/>
      <point x="293" y="282" type="line"/>
      <point x="174" y="282" type="line"/>
      <point x="174" y="36" type="line"/>
      <point x="271" y="36" type="line"/>
      <point x="271" y="0" type="line"/>
      <point x="50" y="0" type="line"/>
      <point x="50" y="36" type="line"/>
      <point x="135" y="36" type="line"/>
      <point x="135" y="558" type="line"/>
      <point x="50" y="564" type="line"/>
      <point x="50" y="601" type="line"/>
      <point x="144" y="597" type="line" smooth="yes"/>
      <point x="198" y="595"/>
      <point x="253" y="603"/>
      <point x="307" y="603" type="curve" smooth="yes"/>
      <point x="386" y="603"/>
      <point x="473" y="557"/>
      <point x="473" y="450" type="curve" smooth="yes"/>
      <point x="473" y="361"/>
      <point x="416" y="307"/>
      <point x="333" y="289" type="curve"/>
      <point x="502" y="36" type="line"/>
    </contour>
    <contour>
      <point x="174" y="560" type="curve"/>
      <point x="174" y="318" type="line"/>
      <point x="228" y="318" type="line" smooth="yes"/>
      <point x="322" y="318"/>
      <point x="431" y="331"/>
      <point x="431" y="450" type="curve" smooth="yes"/>
      <point x="431" y="530"/>
      <point x="363" y="567"/>
      <point x="291" y="567" type="curve" smooth="yes"/>
      <point x="254" y="567"/>
      <point x="197" y="561"/>
    </contour>
  </outline>
</glyph>
<glyph name="T" format="1">
  <advance width="600"/>
  <unicode hex="0054"/>
  <outline>
    <contour>
      <point x="454" y="0" type="line"/>
      <point x="145" y="0" type="line"/>
      <point x="145" y="36" type="line"/>
      <point x="280" y="36" type="line"/>
      <point x="280" y="564" type="line"/>
      <point x="185" y="564" type="line" smooth="yes"/>
      <point x="108" y="564"/>
      <point x="97" y="549"/>
      <point x="97" y="472" type="curve" smooth="yes"/>
      <point x="97" y="403" type="line"/>
      <point x="58" y="403" type="line"/>
      <point x="58" y="600" type="line"/>
      <point x="541" y="600" type="line"/>
      <point x="541" y="403" type="line"/>
      <point x="502" y="403" type="line"/>
      <point x="502" y="472" type="line" smooth="yes"/>
      <point x="502" y="549"/>
      <point x="491" y="564"/>
      <point x="414" y="564" type="curve" smooth="yes"/>
      <point x="319" y="564" type="line"/>
      <point x="319" y="36" type="line"/>
      <point x="454" y="36" type="line"/>
    </contour>
  </outline>
</glyph>
<glyph name="V" format="1">
  <advance width="600"/>
  <unicode hex="0056"/>
  <outline>
    <contour>
      <point x="34" y="600" type="line"/>
      <point x="223" y="600" type="line"/>
      <point x="223" y="564" type="line"/>
      <point x="136" y="564" type="line"/>
      <point x="300" y="27" type="line"/>
      <point x="464" y="564" type="line"/>
      <point x="376" y="564" type="line"/>
      <point x="376" y="600" type="line"/>
      <point x="566" y="600" type="line"/>
      <point x="566" y="564" type="line"/>
      <point x="503" y="564" type="line"/>
      <point x="329" y="-12" type="line"/>
      <point x="271" y="-12" type="line"/>
      <point x="97" y="564" type="line"/>
      <point x="34" y="564" type="line"/>
    </contour>
  </outline>
</glyph>
<glyph name="W" format="1">
  <advance width="600"/>
  <unicode hex="0057"/>
  <outline>
    <contour>
      <point x="28" y="600" type="line"/>
      <point x="188" y="600" type="line"/>
      <point x="188" y="564" type="line"/>
      <point x="108" y="564" type="line"/>
      <point x="179" y="54" type="line"/>
      <point x="181" y="54" type="line"/>
      <point x="300" y="390" type="line"/>
      <point x="419" y="54" type="line"/>
      <point x="421" y="54" type="line"/>
      <point x="492" y="564" type="line"/>
      <point x="412" y="564" type="line"/>
      <point x="412" y="600" type="line"/>
      <point x="572" y="600" type="line"/>
      <point x="572" y="564" type="line"/>
      <point x="530" y="564" type="line"/>
      <point x="448" y="-12" type="line"/>
      <point x="406" y="-12" type="line"/>
      <point x="300" y="283" type="line"/>
      <point x="194" y="-12" type="line"/>
      <point x="152" y="-12" type="line"/>
      <point x="70" y="564" type="line"/>
      <point x="28" y="564" type="line"/>
    </contour>
  </outline>
</glyph>
<glyph name="X" format="1">
  <advance width="600"/>
  <unicode hex="0058"/>
  <outline>
    <contour>
      <point x="300" y="339" type="line"/>
      <point x="442" y="564" type="line"/>
      <point x="360" y="564" type="line"/>
      <point x="360" y="600" type="line"/>
      <point x="540" y="600" type="line"/>
      <point x="540" y="564" type="line"/>
      <point x="484" y="564" type="line"/>
      <point x="323" y="310" type="line"/>
      <point x="504" y="36" type="line"/>
      <point x="564" y="36" type="line"/>
      <point x="564" y="0" type="line"/>
      <point x="360" y="0" type="line"/>
      <point x="360" y="36" type="line"/>
      <point x="459" y="36" type="line"/>
      <point x="300" y="278" type="line"/>
      <point x="141" y="36" type="line"/>
      <point x="240" y="36" type="line"/>
      <point x="240" y="0" type="line"/>
      <point x="36" y="0" type="line"/>
      <point x="36" y="36" type="line"/>
      <point x="96" y="36" type="line"/>
      <point x="277" y="310" type="line"/>
      <point x="116" y="564" type="line"/>
      <point x="60" y="564" type="line"/>
      <point x="60" y="600" type="line"/>
      <point x="240" y="600" type="line"/>
      <point x="240" y="564" type="line"/>
      <point x="158" y="564" type="line"/>
    </contour>
  </outline>
</glyph>
<glyph name="Z" format="1">
  <advance width="600"/>
  <unicode hex="005A"/>
  <outline>
    <contour>
      <point x="95" y="600" type="line"/>
      <point x="481" y="600" type="line"/>
      <point x="481" y="564" type="line"/>
      <point x="127" y="36" type="line"/>
      <point x="358" y="36" type="line" smooth="yes"/>
      <point x="473" y="36"/>
      <point x="478" y="58"/>
      <point x="478" y="169" type="curve" smooth="yes"/>
      <point x="478" y="180" type="line"/>
      <point x="517" y="180" type="line"/>
      <point x="517" y="0" type="line"/>
      <point x="83" y="0" type="line"/>
      <point x="83" y="36" type="line"/>
      <point x="438" y="564" type="line"/>
      <point x="254" y="564" type="line" smooth="yes"/>
      <point x="139" y="564"/>
      <point x="134" y="542"/>
      <point x="134" y="431" type="curve" smooth="yes"/>
      <point x="134" y="420" type="line"/>
      <point x="95" y="420" type="line"/>
    </contour>
  </outline>
</glyph>
<glyph name="bracketleft" format="1">
  <advance width="600"/>
  <unicode hex="005B"/>
  <outline>
    <contour>
      <point x="481" y="709" type="line"/>
      <point x="481" y="673" type="line"/>
      <point x="332" y="673" type="line"/>
      <point x="332" y="-73" type="line"/>
      <point x="481" y="-73" type="line"/>
      <point x="481" y="-109" type="line"/>
      <point x="293" y="-109" type="line"/>
      <point x="293" y="709" type="line"/>
    </contour>
  </outline>
</glyph>
<glyph name="bracketright" format="1">
  <advance width="600"/>
  <unicode hex="005D"/>
  <outline>
    <contour>
      <point x="119" y="673" type="line"/>
      <point x="119" y="709" type="line"/>
      <point x="307" y="709" type="line"/>
      <point x="307" y="-109" type="line"/>
      <point x="119" y="-109" type="line"/>
      <point x="119" y="-73" type="line"/>
      <point x="268" y="-73" type="line"/>
      <point x="268" y="673" type="line"/>
    </contour>
  </outline>
</glyph>
<glyph name="asciicircum" format="1">
  <advance width="600"/>
  <unicode hex="005E"/>
  <outline>
    <contour>
      <point x="160" y="357" type="line"/>
      <point x="110" y="357" type="line"/>
      <point x="274" y="680" type="line"/>
      <point x="326" y="680" type="line"/>
      <point x="487" y="357" type="line"/>
      <point x="437" y="357" type="line"/>
      <point x="300" y="632" type="line"/>
    </contour>
  </outline>
</glyph>
<glyph name="grave" format="1">
  <advance width="600"/>
  <unicode hex="0060"/>
  <outline>
    <contour>
      <point x="193" y="645" type="line"/>
      <point x="367" y="503" type="line"/>
      <point x="344" y="473" type="line"/>
      <point x="156" y="600" type="line"/>
    </contour>
  </outline>
</glyph>
<glyph name="b" format="1">
  <advance width="600"/>
  <unicode hex="0062"/>
  <outline>
    <contour>
      <point x="174" y="333" type="curve"/>
      <point x="174" y="75" type="line"/>
      <point x="203" y="40"/>
      <point x="250" y="24"/>
      <point x="295" y="24" type="curve" smooth="yes"/>
      <point x="401" y="24"/>
      <point x="462" y="101"/>
      <point x="462" y="203" type="curve" smooth="yes"/>
      <point x="462" y="300"/>
      <point x="409" y="384"/>
      <point x="304" y="384" type="curve" smooth="yes"/>
      <point x="257" y="384"/>
      <point x="209" y="364"/>
    </contour>
    <contour>
      <point x="135" y="70" type="curve" smooth="yes"/>
      <point x="135" y="592" type="line"/>
      <point x="107" y="586"/>
      <point x="76" y="578"/>
      <point x="41" y="576" type="curve"/>
      <point x="35" y="612" type="line"/>
      <point x="69" y="613"/>
      <point x="116" y="618"/>
      <point x="137" y="643" type="curve" smooth="yes"/>
      <point x="143" y="650"/>
      <point x="148" y="656"/>
      <point x="159" y="656" type="curve" smooth="yes"/>
      <point x="173" y="656"/>
      <point x="174" y="631"/>
      <point x="174" y="617" type="curve" smooth="yes"/>
      <point x="174" y="378" type="line"/>
      <point x="213" y="404"/>
      <point x="264" y="420"/>
      <point x="310" y="420" type="curve" smooth="yes"/>
      <point x="430" y="420"/>
      <point x="504" y="327"/>
      <point x="504" y="209" type="curve" smooth="yes"/>
      <point x="504" y="86"/>
      <point x="426" y="-12"/>
      <point x="298" y="-12" type="curve" smooth="yes"/>
      <point x="254" y="-12"/>
      <point x="203" y="4"/>
      <point x="170" y="34" type="curve"/>
      <point x="167" y="13"/>
      <point x="154" y="-6"/>
      <point x="141" y="-23" type="curve"/>
      <point x="109" y="-7" type="line"/>
      <point x="133" y="25"/>
      <point x="135" y="32"/>
    </contour>
  </outline>
</glyph>
<glyph name="c" format="1">
  <advance width="600"/>
  <unicode hex="0063"/>
  <outline>
    <contour>
      <point x="485" y="65" type="curve"/>
      <point x="498" y="32" type="line"/>
      <point x="446" y="4"/>
      <point x="375" y="-12"/>
      <point x="315" y="-12" type="curve" smooth="yes"/>
      <point x="190" y="-12"/>
      <point x="94" y="71"/>
      <point x="94" y="200" type="curve" smooth="yes"/>
      <point x="94" y="328"/>
      <point x="187" y="420"/>
      <point x="315" y="420" type="curve" smooth="yes"/>
      <point x="367" y="420"/>
      <point x="433" y="404"/>
      <point x="459" y="355" type="curve"/>
      <point x="459" y="264" type="line"/>
      <point x="423" y="264" type="line"/>
      <point x="423" y="282" type="line" smooth="yes"/>
      <point x="423" y="355"/>
      <point x="382" y="384"/>
      <point x="311" y="384" type="curve" smooth="yes"/>
      <point x="207" y="384"/>
      <point x="136" y="308"/>
      <point x="136" y="206" type="curve" smooth="yes"/>
      <point x="136" y="99"/>
      <point x="210" y="24"/>
      <point x="317" y="24" type="curve" smooth="yes"/>
      <point x="372" y="24"/>
      <point x="435" y="40"/>
    </contour>
  </outline>
</glyph>
<glyph name="e" format="1">
  <advance width="600"/>
  <unicode hex="0065"/>
  <outline>
    <contour>
      <point x="504" y="186" type="line"/>
      <point x="136" y="186" type="line"/>
      <point x="140" y="74"/>
      <point x="226" y="24"/>
      <point x="333" y="24" type="curve" smooth="yes"/>
      <point x="397" y="24"/>
      <point x="451" y="42"/>
      <point x="515" y="68" type="curve"/>
      <point x="527" y="36" type="line"/>
      <point x="463" y="5"/>
      <point x="390" y="-12"/>
      <point x="319" y="-12" type="curve" smooth="yes"/>
      <point x="196" y="-12"/>
      <point x="94" y="64"/>
      <point x="94" y="194" type="curve" smooth="yes"/>
      <point x="94" y="318"/>
      <point x="184" y="420"/>
      <point x="311" y="420" type="curve" smooth="yes"/>
      <point x="432" y="420"/>
      <point x="517" y="342"/>
      <point x="507" y="222" type="curve" smooth="yes"/>
    </contour>
    <contour>
      <point x="139" y="222" type="curve"/>
      <point x="466" y="222" type="line"/>
      <point x="471" y="317"/>
      <point x="400" y="384"/>
      <point x="311" y="384" type="curve" smooth="yes"/>
      <point x="222" y="384"/>
      <point x="147" y="315"/>
    </contour>
  </outline>
</glyph>
<glyph name="f" format="1">
  <advance width="600"/>
  <unicode hex="0066"/>
  <outline>
    <contour>
      <point x="558" y="569" type="curve"/>
      <point x="531" y="536" type="line"/>
      <point x="482" y="567"/>
      <point x="423" y="588"/>
      <point x="364" y="588" type="curve" smooth="yes"/>
      <point x="267" y="588"/>
      <point x="276" y="503"/>
      <point x="276" y="432" type="curve" smooth="yes"/>
      <point x="276" y="408" type="line"/>
      <point x="478" y="408" type="line"/>
      <point x="478" y="372" type="line"/>
      <point x="276" y="372" type="line"/>
      <point x="276" y="36" type="line"/>
      <point x="456" y="36" type="line"/>
      <point x="456" y="0" type="line"/>
      <point x="117" y="0" type="line"/>
      <point x="117" y="36" type="line"/>
      <point x="237" y="36" type="line"/>
      <point x="237" y="372" type="line"/>
      <point x="86" y="372" type="line"/>
      <point x="86" y="408" type="line"/>
      <point x="237" y="408" type="line"/>
      <point x="237" y="432" type="line" smooth="yes"/>
      <point x="237" y="512"/>
      <point x="228" y="624"/>
      <point x="360" y="624" type="curve" smooth="yes"/>
      <point x="429" y="624"/>
      <point x="500" y="606"/>
    </contour>
  </outline>
</glyph>
<glyph name="g" format="1">
  <advance width="600"/>
  <unicode hex="0067"/>
  <outline>
    <contour>
      <point x="303" y="-180" type="curve" smooth="yes"/>
      <point x="370" y="-180"/>
      <point x="507" y="-163"/>
      <point x="507" y="-72" type="curve" smooth="yes"/>
      <point x="507" y="-8"/>
      <point x="459" y="-2"/>
      <point x="407" y="-2" type="curve" smooth="yes"/>
      <point x="231" y="-2" type="line"/>
      <point x="192" y="-25"/>
      <point x="149" y="-53"/>
      <point x="149" y="-103" type="curve" smooth="yes"/>
      <point x="149" y="-174"/>
      <point x="251" y="-180"/>
    </contour>
    <contour>
      <point x="358" y="408" type="curve"/>
      <point x="477" y="408" type="line"/>
      <point x="477" y="372" type="line"/>
      <point x="411" y="372" type="line"/>
      <point x="437" y="339"/>
      <point x="451" y="306"/>
      <point x="451" y="264" type="curve" smooth="yes"/>
      <point x="451" y="169"/>
      <point x="387" y="114"/>
      <point x="295" y="114" type="curve" smooth="yes"/>
      <point x="282" y="114"/>
      <point x="270" y="115"/>
      <point x="258" y="118" type="curve"/>
      <point x="241" y="108"/>
      <point x="197" y="74"/>
      <point x="197" y="54" type="curve" smooth="yes"/>
      <point x="197" y="38"/>
      <point x="251" y="38"/>
      <point x="265" y="38" type="curve" smooth="yes"/>
      <point x="402" y="38" type="line" smooth="yes"/>
      <point x="488" y="38"/>
      <point x="549" y="9"/>
      <point x="549" y="-65" type="curve" smooth="yes"/>
      <point x="549" y="-188"/>
      <point x="406" y="-216"/>
      <point x="309" y="-216" type="curve" smooth="yes"/>
      <point x="235" y="-216"/>
      <point x="107" y="-207"/>
      <point x="107" y="-106" type="curve" smooth="yes"/>
      <point x="107" y="-56"/>
      <point x="145" y="-15"/>
      <point x="188" y="7" type="curve"/>
      <point x="171" y="11"/>
      <point x="155" y="23"/>
      <point x="155" y="42" type="curve" smooth="yes"/>
      <point x="155" y="77"/>
      <point x="194" y="110"/>
      <point x="221" y="129" type="curve"/>
      <point x="163" y="150"/>
      <point x="128" y="202"/>
      <point x="128" y="264" type="curve" smooth="yes"/>
      <point x="128" y="352"/>
      <point x="195" y="420"/>
      <point x="293" y="420" type="curve" smooth="yes"/>
      <point x="315" y="420"/>
      <point x="337" y="416"/>
    </contour>
    <contour>
      <point x="409" y="264" type="curve" smooth="yes"/>
      <point x="409" y="333"/>
      <point x="363" y="384"/>
      <point x="294" y="384" type="curve" smooth="yes"/>
      <point x="228" y="384"/>
      <point x="170" y="338"/>
      <point x="170" y="269" type="curve" smooth="yes"/>
      <point x="170" y="193"/>
      <point x="223" y="150"/>
      <point x="297" y="150" type="curve" smooth="yes"/>
      <point x="372" y="150"/>
      <point x="409" y="199"/>
    </contour>
  </outline>
</glyph>
<glyph name="h" format="1">
  <advance width="600"/>
  <unicode hex="0068"/>
  <outline>
    <contour>
      <point x="172" y="617" type="curve" smooth="yes"/>
      <point x="172" y="362" type="line"/>
      <point x="224" y="390"/>
      <point x="289" y="420"/>
      <point x="348" y="420" type="curve" smooth="yes"/>
      <point x="435" y="420"/>
      <point x="478" y="381"/>
      <point x="478" y="253" type="curve" smooth="yes"/>
      <point x="478" y="36" type="line"/>
      <point x="548" y="36" type="line"/>
      <point x="548" y="0" type="line"/>
      <point x="361" y="0" type="line"/>
      <point x="361" y="36" type="line"/>
      <point x="439" y="36" type="line"/>
      <point x="439" y="240" type="line" smooth="yes"/>
      <point x="439" y="309"/>
      <point x="439" y="384"/>
      <point x="347" y="384" type="curve" smooth="yes"/>
      <point x="284" y="384"/>
      <point x="224" y="353"/>
      <point x="172" y="320" type="curve"/>
      <point x="172" y="36" type="line"/>
      <point x="250" y="36" type="line"/>
      <point x="250" y="0" type="line"/>
      <point x="63" y="0" type="line"/>
      <point x="63" y="36" type="line"/>
      <point x="133" y="36" type="line"/>
      <point x="133" y="592" type="line"/>
      <point x="105" y="586"/>
      <point x="74" y="578"/>
      <point x="39" y="576" type="curve"/>
      <point x="33" y="612" type="line"/>
      <point x="67" y="613"/>
      <point x="114" y="618"/>
      <point x="135" y="643" type="curve" smooth="yes"/>
      <point x="141" y="650"/>
      <point x="146" y="656"/>
      <point x="157" y="656" type="curve" smooth="yes"/>
      <point x="171" y="656"/>
      <point x="172" y="631"/>
    </contour>
  </outline>
</glyph>
<glyph name="j" format="1">
  <advance width="600"/>
  <unicode hex="006A"/>
  <outline>
    <contour>
      <point x="394" y="386" type="curve" smooth="yes"/>
      <point x="394" y="-8" type="line" smooth="yes"/>
      <point x="394" y="-104"/>
      <point x="402" y="-216"/>
      <point x="270" y="-216" type="curve" smooth="yes"/>
      <point x="201" y="-216"/>
      <point x="131" y="-198"/>
      <point x="72" y="-161" type="curve"/>
      <point x="99" y="-128" type="line"/>
      <point x="148" y="-159"/>
      <point x="207" y="-180"/>
      <point x="266" y="-180" type="curve" smooth="yes"/>
      <point x="360" y="-180"/>
      <point x="355" y="-101"/>
      <point x="355" y="-31" type="curve" smooth="yes"/>
      <point x="355" y="374" type="line"/>
      <point x="315" y="360"/>
      <point x="271" y="356"/>
      <point x="230" y="358" type="curve" smooth="yes"/>
      <point x="162" y="362" type="line"/>
      <point x="156" y="397" type="line"/>
      <point x="233" y="393" type="line" smooth="yes"/>
      <point x="268" y="391"/>
      <point x="332" y="396"/>
      <point x="357" y="425" type="curve" smooth="yes"/>
      <point x="362" y="431"/>
      <point x="367" y="437"/>
      <point x="376" y="437" type="curve" smooth="yes"/>
      <point x="399" y="437"/>
      <point x="394" y="400"/>
    </contour>
    <contour>
      <point x="430" y="558" type="curve" smooth="yes"/>
      <point x="430" y="528"/>
      <point x="406" y="504"/>
      <point x="376" y="504" type="curve" smooth="yes"/>
      <point x="346" y="504"/>
      <point x="322" y="528"/>
      <point x="322" y="558" type="curve" smooth="yes"/>
      <point x="322" y="588"/>
      <point x="346" y="612"/>
      <point x="376" y="612" type="curve" smooth="yes"/>
      <point x="406" y="612"/>
      <point x="430" y="588"/>
    </contour>
  </outline>
</glyph>
<glyph name="k" format="1">
  <advance width="600"/>
  <unicode hex="006B"/>
  <outline>
    <contour>
      <point x="189" y="617" type="curve" smooth="yes"/>
      <point x="189" y="174" type="line"/>
      <point x="400" y="372" type="line"/>
      <point x="342" y="372" type="line"/>
      <point x="342" y="408" type="line"/>
      <point x="517" y="408" type="line"/>
      <point x="517" y="372" type="line"/>
      <point x="450" y="372" type="line"/>
      <point x="324" y="249" type="line"/>
      <point x="493" y="36" type="line"/>
      <point x="566" y="36" type="line"/>
      <point x="566" y="0" type="line"/>
      <point x="390" y="0" type="line"/>
      <point x="390" y="36" type="line"/>
      <point x="447" y="36" type="line"/>
      <point x="297" y="225" type="line"/>
      <point x="189" y="131" type="line"/>
      <point x="189" y="36" type="line"/>
      <point x="266" y="36" type="line"/>
      <point x="266" y="0" type="line"/>
      <point x="52" y="0" type="line"/>
      <point x="52" y="36" type="line"/>
      <point x="150" y="36" type="line"/>
      <point x="150" y="592" type="line"/>
      <point x="122" y="586"/>
      <point x="91" y="578"/>
      <point x="56" y="576" type="curve"/>
      <point x="50" y="612" type="line"/>
      <point x="84" y="613"/>
      <point x="131" y="618"/>
      <point x="152" y="643" type="curve" smooth="yes"/>
      <point x="158" y="650"/>
      <point x="163" y="656"/>
      <point x="174" y="656" type="curve" smooth="yes"/>
      <point x="188" y="656"/>
      <point x="189" y="631"/>
    </contour>
  </outline>
</glyph>
<glyph name="l" format="1">
  <advance width="600"/>
  <unicode hex="006C"/>
  <outline>
    <contour>
      <point x="330" y="617" type="curve" smooth="yes"/>
      <point x="330" y="36" type="line"/>
      <point x="500" y="36" type="line"/>
      <point x="500" y="0" type="line"/>
      <point x="100" y="0" type="line"/>
      <point x="100" y="36" type="line"/>
      <point x="291" y="36" type="line"/>
      <point x="291" y="592" type="line"/>
      <point x="263" y="586"/>
      <point x="182" y="578"/>
      <point x="122" y="576" type="curve"/>
      <point x="116" y="612" type="line"/>
      <point x="175" y="613"/>
      <point x="272" y="618"/>
      <point x="293" y="643" type="curve" smooth="yes"/>
      <point x="299" y="650"/>
      <point x="304" y="656"/>
      <point x="315" y="656" type="curve" smooth="yes"/>
      <point x="329" y="656"/>
      <point x="330" y="631"/>
    </contour>
  </outline>
</glyph>
<glyph name="m" format="1">
  <advance width="600"/>
  <unicode hex="006D"/>
  <outline>
    <contour>
      <point x="139" y="334" type="curve"/>
      <point x="139" y="36" type="line"/>
      <point x="188" y="36" type="line"/>
      <point x="188" y="0" type="line"/>
      <point x="39" y="0" type="line"/>
      <point x="39" y="36" type="line"/>
      <point x="100" y="36" type="line"/>
      <point x="100" y="374" type="line"/>
      <point x="72" y="368"/>
      <point x="53" y="360"/>
      <point x="24" y="359" type="curve"/>
      <point x="18" y="394" type="line"/>
      <point x="46" y="395"/>
      <point x="81" y="400"/>
      <point x="102" y="425" type="curve" smooth="yes"/>
      <point x="108" y="432"/>
      <point x="113" y="438"/>
      <point x="124" y="438" type="curve" smooth="yes"/>
      <point x="138" y="438"/>
      <point x="139" y="413"/>
      <point x="139" y="399" type="curve" smooth="yes"/>
      <point x="139" y="376" type="line"/>
      <point x="165" y="397"/>
      <point x="211" y="420"/>
      <point x="244" y="420" type="curve" smooth="yes"/>
      <point x="279" y="420"/>
      <point x="305" y="402"/>
      <point x="317" y="370" type="curve"/>
      <point x="351" y="399"/>
      <point x="392" y="420"/>
      <point x="439" y="420" type="curve" smooth="yes"/>
      <point x="520" y="420"/>
      <point x="521" y="348"/>
      <point x="521" y="288" type="curve" smooth="yes"/>
      <point x="521" y="36" type="line"/>
      <point x="582" y="36" type="line"/>
      <point x="582" y="0" type="line"/>
      <point x="433" y="0" type="line"/>
      <point x="433" y="36" type="line"/>
      <point x="482" y="36" type="line"/>
      <point x="482" y="288" type="line" smooth="yes"/>
      <point x="482" y="326"/>
      <point x="486" y="384"/>
      <point x="433" y="384" type="curve" smooth="yes"/>
      <point x="394" y="384"/>
      <point x="357" y="358"/>
      <point x="330" y="334" type="curve"/>
      <point x="330" y="36" type="line"/>
      <point x="379" y="36" type="line"/>
      <point x="379" y="0" type="line"/>
      <point x="242" y="0" type="line"/>
      <point x="242" y="36" type="line"/>
      <point x="291" y="36" type="line"/>
      <point x="291" y="288" type="line" smooth="yes"/>
      <point x="291" y="326"/>
      <point x="292" y="384"/>
      <point x="240" y="384" type="curve" smooth="yes"/>
      <point x="207" y="384"/>
      <point x="164" y="355"/>
    </contour>
  </outline>
</glyph>
<glyph name="n" format="1">
  <advance width="600"/>
  <unicode hex="006E"/>
  <outline>
    <contour>
      <point x="172" y="320" type="curve"/>
      <point x="172" y="36" type="line"/>
      <point x="250" y="36" type="line"/>
      <point x="250" y="0" type="line"/>
      <point x="63" y="0" type="line"/>
      <point x="63" y="36" type="line"/>
      <point x="133" y="36" type="line"/>
      <point x="133" y="374" type="line"/>
      <point x="105" y="368"/>
      <point x="86" y="360"/>
      <point x="57" y="359" type="curve"/>
      <point x="51" y="394" type="line"/>
      <point x="79" y="395"/>
      <point x="114" y="400"/>
      <point x="135" y="425" type="curve" smooth="yes"/>
      <point x="141" y="432"/>
      <point x="146" y="438"/>
      <point x="157" y="438" type="curve" smooth="yes"/>
      <point x="171" y="438"/>
      <point x="172" y="413"/>
      <point x="172" y="399" type="curve" smooth="yes"/>
      <point x="172" y="362" type="line"/>
      <point x="224" y="390"/>
      <point x="289" y="420"/>
      <point x="348" y="420" type="curve" smooth="yes"/>
      <point x="435" y="420"/>
      <point x="478" y="381"/>
      <point x="478" y="253" type="curve" smooth="yes"/>
      <point x="478" y="36" type="line"/>
      <point x="548" y="36" type="line"/>
      <point x="548" y="0" type="line"/>
      <point x="361" y="0" type="line"/>
      <point x="361" y="36" type="line"/>
      <point x="439" y="36" type="line"/>
      <point x="439" y="240" type="line" smooth="yes"/>
      <point x="439" y="309"/>
      <point x="439" y="384"/>
      <point x="347" y="384" type="curve" smooth="yes"/>
      <point x="284" y="384"/>
      <point x="224" y="353"/>
    </contour>
  </outline>
</glyph>
<glyph name="p" format="1">
  <advance width="600"/>
  <unicode hex="0070"/>
  <outline>
    <contour>
      <point x="190" y="307" type="curve"/>
      <point x="190" y="54" type="line"/>
      <point x="224" y="34"/>
      <point x="259" y="24"/>
      <point x="299" y="24" type="curve" smooth="yes"/>
      <point x="400" y="24"/>
      <point x="468" y="109"/>
      <point x="468" y="206" type="curve" smooth="yes"/>
      <point x="468" y="291"/>
      <point x="418" y="384"/>
      <point x="323" y="384" type="curve" smooth="yes"/>
      <point x="271" y="384"/>
      <point x="217" y="350"/>
    </contour>
    <contour>
      <point x="190" y="14" type="curve"/>
      <point x="190" y="-168" type="line"/>
      <point x="288" y="-168" type="line"/>
      <point x="288" y="-204" type="line"/>
      <point x="89" y="-204" type="line"/>
      <point x="89" y="-168" type="line"/>
      <point x="151" y="-168" type="line"/>
      <point x="151" y="374" type="line"/>
      <point x="123" y="368"/>
      <point x="104" y="360"/>
      <point x="75" y="359" type="curve"/>
      <point x="69" y="394" type="line"/>
      <point x="97" y="395"/>
      <point x="132" y="400"/>
      <point x="153" y="425" type="curve" smooth="yes"/>
      <point x="159" y="432"/>
      <point x="164" y="438"/>
      <point x="175" y="438" type="curve" smooth="yes"/>
      <point x="189" y="438"/>
      <point x="190" y="413"/>
      <point x="190" y="399" type="curve" smooth="yes"/>
      <point x="190" y="361" type="line"/>
      <point x="228" y="394"/>
      <point x="271" y="420"/>
      <point x="323" y="420" type="curve" smooth="yes"/>
      <point x="442" y="420"/>
      <point x="510" y="316"/>
      <point x="510" y="205" type="curve" smooth="yes"/>
      <point x="510" y="85"/>
      <point x="424" y="-12"/>
      <point x="300" y="-12" type="curve" smooth="yes"/>
      <point x="261" y="-12"/>
      <point x="225" y="-3"/>
    </contour>
  </outline>
</glyph>
<glyph name="q" format="1">
  <advance width="600"/>
  <unicode hex="0071"/>
  <outline>
    <contour>
      <point x="415" y="33" type="curve"/>
      <point x="415" y="347" type="line"/>
      <point x="384" y="370"/>
      <point x="339" y="384"/>
      <point x="301" y="384" type="curve" smooth="yes"/>
      <point x="196" y="384"/>
      <point x="142" y="297"/>
      <point x="142" y="194" type="curve" smooth="yes"/>
      <point x="142" y="78"/>
      <point x="212" y="24"/>
      <point x="323" y="24" type="curve" smooth="yes"/>
      <point x="354" y="24"/>
      <point x="385" y="26"/>
    </contour>
    <contour>
      <point x="454" y="342" type="curve" smooth="yes"/>
      <point x="454" y="-168" type="line"/>
      <point x="544" y="-168" type="line"/>
      <point x="544" y="-204" type="line"/>
      <point x="303" y="-204" type="line"/>
      <point x="303" y="-168" type="line"/>
      <point x="415" y="-168" type="line"/>
      <point x="415" y="-4" type="line"/>
      <point x="400" y="-5"/>
      <point x="384" y="-7"/>
      <point x="369" y="-9" type="curve" smooth="yes"/>
      <point x="354" y="-11"/>
      <point x="339" y="-12"/>
      <point x="323" y="-12" type="curve" smooth="yes"/>
      <point x="180" y="-12"/>
      <point x="100" y="60"/>
      <point x="100" y="199" type="curve" smooth="yes"/>
      <point x="100" y="363"/>
      <point x="216" y="420"/>
      <point x="299" y="420" type="curve" smooth="yes"/>
      <point x="343" y="420"/>
      <point x="383" y="406"/>
      <point x="420" y="383" type="curve"/>
      <point x="424" y="403"/>
      <point x="431" y="423"/>
      <point x="440" y="438" type="curve"/>
      <point x="474" y="424" type="line"/>
      <point x="459" y="395"/>
      <point x="454" y="379"/>
    </contour>
  </outline>
</glyph>
<glyph name="r" format="1">
  <advance width="600"/>
  <unicode hex="0072"/>
  <outline>
    <contour>
      <point x="238" y="267" type="curve"/>
      <point x="238" y="36" type="line"/>
      <point x="423" y="36" type="line"/>
      <point x="423" y="0" type="line"/>
      <point x="110" y="0" type="line"/>
      <point x="110" y="36" type="line"/>
      <point x="199" y="36" type="line"/>
      <point x="199" y="374" type="line"/>
      <point x="171" y="368"/>
      <point x="152" y="360"/>
      <point x="123" y="359" type="curve"/>
      <point x="117" y="394" type="line"/>
      <point x="145" y="395"/>
      <point x="180" y="400"/>
      <point x="201" y="425" type="curve" smooth="yes"/>
      <point x="207" y="432"/>
      <point x="212" y="438"/>
      <point x="223" y="438" type="curve" smooth="yes"/>
      <point x="237" y="438"/>
      <point x="238" y="413"/>
      <point x="238" y="399" type="curve" smooth="yes"/>
      <point x="238" y="319" type="line"/>
      <point x="294" y="361"/>
      <point x="363" y="420"/>
      <point x="434" y="420" type="curve" smooth="yes"/>
      <point x="477" y="420"/>
      <point x="507" y="391"/>
      <point x="522" y="352" type="curve"/>
      <point x="480" y="336" type="line"/>
      <point x="473" y="359"/>
      <point x="456" y="384"/>
      <point x="428" y="384" type="curve" smooth="yes"/>
      <point x="368" y="384"/>
      <point x="282" y="307"/>
    </contour>
  </outline>
</glyph>
<glyph name="t" format="1">
  <advance width="600"/>
  <unicode hex="0074"/>
  <outline>
    <contour>
      <point x="250" y="523" type="line"/>
      <point x="250" y="408" type="line"/>
      <point x="488" y="408" type="line"/>
      <point x="488" y="372" type="line"/>
      <point x="250" y="372" type="line"/>
      <point x="250" y="153" type="line" smooth="yes"/>
      <point x="250" y="93"/>
      <point x="247" y="24"/>
      <point x="327" y="24" type="curve" smooth="yes"/>
      <point x="381" y="24"/>
      <point x="446" y="43"/>
      <point x="499" y="55" type="curve"/>
      <point x="511" y="21" type="line"/>
      <point x="450" y="5"/>
      <point x="385" y="-12"/>
      <point x="321" y="-12" type="curve" smooth="yes"/>
      <point x="241" y="-12"/>
      <point x="211" y="26"/>
      <point x="211" y="153" type="curve" smooth="yes"/>
      <point x="211" y="372" type="line"/>
      <point x="64" y="372" type="line"/>
      <point x="64" y="408" type="line"/>
      <point x="211" y="408" type="line"/>
      <point x="211" y="523" type="line"/>
    </contour>
  </outline>
</glyph>
<glyph name="v" format="1">
  <advance width="600"/>
  <unicode hex="0076"/>
  <outline>
    <contour>
      <point x="51" y="408" type="line"/>
      <point x="219" y="408" type="line"/>
      <point x="219" y="372" type="line"/>
      <point x="157" y="372" type="line"/>
      <point x="300" y="24" type="line"/>
      <point x="443" y="372" type="line"/>
      <point x="380" y="372" type="line"/>
      <point x="380" y="408" type="line"/>
      <point x="549" y="408" type="line"/>
      <point x="549" y="372" type="line"/>
      <point x="485" y="372" type="line"/>
      <point x="322" y="-12" type="line"/>
      <point x="278" y="-12" type="line"/>
      <point x="115" y="372" type="line"/>
      <point x="51" y="372" type="line"/>
    </contour>
  </outline>
</glyph>
<glyph name="w" format="1">
  <advance width="600"/>
  <unicode hex="0077"/>
  <outline>
    <contour>
      <point x="11" y="408" type="line"/>
      <point x="187" y="408" type="line"/>
      <point x="187" y="372" type="line"/>
      <point x="115" y="372" type="line"/>
      <point x="209" y="28" type="line"/>
      <point x="294" y="295" type="line"/>
      <point x="323" y="295" type="line"/>
      <point x="410" y="28" type="line"/>
      <point x="502" y="372" type="line"/>
      <point x="426" y="372" type="line"/>
      <point x="426" y="408" type="line"/>
      <point x="589" y="408" type="line"/>
      <point x="589" y="372" type="line"/>
      <point x="538" y="372" type="line"/>
      <point x="438" y="-12" type="line"/>
      <point x="385" y="-12" type="line"/>
      <point x="308" y="219" type="line"/>
      <point x="235" y="-12" type="line"/>
      <point x="180" y="-12" type="line"/>
      <point x="77" y="372" type="line"/>
      <point x="11" y="372" type="line"/>
    </contour>
  </outline>
</glyph>
<glyph name="x" format="1">
  <advance width="600"/>
  <unicode hex="0078"/>
  <outline>
    <contour>
      <point x="50" y="408" type="line"/>
      <point x="241" y="408" type="line"/>
      <point x="241" y="372" type="line"/>
      <point x="164" y="372" type="line"/>
      <point x="289" y="244" type="line"/>
      <point x="409" y="372" type="line"/>
      <point x="331" y="372" type="line"/>
      <point x="331" y="408" type="line"/>
      <point x="525" y="408" type="line"/>
      <point x="525" y="372" type="line"/>
      <point x="458" y="372" type="line"/>
      <point x="315" y="217" type="line"/>
      <point x="492" y="36" type="line"/>
      <point x="560" y="36" type="line"/>
      <point x="560" y="0" type="line"/>
      <point x="354" y="0" type="line"/>
      <point x="354" y="36" type="line"/>
      <point x="440" y="36" type="line"/>
      <point x="289" y="190" type="line"/>
      <point x="146" y="36" type="line"/>
      <point x="238" y="36" type="line"/>
      <point x="238" y="0" type="line"/>
      <point x="39" y="0" type="line"/>
      <point x="39" y="36" type="line"/>
      <point x="96" y="36" type="line"/>
      <point x="263" y="216" type="line"/>
      <point x="110" y="372" type="line"/>
      <point x="50" y="372" type="line"/>
    </contour>
  </outline>
</glyph>
<glyph name="y" format="1">
  <advance width="600"/>
  <unicode hex="0079"/>
  <outline>
    <contour>
      <point x="52" y="408" type="line"/>
      <point x="240" y="408" type="line"/>
      <point x="240" y="372" type="line"/>
      <point x="153" y="372" type="line"/>
      <point x="311" y="63" type="line"/>
      <point x="447" y="372" type="line"/>
      <point x="360" y="372" type="line"/>
      <point x="360" y="408" type="line"/>
      <point x="548" y="408" type="line"/>
      <point x="548" y="372" type="line"/>
      <point x="486" y="372" type="line"/>
      <point x="295" y="-67" type="line" smooth="yes"/>
      <point x="264" y="-138"/>
      <point x="236" y="-216"/>
      <point x="146" y="-216" type="curve" smooth="yes"/>
      <point x="113" y="-216"/>
      <point x="74" y="-204"/>
      <point x="47" y="-185" type="curve"/>
      <point x="62" y="-151" type="line"/>
      <point x="86" y="-168"/>
      <point x="119" y="-180"/>
      <point x="149" y="-180" type="curve" smooth="yes"/>
      <point x="209" y="-180"/>
      <point x="238" y="-105"/>
      <point x="258" y="-59" type="curve" smooth="yes"/>
      <point x="291" y="19" type="line"/>
      <point x="111" y="372" type="line"/>
      <point x="52" y="372" type="line"/>
    </contour>
  </outline>
</glyph>
<glyph name="z" format="1">
  <advance width="600"/>
  <unicode hex="007A"/>
  <outline>
    <contour>
      <point x="131" y="408" type="line"/>
      <point x="482" y="408" type="line"/>
      <point x="482" y="373" type="line"/>
      <point x="151" y="36" type="line"/>
      <point x="385" y="36" type="line" smooth="yes"/>
      <point x="446" y="36"/>
      <point x="447" y="36"/>
      <point x="460" y="116" type="curve" smooth="yes"/>
      <point x="463" y="134" type="line"/>
      <point x="499" y="134" type="line"/>
      <point x="482" y="0" type="line"/>
      <point x="101" y="0" type="line"/>
      <point x="101" y="41" type="line"/>
      <point x="428" y="372" type="line"/>
      <point x="234" y="372" type="line" smooth="yes"/>
      <point x="159" y="372"/>
      <point x="165" y="365"/>
      <point x="154" y="295" type="curve" smooth="yes"/>
      <point x="151" y="276" type="line"/>
      <point x="114" y="276" type="line"/>
    </contour>
  </outline>
</glyph>
<glyph name="braceleft" format="1">
  <advance width="600"/>
  <unicode hex="007B"/>
  <outline>
    <contour>
      <point x="314" y="192" type="curve" smooth="yes"/>
      <point x="314" y="65" type="line" smooth="yes"/>
      <point x="314" y="12"/>
      <point x="326" y="-23"/>
      <point x="394" y="-33" type="curve"/>
      <point x="394" y="-53" type="line"/>
      <point x="296" y="-46"/>
      <point x="275" y="-14"/>
      <point x="275" y="78" type="curve" smooth="yes"/>
      <point x="275" y="202" type="line" smooth="yes"/>
      <point x="275" y="260"/>
      <point x="268" y="287"/>
      <point x="206" y="304" type="curve"/>
      <point x="267" y="320"/>
      <point x="275" y="348"/>
      <point x="275" y="405" type="curve" smooth="yes"/>
      <point x="275" y="537" type="line" smooth="yes"/>
      <point x="275" y="627"/>
      <point x="303" y="653"/>
      <point x="394" y="656" type="curve"/>
      <point x="394" y="636" type="line"/>
      <point x="326" y="626"/>
      <point x="314" y="591"/>
      <point x="314" y="538" type="curve" smooth="yes"/>
      <point x="314" y="411" type="line" smooth="yes"/>
      <point x="314" y="354"/>
      <point x="305" y="320"/>
      <point x="242" y="305" type="curve"/>
      <point x="242" y="303" type="line"/>
      <point x="306" y="287"/>
      <point x="314" y="251"/>
    </contour>
  </outline>
</glyph>
<glyph name="braceright" format="1">
  <advance width="600"/>
  <unicode hex="007D"/>
  <outline>
    <contour>
      <point x="286" y="411" type="curve" smooth="yes"/>
      <point x="286" y="538" type="line" smooth="yes"/>
      <point x="286" y="591"/>
      <point x="274" y="626"/>
      <point x="206" y="636" type="curve"/>
      <point x="206" y="656" type="line"/>
      <point x="304" y="649"/>
      <point x="325" y="617"/>
      <point x="325" y="525" type="curve" smooth="yes"/>
      <point x="325" y="401" type="line" smooth="yes"/>
      <point x="325" y="343"/>
      <point x="332" y="316"/>
      <point x="394" y="299" type="curve"/>
      <point x="333" y="283"/>
      <point x="325" y="255"/>
      <point x="325" y="198" type="curve" smooth="yes"/>
      <point x="325" y="66" type="line" smooth="yes"/>
      <point x="325" y="-24"/>
      <point x="297" y="-50"/>
      <point x="206" y="-53" type="curve"/>
      <point x="206" y="-33" type="line"/>
      <point x="274" y="-23"/>
      <point x="286" y="12"/>
      <point x="286" y="65" type="curve" smooth="yes"/>
      <point x="286" y="192" type="line" smooth="yes"/>
      <point x="286" y="249"/>
      <point x="295" y="283"/>
      <point x="358" y="298" type="curve"/>
      <point x="358" y="300" type="line"/>
      <point x="294" y="316"/>
      <point x="286" y="352"/>
    </contour>
  </outline>
</glyph>
<glyph name="asciitilde" format="1">
  <advance width="600"/>
  <unicode hex="007E"/>
  <outline>
    <contour>
      <point x="538" y="441" type="curve"/>
      <point x="570" y="418" type="line"/>
      <point x="541" y="364"/>
      <point x="486" y="304"/>
      <point x="420" y="304" type="curve" smooth="yes"/>
      <point x="361" y="304"/>
      <point x="232" y="379"/>
      <point x="180" y="379" type="curve" smooth="yes"/>
      <point x="118" y="379"/>
      <point x="89" y="325"/>
      <point x="61" y="279" type="curve"/>
      <point x="30" y="302" type="line"/>
      <point x="60" y="355"/>
      <point x="106" y="423"/>
      <point x="175" y="423" type="curve" smooth="yes"/>
      <point x="257" y="423"/>
      <point x="363" y="348"/>
      <point x="419" y="348" type="curve" smooth="yes"/>
      <point x="471" y="348"/>
      <point x="517" y="397"/>
    </contour>
  </outline>
</glyph>
<glyph name="exclamdown" format="1">
  <advance width="600"/>
  <unicode hex="00A1"/>
  <outline>
    <contour>
      <point x="284" y="249" type="line"/>
      <point x="314" y="249" type="line"/>
      <point x="347" y="-159" type="line" smooth="yes"/>
      <point x="349" y="-185"/>
      <point x="325" y="-204"/>
      <point x="299" y="-204" type="curve" smooth="yes"/>
      <point x="273" y="-204"/>
      <point x="249" y="-185"/>
      <point x="251" y="-159" type="curve" smooth="yes"/>
    </contour>
    <contour>
      <point x="246" y="367" type="curve" smooth="yes"/>
      <point x="246" y="396"/>
      <point x="270" y="420"/>
      <point x="299" y="420" type="curve" smooth="yes"/>
      <point x="329" y="420"/>
      <point x="353" y="396"/>
      <point x="353" y="367" type="curve" smooth="yes"/>
      <point x="353" y="337"/>
      <point x="329" y="313"/>
      <point x="299" y="313" type="curve" smooth="yes"/>
      <point x="270" y="313"/>
      <point x="246" y="337"/>
    </contour>
  </outline>
</glyph>
<glyph name="cent" format="1">
  <advance width="600"/>
  <unicode hex="00A2"/>
  <outline>
    <contour>
      <point x="295" y="636" type="line"/>
      <point x="334" y="636" type="line"/>
      <point x="334" y="525" type="line"/>
      <point x="385" y="523"/>
      <point x="446" y="511"/>
      <point x="476" y="464" type="curve"/>
      <point x="472" y="449"/>
      <point x="472" y="433"/>
      <point x="472" y="417" type="curve" smooth="yes"/>
      <point x="472" y="401"/>
      <point x="474" y="386"/>
      <point x="476" y="370" type="curve"/>
      <point x="437" y="370" type="line"/>
      <point x="437" y="395" type="line" smooth="yes"/>
      <point x="437" y="450"/>
      <point x="403" y="489"/>
      <point x="322" y="489" type="curve" smooth="yes"/>
      <point x="224" y="489"/>
      <point x="154" y="408"/>
      <point x="154" y="313" type="curve" smooth="yes"/>
      <point x="154" y="213"/>
      <point x="222" y="126"/>
      <point x="327" y="126" type="curve" smooth="yes"/>
      <point x="385" y="126"/>
      <point x="446" y="146"/>
      <point x="499" y="170" type="curve"/>
      <point x="514" y="136" type="line"/>
      <point x="458" y="108"/>
      <point x="396" y="92"/>
      <point x="334" y="90" type="curve"/>
      <point x="334" y="-44" type="line"/>
      <point x="295" y="-44" type="line"/>
      <point x="295" y="90" type="line"/>
      <point x="179" y="108"/>
      <point x="112" y="200"/>
      <point x="112" y="314" type="curve" smooth="yes"/>
      <point x="112" y="422"/>
      <point x="187" y="511"/>
      <point x="295" y="525" type="curve"/>
    </contour>
  </outline>
</glyph>
<glyph name="sterling" format="1">
  <advance width="600"/>
  <unicode hex="00A3"/>
  <outline>
    <contour>
      <point x="256" y="102" type="curve"/>
      <point x="234" y="127"/>
      <point x="214" y="149"/>
      <point x="178" y="149" type="curve" smooth="yes"/>
      <point x="140" y="149"/>
      <point x="116" y="123"/>
      <point x="116" y="85" type="curve" smooth="yes"/>
      <point x="116" y="52"/>
      <point x="142" y="24"/>
      <point x="176" y="24" type="curve" smooth="yes"/>
      <point x="216" y="24"/>
      <point x="252" y="63"/>
    </contour>
    <contour>
      <point x="217" y="291" type="line"/>
      <point x="92" y="291" type="line"/>
      <point x="92" y="327" type="line"/>
      <point x="206" y="327" type="line"/>
      <point x="193" y="364"/>
      <point x="182" y="403"/>
      <point x="182" y="442" type="curve" smooth="yes"/>
      <point x="182" y="542"/>
      <point x="240" y="612"/>
      <point x="343" y="612" type="curve" smooth="yes"/>
      <point x="423" y="612"/>
      <point x="505" y="557"/>
      <point x="505" y="471" type="curve" smooth="yes"/>
      <point x="505" y="440"/>
      <point x="497" y="409"/>
      <point x="471" y="409" type="curve" smooth="yes"/>
      <point x="452" y="409"/>
      <point x="446" y="430"/>
      <point x="446" y="446" type="curve" smooth="yes"/>
      <point x="446" y="465"/>
      <point x="452" y="475"/>
      <point x="464" y="489" type="curve"/>
      <point x="457" y="545"/>
      <point x="395" y="576"/>
      <point x="344" y="576" type="curve" smooth="yes"/>
      <point x="261" y="576"/>
      <point x="224" y="516"/>
      <point x="224" y="439" type="curve" smooth="yes"/>
      <point x="224" y="399"/>
      <point x="234" y="365"/>
      <point x="247" y="327" type="curve"/>
      <point x="396" y="327" type="line"/>
      <point x="396" y="291" type="line"/>
      <point x="257" y="291" type="line"/>
      <point x="274" y="244"/>
      <point x="297" y="183"/>
      <point x="294" y="133" type="curve" smooth="yes"/>
      <point x="293" y="114" type="line"/>
      <point x="317" y="80"/>
      <point x="368" y="24"/>
      <point x="412" y="24" type="curve" smooth="yes"/>
      <point x="464" y="24"/>
      <point x="487" y="77"/>
      <point x="487" y="122" type="curve"/>
      <point x="521" y="117" type="line"/>
      <point x="521" y="53"/>
      <point x="484" y="-12"/>
      <point x="414" y="-12" type="curve" smooth="yes"/>
      <point x="360" y="-12"/>
      <point x="316" y="33"/>
      <point x="283" y="70" type="curve"/>
      <point x="268" y="24"/>
      <point x="223" y="-12"/>
      <point x="173" y="-12" type="curve" smooth="yes"/>
      <point x="119" y="-12"/>
      <point x="74" y="31"/>
      <point x="74" y="86" type="curve" smooth="yes"/>
      <point x="74" y="144"/>
      <point x="117" y="185"/>
      <point x="175" y="185" type="curve" smooth="yes"/>
      <point x="209" y="185"/>
      <point x="233" y="175"/>
      <point x="256" y="151" type="curve"/>
      <point x="254" y="197"/>
      <point x="238" y="242"/>
      <point x="220" y="284" type="curve" smooth="yes"/>
    </contour>
  </outline>
</glyph>
<glyph name="currency" format="1">
  <advance width="600"/>
  <unicode hex="00A4"/>
  <outline>
    <contour>
      <point x="120" y="506" type="curve"/>
      <point x="11" y="613" type="line"/>
      <point x="44" y="645" type="line"/>
      <point x="152" y="538" type="line"/>
      <point x="194" y="572"/>
      <point x="246" y="590"/>
      <point x="300" y="590" type="curve" smooth="yes"/>
      <point x="354" y="590"/>
      <point x="406" y="572"/>
      <point x="448" y="538" type="curve"/>
      <point x="556" y="645" type="line"/>
      <point x="589" y="613" type="line"/>
      <point x="480" y="506" type="line"/>
      <point x="513" y="461"/>
      <point x="530" y="416"/>
      <point x="530" y="360" type="curve" smooth="yes"/>
      <point x="530" y="304"/>
      <point x="513" y="259"/>
      <point x="480" y="214" type="curve"/>
      <point x="589" y="107" type="line"/>
      <point x="556" y="75" type="line"/>
      <point x="448" y="182" type="line"/>
      <point x="406" y="148"/>
      <point x="354" y="130"/>
      <point x="300" y="130" type="curve" smooth="yes"/>
      <point x="246" y="130"/>
      <point x="194" y="148"/>
      <point x="152" y="182" type="curve"/>
      <point x="44" y="75" type="line"/>
      <point x="11" y="107" type="line"/>
      <point x="120" y="214" type="line"/>
      <point x="87" y="259"/>
      <point x="70" y="304"/>
      <point x="70" y="360" type="curve" smooth="yes"/>
      <point x="70" y="416"/>
      <point x="87" y="461"/>
    </contour>
    <contour>
      <point x="300" y="169" type="curve" smooth="yes"/>
      <point x="408" y="169"/>
      <point x="491" y="252"/>
      <point x="491" y="360" type="curve" smooth="yes"/>
      <point x="491" y="468"/>
      <point x="408" y="552"/>
      <point x="300" y="552" type="curve" smooth="yes"/>
      <point x="192" y="552"/>
      <point x="109" y="468"/>
      <point x="109" y="360" type="curve" smooth="yes"/>
      <point x="109" y="252"/>
      <point x="192" y="169"/>
    </contour>
  </outline>
</glyph>
<glyph name="section" format="1">
  <advance width="600"/>
  <unicode hex="00A7"/>
  <outline>
    <contour>
      <point x="244" y="208" type="curve" smooth="yes"/>
      <point x="376" y="108" type="line"/>
      <point x="406" y="122"/>
      <point x="426" y="149"/>
      <point x="426" y="183" type="curve" smooth="yes"/>
      <point x="426" y="223"/>
      <point x="395" y="250"/>
      <point x="366" y="273" type="curve" smooth="yes"/>
      <point x="221" y="385" type="line"/>
      <point x="192" y="366"/>
      <point x="174" y="342"/>
      <point x="174" y="306" type="curve" smooth="yes"/>
      <point x="174" y="264"/>
      <point x="213" y="231"/>
    </contour>
    <contour>
      <point x="300" y="576" type="curve" smooth="yes"/>
      <point x="248" y="576"/>
      <point x="203" y="546"/>
      <point x="203" y="491" type="curve" smooth="yes"/>
      <point x="203" y="381"/>
      <point x="468" y="309"/>
      <point x="468" y="184" type="curve" smooth="yes"/>
      <point x="468" y="137"/>
      <point x="438" y="106"/>
      <point x="400" y="84" type="curve"/>
      <point x="426" y="56"/>
      <point x="442" y="31"/>
      <point x="442" y="-9" type="curve" smooth="yes"/>
      <point x="442" y="-81"/>
      <point x="370" y="-120"/>
      <point x="306" y="-120" type="curve" smooth="yes"/>
      <point x="232" y="-120"/>
      <point x="163" y="-74"/>
      <point x="163" y="6" type="curve" smooth="yes"/>
      <point x="163" y="20"/>
      <point x="168" y="45"/>
      <point x="186" y="45" type="curve" smooth="yes"/>
      <point x="203" y="45"/>
      <point x="210" y="23"/>
      <point x="210" y="9" type="curve" smooth="yes"/>
      <point x="210" y="-2"/>
      <point x="207" y="-9"/>
      <point x="203" y="-19" type="curve"/>
      <point x="219" y="-64"/>
      <point x="256" y="-84"/>
      <point x="303" y="-84" type="curve" smooth="yes"/>
      <point x="353" y="-84"/>
      <point x="400" y="-58"/>
      <point x="400" y="-2" type="curve" smooth="yes"/>
      <point x="400" y="101"/>
      <point x="132" y="180"/>
      <point x="132" y="307" type="curve" smooth="yes"/>
      <point x="132" y="354"/>
      <point x="158" y="383"/>
      <point x="195" y="408" type="curve"/>
      <point x="173" y="429"/>
      <point x="161" y="459"/>
      <point x="161" y="490" type="curve" smooth="yes"/>
      <point x="161" y="567"/>
      <point x="225" y="612"/>
      <point x="297" y="612" type="curve" smooth="yes"/>
      <point x="364" y="612"/>
      <point x="437" y="570"/>
      <point x="437" y="496" type="curve" smooth="yes"/>
      <point x="437" y="482"/>
      <point x="433" y="454"/>
      <point x="415" y="454" type="curve" smooth="yes"/>
      <point x="400" y="454"/>
      <point x="393" y="468"/>
      <point x="393" y="481" type="curve" smooth="yes"/>
      <point x="393" y="492"/>
      <point x="396" y="502"/>
      <point x="400" y="513" type="curve"/>
      <point x="394" y="557"/>
      <point x="338" y="576"/>
    </contour>
  </outline>
</glyph>
<glyph name="dieresis" format="1">
  <advance width="600"/>
  <unicode hex="00A8"/>
  <outline>
    <contour>
      <point x="143" y="559" type="curve" smooth="yes"/>
      <point x="143" y="586"/>
      <point x="165" y="608"/>
      <point x="192" y="608" type="curve" smooth="yes"/>
      <point x="219" y="608"/>
      <point x="241" y="586"/>
      <point x="241" y="559" type="curve" smooth="yes"/>
      <point x="241" y="532"/>
      <point x="219" y="510"/>
      <point x="192" y="510" type="curve" smooth="yes"/>
      <point x="165" y="510"/>
      <point x="143" y="532"/>
    </contour>
    <contour>
      <point x="359" y="559" type="curve" smooth="yes"/>
      <point x="359" y="586"/>
      <point x="381" y="608"/>
      <point x="408" y="608" type="curve" smooth="yes"/>
      <point x="435" y="608"/>
      <point x="457" y="586"/>
      <point x="457" y="559" type="curve" smooth="yes"/>
      <point x="457" y="532"/>
      <point x="435" y="510"/>
      <point x="408" y="510" type="curve" smooth="yes"/>
      <point x="381" y="510"/>
      <point x="359" y="532"/>
    </contour>
  </outline>
</glyph>
<glyph name="copyright" format="1">
  <advance width="600"/>
  <unicode hex="00A9"/>
  <outline>
    <contour>
      <point x="300" y="-12" type="curve" smooth="yes"/>
      <point x="182" y="-12"/>
      <point x="30" y="66"/>
      <point x="30" y="300" type="curve" smooth="yes"/>
      <point x="30" y="534"/>
      <point x="182" y="612"/>
      <point x="300" y="612" type="curve" smooth="yes"/>
      <point x="418" y="612"/>
      <point x="570" y="534"/>
      <point x="570" y="300" type="curve" smooth="yes"/>
      <point x="570" y="66"/>
      <point x="418" y="-12"/>
    </contour>
    <contour>
      <point x="300" y="24" type="curve" smooth="yes"/>
      <point x="400" y="24"/>
      <point x="528" y="93"/>
      <point x="528" y="300" type="curve" smooth="yes"/>
      <point x="528" y="507"/>
      <point x="400" y="576"/>
      <point x="300" y="576" type="curve" smooth="yes"/>
      <point x="200" y="576"/>
      <point x="72" y="507"/>
      <point x="72" y="300" type="curve" smooth="yes"/>
      <point x="72" y="93"/>
      <point x="200" y="24"/>
    </contour>
    <contour>
      <point x="388" y="240" type="curve"/>
      <point x="407" y="240" type="line"/>
      <point x="407" y="180" type="line"/>
      <point x="377" y="150"/>
      <point x="344" y="122"/>
      <point x="297" y="122" type="curve" smooth="yes"/>
      <point x="239" y="122"/>
      <point x="172" y="172"/>
      <point x="172" y="304" type="curve" smooth="yes"/>
      <point x="172" y="434"/>
      <point x="239" y="475"/>
      <point x="299" y="475" type="curve" smooth="yes"/>
      <point x="331" y="475"/>
      <point x="360" y="468"/>
      <point x="380" y="452" type="curve"/>
      <point x="388" y="464" type="line"/>
      <point x="407" y="458" type="line"/>
      <point x="400" y="444"/>
      <point x="399" y="425"/>
      <point x="400" y="406" type="curve" smooth="yes"/>
      <point x="401" y="372" type="line"/>
      <point x="380" y="372" type="line"/>
      <point x="379" y="423"/>
      <point x="352" y="446"/>
      <point x="300" y="446" type="curve" smooth="yes"/>
      <point x="232" y="446"/>
      <point x="207" y="372"/>
      <point x="207" y="302" type="curve" smooth="yes"/>
      <point x="207" y="233"/>
      <point x="232" y="151"/>
      <point x="299" y="151" type="curve" smooth="yes"/>
      <point x="352" y="151"/>
      <point x="388" y="184"/>
    </contour>
  </outline>
</glyph>
<glyph name="ordfeminine" format="1">
  <advance width="600"/>
  <unicode hex="00AA"/>
  <outline>
    <contour>
      <point x="155" y="257" type="line"/>
      <point x="444" y="257" type="line"/>
      <point x="444" y="221" type="line"/>
      <point x="155" y="221" type="line"/>
    </contour>
    <contour>
      <point x="361" y="357" type="line"/>
      <point x="361" y="377" type="line"/>
      <point x="323" y="361"/>
      <point x="283" y="350"/>
      <point x="242" y="350" type="curve" smooth="yes"/>
      <point x="198" y="350"/>
      <point x="149" y="366"/>
      <point x="149" y="418" type="curve" smooth="yes"/>
      <point x="149" y="473"/>
      <point x="203" y="493"/>
      <point x="247" y="496" type="curve" smooth="yes"/>
      <point x="361" y="505" type="line"/>
      <point x="361" y="524" type="line" smooth="yes"/>
      <point x="361" y="561"/>
      <point x="359" y="582"/>
      <point x="315" y="582" type="curve" smooth="yes"/>
      <point x="282" y="582"/>
      <point x="248" y="574"/>
      <point x="219" y="557" type="curve"/>
      <point x="219" y="522" type="line"/>
      <point x="183" y="522" type="line"/>
      <point x="183" y="578" type="line"/>
      <point x="221" y="599"/>
      <point x="267" y="612"/>
      <point x="310" y="612" type="curve" smooth="yes"/>
      <point x="331" y="612"/>
      <point x="363" y="608"/>
      <point x="380" y="594" type="curve" smooth="yes"/>
      <point x="398" y="579"/>
      <point x="397" y="554"/>
      <point x="397" y="533" type="curve" smooth="yes"/>
      <point x="397" y="387" type="line"/>
      <point x="451" y="387" type="line"/>
      <point x="451" y="357" type="line"/>
    </contour>
    <contour>
      <point x="361" y="411" type="curve"/>
      <point x="361" y="476" type="line"/>
      <point x="320" y="475"/>
      <point x="274" y="472"/>
      <point x="238" y="464" type="curve" smooth="yes"/>
      <point x="212" y="458"/>
      <point x="185" y="447"/>
      <point x="185" y="418" type="curve" smooth="yes"/>
      <point x="185" y="387"/>
      <point x="216" y="380"/>
      <point x="241" y="380" type="curve" smooth="yes"/>
      <point x="281" y="380"/>
      <point x="322" y="395"/>
    </contour>
  </outline>
</glyph>
<glyph name="guillemotleft" format="1">
  <advance width="600"/>
  <unicode hex="00AB"/>
  <outline>
    <contour>
      <point x="338" y="548" type="line"/>
      <point x="364" y="522" type="line"/>
      <point x="123" y="300" type="line"/>
      <point x="364" y="78" type="line"/>
      <point x="338" y="52" type="line"/>
      <point x="72" y="300" type="line"/>
    </contour>
    <contour>
      <point x="502" y="548" type="line"/>
      <point x="528" y="522" type="line"/>
      <point x="287" y="300" type="line"/>
      <point x="528" y="78" type="line"/>
      <point x="502" y="52" type="line"/>
      <point x="236" y="300" type="line"/>
    </contour>
  </outline>
</glyph>
<glyph name="registered" format="1">
  <advance width="600"/>
  <unicode hex="00AE"/>
  <outline>
    <contour>
      <point x="454" y="148" type="line"/>
      <point x="454" y="122" type="line"/>
      <point x="397" y="122" type="line"/>
      <point x="285" y="289" type="line"/>
      <point x="232" y="289" type="line"/>
      <point x="232" y="148" type="line"/>
      <point x="286" y="148" type="line"/>
      <point x="286" y="122" type="line"/>
      <point x="162" y="122" type="line"/>
      <point x="162" y="148" type="line"/>
      <point x="200" y="148" type="line"/>
      <point x="200" y="443" type="line"/>
      <point x="162" y="447" type="line"/>
      <point x="162" y="473" type="line"/>
      <point x="215" y="471" type="line" smooth="yes"/>
      <point x="246" y="470"/>
      <point x="276" y="475"/>
      <point x="306" y="475" type="curve" smooth="yes"/>
      <point x="350" y="475"/>
      <point x="399" y="443"/>
      <point x="399" y="383" type="curve" smooth="yes"/>
      <point x="399" y="333"/>
      <point x="367" y="303"/>
      <point x="321" y="293" type="curve"/>
      <point x="418" y="148" type="line"/>
    </contour>
    <contour>
      <point x="232" y="443" type="curve"/>
      <point x="232" y="313" type="line"/>
      <point x="262" y="313" type="line" smooth="yes"/>
      <point x="315" y="313"/>
      <point x="364" y="320"/>
      <point x="364" y="381" type="curve" smooth="yes"/>
      <point x="364" y="426"/>
      <point x="338" y="446"/>
      <point x="298" y="446" type="curve" smooth="yes"/>
      <point x="277" y="446"/>
      <point x="245" y="443"/>
    </contour>
    <contour>
      <point x="300" y="24" type="curve" smooth="yes"/>
      <point x="400" y="24"/>
      <point x="528" y="93"/>
      <point x="528" y="300" type="curve" smooth="yes"/>
      <point x="528" y="507"/>
      <point x="400" y="576"/>
      <point x="300" y="576" type="curve" smooth="yes"/>
      <point x="200" y="576"/>
      <point x="72" y="507"/>
      <point x="72" y="300" type="curve" smooth="yes"/>
      <point x="72" y="93"/>
      <point x="200" y="24"/>
    </contour>
    <contour>
      <point x="300" y="-12" type="curve" smooth="yes"/>
      <point x="182" y="-12"/>
      <point x="30" y="66"/>
      <point x="30" y="300" type="curve" smooth="yes"/>
      <point x="30" y="534"/>
      <point x="182" y="612"/>
      <point x="300" y="612" type="curve" smooth="yes"/>
      <point x="418" y="612"/>
      <point x="570" y="534"/>
      <point x="570" y="300" type="curve" smooth="yes"/>
      <point x="570" y="66"/>
      <point x="418" y="-12"/>
    </contour>
  </outline>
</glyph>
<glyph name="degree" format="1">
  <advance width="600"/>
  <unicode hex="00B0"/>
  <outline>
    <contour>
      <point x="107" y="549" type="curve" smooth="yes"/>
      <point x="107" y="656"/>
      <point x="193" y="742"/>
      <point x="300" y="742" type="curve" smooth="yes"/>
      <point x="407" y="742"/>
      <point x="493" y="656"/>
      <point x="493" y="549" type="curve" smooth="yes"/>
      <point x="493" y="443"/>
      <point x="407" y="356"/>
      <point x="300" y="356" type="curve" smooth="yes"/>
      <point x="193" y="356"/>
      <point x="107" y="443"/>
    </contour>
    <contour>
      <point x="149" y="549" type="curve" smooth="yes"/>
      <point x="149" y="466"/>
      <point x="217" y="398"/>
      <point x="300" y="398" type="curve" smooth="yes"/>
      <point x="383" y="398"/>
      <point x="451" y="466"/>
      <point x="451" y="549" type="curve" smooth="yes"/>
      <point x="451" y="632"/>
      <point x="383" y="700"/>
      <point x="300" y="700" type="curve" smooth="yes"/>
      <point x="217" y="700"/>
      <point x="149" y="632"/>
    </contour>
  </outline>
</glyph>
<glyph name="plusminus" format="1">
  <advance width="600"/>
  <unicode hex="00B1"/>
  <outline>
    <contour>
      <point x="566" y="429" type="line"/>
      <point x="566" y="385" type="line"/>
      <point x="322" y="385" type="line"/>
      <point x="322" y="141" type="line"/>
      <point x="278" y="141" type="line"/>
      <point x="278" y="385" type="line"/>
      <point x="34" y="385" type="line"/>
      <point x="34" y="429" type="line"/>
      <point x="278" y="429" type="line"/>
      <point x="278" y="673" type="line"/>
      <point x="322" y="673" type="line"/>
      <point x="322" y="429" type="line"/>
    </contour>
    <contour>
      <point x="566" y="91" type="line"/>
      <point x="566" y="47" type="line"/>
      <point x="34" y="47" type="line"/>
      <point x="34" y="91" type="line"/>
    </contour>
  </outline>
</glyph>
<glyph name="uni00B2" format="1">
  <advance width="600"/>
  <unicode hex="00B2"/>
  <outline>
    <contour>
      <point x="383" y="346" type="line"/>
      <point x="413" y="339" type="line"/>
      <point x="386" y="282" type="line"/>
      <point x="188" y="282" type="line"/>
      <point x="188" y="310" type="line"/>
      <point x="202" y="325" type="line" smooth="yes"/>
      <point x="245" y="372"/>
      <point x="348" y="459"/>
      <point x="348" y="528" type="curve" smooth="yes"/>
      <point x="348" y="561"/>
      <point x="319" y="584"/>
      <point x="287" y="584" type="curve" smooth="yes"/>
      <point x="268" y="584"/>
      <point x="250" y="577"/>
      <point x="238" y="556" type="curve"/>
      <point x="238" y="540"/>
      <point x="229" y="520"/>
      <point x="209" y="520" type="curve" smooth="yes"/>
      <point x="199" y="520"/>
      <point x="195" y="528"/>
      <point x="195" y="537" type="curve" smooth="yes"/>
      <point x="195" y="584"/>
      <point x="247" y="612"/>
      <point x="288" y="612" type="curve" smooth="yes"/>
      <point x="335" y="612"/>
      <point x="383" y="581"/>
      <point x="383" y="530" type="curve" smooth="yes"/>
      <point x="383" y="490"/>
      <point x="364" y="456"/>
      <point x="338" y="427" type="curve" smooth="yes"/>
      <point x="230" y="310" type="line"/>
      <point x="364" y="310" type="line"/>
    </contour>
  </outline>
</glyph>
<glyph name="uni00B3" format="1">
  <advance width="600"/>
  <unicode hex="00B3"/>
  <outline>
    <contour>
      <point x="302" y="444" type="curve" smooth="yes"/>
      <point x="275" y="444" type="line"/>
      <point x="275" y="472" type="line"/>
      <point x="294" y="472" type="line" smooth="yes"/>
      <point x="327" y="472"/>
      <point x="357" y="483"/>
      <point x="357" y="521" type="curve" smooth="yes"/>
      <point x="357" y="558"/>
      <point x="336" y="584"/>
      <point x="299" y="584" type="curve" smooth="yes"/>
      <point x="285" y="584"/>
      <point x="271" y="579"/>
      <point x="260" y="571" type="curve"/>
      <point x="259" y="553"/>
      <point x="247" y="531"/>
      <point x="228" y="531" type="curve" smooth="yes"/>
      <point x="218" y="531"/>
      <point x="212" y="539"/>
      <point x="212" y="548" type="curve" smooth="yes"/>
      <point x="212" y="567"/>
      <point x="238" y="612"/>
      <point x="306" y="612" type="curve" smooth="yes"/>
      <point x="356" y="612"/>
      <point x="392" y="573"/>
      <point x="392" y="524" type="curve" smooth="yes"/>
      <point x="392" y="493"/>
      <point x="379" y="479"/>
      <point x="357" y="460" type="curve"/>
      <point x="358" y="459" type="line"/>
      <point x="391" y="434"/>
      <point x="408" y="421"/>
      <point x="408" y="375" type="curve" smooth="yes"/>
      <point x="408" y="308"/>
      <point x="354" y="276"/>
      <point x="292" y="276" type="curve" smooth="yes"/>
      <point x="259" y="276"/>
      <point x="221" y="283"/>
      <point x="193" y="301" type="curve"/>
      <point x="206" y="326" type="line"/>
      <point x="231" y="312"/>
      <point x="263" y="304"/>
      <point x="292" y="304" type="curve" smooth="yes"/>
      <point x="337" y="304"/>
      <point x="373" y="325"/>
      <point x="373" y="374" type="curve" smooth="yes"/>
      <point x="373" y="419"/>
      <point x="346" y="444"/>
    </contour>
  </outline>
</glyph>
<glyph name="acute" format="1">
  <advance width="600"/>
  <unicode hex="00B4"/>
  <outline>
    <contour>
      <point x="407" y="645" type="line"/>
      <point x="444" y="600" type="line"/>
      <point x="256" y="473" type="line"/>
      <point x="233" y="503" type="line"/>
    </contour>
  </outline>
</glyph>
<glyph name="paragraph" format="1">
  <advance width="600"/>
  <unicode hex="00B6"/>
  <outline>
    <contour>
      <point x="279" y="-94" type="line"/>
      <point x="279" y="278" type="line"/>
      <point x="183" y="270"/>
      <point x="97" y="334"/>
      <point x="97" y="438" type="curve" smooth="yes"/>
      <point x="97" y="500"/>
      <point x="125" y="600"/>
      <point x="292" y="600" type="curve" smooth="yes"/>
      <point x="503" y="600" type="line"/>
      <point x="503" y="564" type="line"/>
      <point x="464" y="564" type="line"/>
      <point x="464" y="-94" type="line"/>
      <point x="425" y="-94" type="line"/>
      <point x="425" y="564" type="line"/>
      <point x="318" y="564" type="line"/>
      <point x="318" y="-94" type="line"/>
    </contour>
  </outline>
</glyph>
<glyph name="periodcentered" format="1">
  <advance width="600"/>
  <unicode hex="00B7"/>
  <outline>
    <contour>
      <point x="250" y="360" type="curve" smooth="yes"/>
      <point x="250" y="388"/>
      <point x="272" y="410"/>
      <point x="300" y="410" type="curve" smooth="yes"/>
      <point x="328" y="410"/>
      <point x="350" y="388"/>
      <point x="350" y="360" type="curve" smooth="yes"/>
      <point x="350" y="332"/>
      <point x="328" y="310"/>
      <point x="300" y="310" type="curve" smooth="yes"/>
      <point x="272" y="310"/>
      <point x="250" y="332"/>
    </contour>
  </outline>
</glyph>
<glyph name="cedilla" format="1">
  <advance width="600"/>
  <unicode hex="00B8"/>
  <outline>
    <contour>
      <point x="280" y="9" type="line"/>
      <point x="317" y="9" type="line"/>
      <point x="302" y="-68" type="line"/>
      <point x="321" y="-68" type="line" smooth="yes"/>
      <point x="370" y="-68"/>
      <point x="416" y="-93"/>
      <point x="416" y="-147" type="curve" smooth="yes"/>
      <point x="416" y="-211"/>
      <point x="353" y="-235"/>
      <point x="298" y="-235" type="curve" smooth="yes"/>
      <point x="264" y="-235"/>
      <point x="223" y="-227"/>
      <point x="194" y="-210" type="curve"/>
      <point x="194" y="-173" type="line"/>
      <point x="225" y="-188"/>
      <point x="260" y="-199"/>
      <point x="294" y="-199" type="curve" smooth="yes"/>
      <point x="327" y="-199"/>
      <point x="374" y="-186"/>
      <point x="374" y="-146" type="curve" smooth="yes"/>
      <point x="374" y="-111"/>
      <point x="329" y="-103"/>
      <point x="303" y="-105" type="curve" smooth="yes"/>
      <point x="255" y="-108" type="line"/>
    </contour>
  </outline>
</glyph>
<glyph name="uni00B9" format="1">
  <advance width="600"/>
  <unicode hex="00B9"/>
  <outline>
    <contour>
      <point x="319" y="581" type="curve" smooth="yes"/>
      <point x="319" y="310" type="line"/>
      <point x="393" y="310" type="line"/>
      <point x="393" y="282" type="line"/>
      <point x="207" y="282" type="line"/>
      <point x="207" y="310" type="line"/>
      <point x="284" y="310" type="line"/>
      <point x="284" y="567" type="line"/>
      <point x="267" y="563"/>
      <point x="249" y="561"/>
      <point x="230" y="561" type="curve" smooth="yes"/>
      <point x="213" y="561" type="line"/>
      <point x="208" y="589" type="line"/>
      <point x="224" y="589" type="line" smooth="yes"/>
      <point x="243" y="589"/>
      <point x="276" y="590"/>
      <point x="289" y="605" type="curve" smooth="yes"/>
      <point x="293" y="609"/>
      <point x="297" y="612"/>
      <point x="303" y="612" type="curve" smooth="yes"/>
      <point x="321" y="612"/>
      <point x="319" y="594"/>
    </contour>
  </outline>
</glyph>
<glyph name="ordmasculine" format="1">
  <advance width="600"/>
  <unicode hex="00BA"/>
  <outline>
    <contour>
      <point x="155" y="257" type="line"/>
      <point x="444" y="257" type="line"/>
      <point x="444" y="221" type="line"/>
      <point x="155" y="221" type="line"/>
    </contour>
    <contour>
      <point x="300" y="350" type="curve" smooth="yes"/>
      <point x="225" y="350"/>
      <point x="160" y="403"/>
      <point x="160" y="481" type="curve" smooth="yes"/>
      <point x="160" y="559"/>
      <point x="225" y="612"/>
      <point x="300" y="612" type="curve" smooth="yes"/>
      <point x="375" y="612"/>
      <point x="440" y="559"/>
      <point x="440" y="481" type="curve" smooth="yes"/>
      <point x="440" y="403"/>
      <point x="375" y="350"/>
    </contour>
    <contour>
      <point x="300" y="380" type="curve" smooth="yes"/>
      <point x="358" y="380"/>
      <point x="404" y="423"/>
      <point x="404" y="481" type="curve" smooth="yes"/>
      <point x="404" y="539"/>
      <point x="358" y="582"/>
      <point x="300" y="582" type="curve" smooth="yes"/>
      <point x="242" y="582"/>
      <point x="196" y="539"/>
      <point x="196" y="481" type="curve" smooth="yes"/>
      <point x="196" y="423"/>
      <point x="242" y="380"/>
    </contour>
  </outline>
</glyph>
<glyph name="guillemotright" format="1">
  <advance width="600"/>
  <unicode hex="00BB"/>
  <outline>
    <contour>
      <point x="72" y="522" type="line"/>
      <point x="98" y="548" type="line"/>
      <point x="364" y="300" type="line"/>
      <point x="98" y="52" type="line"/>
      <point x="72" y="78" type="line"/>
      <point x="313" y="300" type="line"/>
    </contour>
    <contour>
      <point x="236" y="522" type="line"/>
      <point x="262" y="548" type="line"/>
      <point x="528" y="300" type="line"/>
      <point x="262" y="52" type="line"/>
      <point x="236" y="78" type="line"/>
      <point x="477" y="300" type="line"/>
    </contour>
  </outline>
</glyph>
<glyph name="onequarter" format="1">
  <advance width="600"/>
  <unicode hex="00BC"/>
  <outline>
    <contour>
      <point x="430" y="629" type="line"/>
      <point x="457" y="613" type="line"/>
      <point x="182" y="-27" type="line"/>
      <point x="155" y="-11" type="line"/>
    </contour>
    <contour>
      <point x="479" y="227" type="line"/>
      <point x="514" y="227" type="line"/>
      <point x="514" y="113" type="line"/>
      <point x="560" y="113" type="line"/>
      <point x="560" y="85" type="line"/>
      <point x="514" y="85" type="line"/>
      <point x="514" y="28" type="line"/>
      <point x="560" y="28" type="line"/>
      <point x="560" y="0" type="line"/>
      <point x="425" y="0" type="line"/>
      <point x="425" y="28" type="line"/>
      <point x="479" y="28" type="line"/>
      <point x="479" y="85" type="line"/>
      <point x="318" y="85" type="line"/>
      <point x="318" y="113" type="line"/>
      <point x="363" y="187"/>
      <point x="406" y="264"/>
      <point x="428" y="349" type="curve"/>
      <point x="461" y="340" type="line"/>
      <point x="439" y="258"/>
      <point x="396" y="184"/>
      <point x="351" y="113" type="curve"/>
      <point x="479" y="113" type="line"/>
    </contour>
    <contour>
      <point x="160" y="581" type="curve" smooth="yes"/>
      <point x="160" y="310" type="line"/>
      <point x="234" y="310" type="line"/>
      <point x="234" y="282" type="line"/>
      <point x="48" y="282" type="line"/>
      <point x="48" y="310" type="line"/>
      <point x="125" y="310" type="line"/>
      <point x="125" y="567" type="line"/>
      <point x="108" y="563"/>
      <point x="90" y="561"/>
      <point x="71" y="561" type="curve" smooth="yes"/>
      <point x="54" y="561" type="line"/>
      <point x="49" y="589" type="line"/>
      <point x="65" y="589" type="line" smooth="yes"/>
      <point x="84" y="589"/>
      <point x="117" y="590"/>
      <point x="130" y="605" type="curve" smooth="yes"/>
      <point x="134" y="609"/>
      <point x="138" y="612"/>
      <point x="144" y="612" type="curve" smooth="yes"/>
      <point x="162" y="612"/>
      <point x="160" y="594"/>
    </contour>
  </outline>
</glyph>
<glyph name="onehalf" format="1">
  <advance width="600"/>
  <unicode hex="00BD"/>
  <outline>
    <contour>
      <point x="412" y="629" type="line"/>
      <point x="439" y="613" type="line"/>
      <point x="164" y="-27" type="line"/>
      <point x="137" y="-11" type="line"/>
    </contour>
    <contour>
      <point x="527" y="64" type="line"/>
      <point x="557" y="57" type="line"/>
      <point x="530" y="0" type="line"/>
      <point x="332" y="0" type="line"/>
      <point x="332" y="28" type="line"/>
      <point x="346" y="43" type="line" smooth="yes"/>
      <point x="389" y="90"/>
      <point x="492" y="177"/>
      <point x="492" y="246" type="curve" smooth="yes"/>
      <point x="492" y="279"/>
      <point x="463" y="302"/>
      <point x="431" y="302" type="curve" smooth="yes"/>
      <point x="412" y="302"/>
      <point x="394" y="295"/>
      <point x="382" y="274" type="curve"/>
      <point x="382" y="258"/>
      <point x="373" y="238"/>
      <point x="353" y="238" type="curve" smooth="yes"/>
      <point x="343" y="238"/>
      <point x="339" y="246"/>
      <point x="339" y="255" type="curve" smooth="yes"/>
      <point x="339" y="302"/>
      <point x="391" y="330"/>
      <point x="432" y="330" type="curve" smooth="yes"/>
      <point x="479" y="330"/>
      <point x="527" y="299"/>
      <point x="527" y="248" type="curve" smooth="yes"/>
      <point x="527" y="208"/>
      <point x="508" y="174"/>
      <point x="482" y="145" type="curve" smooth="yes"/>
      <point x="374" y="28" type="line"/>
      <point x="508" y="28" type="line"/>
    </contour>
    <contour>
      <point x="160" y="581" type="curve" smooth="yes"/>
      <point x="160" y="310" type="line"/>
      <point x="234" y="310" type="line"/>
      <point x="234" y="282" type="line"/>
      <point x="48" y="282" type="line"/>
      <point x="48" y="310" type="line"/>
      <point x="125" y="310" type="line"/>
      <point x="125" y="567" type="line"/>
      <point x="108" y="563"/>
      <point x="90" y="561"/>
      <point x="71" y="561" type="curve" smooth="yes"/>
      <point x="54" y="561" type="line"/>
      <point x="49" y="589" type="line"/>
      <point x="65" y="589" type="line" smooth="yes"/>
      <point x="84" y="589"/>
      <point x="117" y="590"/>
      <point x="130" y="605" type="curve" smooth="yes"/>
      <point x="134" y="609"/>
      <point x="138" y="612"/>
      <point x="144" y="612" type="curve" smooth="yes"/>
      <point x="162" y="612"/>
      <point x="160" y="594"/>
    </contour>
  </outline>
</glyph>
<glyph name="threequarters" format="1">
  <advance width="600"/>
  <unicode hex="00BE"/>
  <outline>
    <contour>
      <point x="434" y="629" type="line"/>
      <point x="461" y="613" type="line"/>
      <point x="186" y="-27" type="line"/>
      <point x="159" y="-11" type="line"/>
    </contour>
    <contour>
      <point x="490" y="227" type="line"/>
      <point x="525" y="227" type="line"/>
      <point x="525" y="113" type="line"/>
      <point x="571" y="113" type="line"/>
      <point x="571" y="85" type="line"/>
      <point x="525" y="85" type="line"/>
      <point x="525" y="28" type="line"/>
      <point x="571" y="28" type="line"/>
      <point x="571" y="0" type="line"/>
      <point x="436" y="0" type="line"/>
      <point x="436" y="28" type="line"/>
      <point x="490" y="28" type="line"/>
      <point x="490" y="85" type="line"/>
      <point x="329" y="85" type="line"/>
      <point x="329" y="113" type="line"/>
      <point x="374" y="187"/>
      <point x="417" y="264"/>
      <point x="439" y="349" type="curve"/>
      <point x="472" y="340" type="line"/>
      <point x="450" y="258"/>
      <point x="407" y="184"/>
      <point x="362" y="113" type="curve"/>
      <point x="490" y="113" type="line"/>
    </contour>
    <contour>
      <point x="137" y="444" type="curve" smooth="yes"/>
      <point x="110" y="444" type="line"/>
      <point x="110" y="472" type="line"/>
      <point x="129" y="472" type="line" smooth="yes"/>
      <point x="162" y="472"/>
      <point x="192" y="483"/>
      <point x="192" y="521" type="curve" smooth="yes"/>
      <point x="192" y="558"/>
      <point x="171" y="584"/>
      <point x="134" y="584" type="curve" smooth="yes"/>
      <point x="120" y="584"/>
      <point x="106" y="579"/>
      <point x="95" y="571" type="curve"/>
      <point x="94" y="553"/>
      <point x="82" y="531"/>
      <point x="63" y="531" type="curve" smooth="yes"/>
      <point x="53" y="531"/>
      <point x="47" y="539"/>
      <point x="47" y="548" type="curve" smooth="yes"/>
      <point x="47" y="567"/>
      <point x="73" y="612"/>
      <point x="141" y="612" type="curve" smooth="yes"/>
      <point x="191" y="612"/>
      <point x="227" y="573"/>
      <point x="227" y="524" type="curve" smooth="yes"/>
      <point x="227" y="493"/>
      <point x="214" y="479"/>
      <point x="192" y="460" type="curve"/>
      <point x="193" y="459" type="line"/>
      <point x="226" y="434"/>
      <point x="243" y="421"/>
      <point x="243" y="375" type="curve" smooth="yes"/>
      <point x="243" y="308"/>
      <point x="189" y="276"/>
      <point x="127" y="276" type="curve" smooth="yes"/>
      <point x="94" y="276"/>
      <point x="56" y="283"/>
      <point x="28" y="301" type="curve"/>
      <point x="41" y="326" type="line"/>
      <point x="66" y="312"/>
      <point x="98" y="304"/>
      <point x="127" y="304" type="curve" smooth="yes"/>
      <point x="172" y="304"/>
      <point x="208" y="325"/>
      <point x="208" y="374" type="curve" smooth="yes"/>
      <point x="208" y="419"/>
      <point x="181" y="444"/>
    </contour>
  </outline>
</glyph>
<glyph name="questiondown" format="1">
  <advance width="600"/>
  <unicode hex="00BF"/>
  <outline>
    <contour>
      <point x="312" y="249" type="curve"/>
      <point x="349" y="249" type="line"/>
      <point x="349" y="230" type="line" smooth="yes"/>
      <point x="349" y="81"/>
      <point x="218" y="44"/>
      <point x="218" y="-61" type="curve" smooth="yes"/>
      <point x="218" y="-119"/>
      <point x="258" y="-168"/>
      <point x="317" y="-168" type="curve" smooth="yes"/>
      <point x="373" y="-168"/>
      <point x="422" y="-133"/>
      <point x="429" y="-76" type="curve"/>
      <point x="425" y="-66"/>
      <point x="423" y="-56"/>
      <point x="423" y="-45" type="curve" smooth="yes"/>
      <point x="423" y="-31"/>
      <point x="430" y="-12"/>
      <point x="446" y="-12" type="curve" smooth="yes"/>
      <point x="471" y="-12"/>
      <point x="473" y="-40"/>
      <point x="473" y="-59" type="curve" smooth="yes"/>
      <point x="473" y="-136"/>
      <point x="409" y="-204"/>
      <point x="317" y="-204" type="curve" smooth="yes"/>
      <point x="242" y="-204"/>
      <point x="176" y="-146"/>
      <point x="176" y="-69" type="curve" smooth="yes"/>
      <point x="176" y="-1"/>
      <point x="211" y="41"/>
      <point x="253" y="90" type="curve" smooth="yes"/>
      <point x="301" y="145"/>
      <point x="314" y="174"/>
    </contour>
    <contour>
      <point x="384" y="366" type="curve" smooth="yes"/>
      <point x="384" y="337"/>
      <point x="360" y="313"/>
      <point x="331" y="313" type="curve" smooth="yes"/>
      <point x="301" y="313"/>
      <point x="277" y="337"/>
      <point x="277" y="366" type="curve" smooth="yes"/>
      <point x="277" y="396"/>
      <point x="301" y="420"/>
      <point x="331" y="420" type="curve" smooth="yes"/>
      <point x="360" y="420"/>
      <point x="384" y="396"/>
    </contour>
  </outline>
</glyph>
<glyph name="Agrave" format="1">
  <advance width="600"/>
  <unicode hex="00C0"/>
  <outline>
    <contour>
      <point x="296" y="663" type="line"/>
      <point x="527" y="36" type="line"/>
      <point x="575" y="36" type="line"/>
      <point x="575" y="0" type="line"/>
      <point x="392" y="0" type="line"/>
      <point x="392" y="36" type="line"/>
      <point x="485" y="36" type="line"/>
      <point x="428" y="192" type="line"/>
      <point x="167" y="192" type="line"/>
      <point x="113" y="36" type="line"/>
      <point x="206" y="36" type="line"/>
      <point x="206" y="0" type="line"/>
      <point x="25" y="0" type="line"/>
      <point x="25" y="36" type="line"/>
      <point x="73" y="36" type="line"/>
    </contour>
    <contour>
      <point x="416" y="228" type="line"/>
      <point x="295" y="560" type="line"/>
      <point x="180" y="228" type="line"/>
    </contour>
    <contour>
      <point x="193" y="837" type="line"/>
      <point x="367" y="695" type="line"/>
      <point x="344" y="665" type="line"/>
      <point x="156" y="792" type="line"/>
    </contour>
  </outline>
</glyph>
<glyph name="Atilde" format="1">
  <advance width="600"/>
  <unicode hex="00C3"/>
  <outline>
    <contour>
      <point x="296" y="663" type="line"/>
      <point x="527" y="36" type="line"/>
      <point x="575" y="36" type="line"/>
      <point x="575" y="0" type="line"/>
      <point x="392" y="0" type="line"/>
      <point x="392" y="36" type="line"/>
      <point x="485" y="36" type="line"/>
      <point x="428" y="192" type="line"/>
      <point x="167" y="192" type="line"/>
      <point x="113" y="36" type="line"/>
      <point x="206" y="36" type="line"/>
      <point x="206" y="0" type="line"/>
      <point x="25" y="0" type="line"/>
      <point x="25" y="36" type="line"/>
      <point x="73" y="36" type="line"/>
    </contour>
    <contour>
      <point x="416" y="228" type="line"/>
      <point x="295" y="560" type="line"/>
      <point x="180" y="228" type="line"/>
    </contour>
    <contour>
      <point x="189" y="704" type="curve"/>
      <point x="148" y="704" type="line"/>
      <point x="146" y="754"/>
      <point x="168" y="803"/>
      <point x="226" y="803" type="curve" smooth="yes"/>
      <point x="254" y="803"/>
      <point x="280" y="789"/>
      <point x="304" y="775" type="curve" smooth="yes"/>
      <point x="328" y="761"/>
      <point x="350" y="748"/>
      <point x="369" y="748" type="curve" smooth="yes"/>
      <point x="400" y="748"/>
      <point x="408" y="782"/>
      <point x="408" y="807" type="curve"/>
      <point x="451" y="807" type="line"/>
      <point x="453" y="755"/>
      <point x="429" y="706"/>
      <point x="370" y="706" type="curve" smooth="yes"/>
      <point x="343" y="706"/>
      <point x="314" y="723"/>
      <point x="291" y="737" type="curve" smooth="yes"/>
      <point x="274" y="747"/>
      <point x="250" y="761"/>
      <point x="229" y="761" type="curve" smooth="yes"/>
      <point x="197" y="761"/>
      <point x="188" y="730"/>
    </contour>
  </outline>
</glyph>
<glyph name="Adieresis" format="1">
  <advance width="600"/>
  <unicode hex="00C4"/>
  <outline>
    <contour>
      <point x="296" y="663" type="line"/>
      <point x="527" y="36" type="line"/>
      <point x="575" y="36" type="line"/>
      <point x="575" y="0" type="line"/>
      <point x="392" y="0" type="line"/>
      <point x="392" y="36" type="line"/>
      <point x="485" y="36" type="line"/>
      <point x="428" y="192" type="line"/>
      <point x="167" y="192" type="line"/>
      <point x="113" y="36" type="line"/>
      <point x="206" y="36" type="line"/>
      <point x="206" y="0" type="line"/>
      <point x="25" y="0" type="line"/>
      <point x="25" y="36" type="line"/>
      <point x="73" y="36" type="line"/>
    </contour>
    <contour>
      <point x="416" y="228" type="line"/>
      <point x="295" y="560" type="line"/>
      <point x="180" y="228" type="line"/>
    </contour>
    <contour>
      <point x="143" y="751" type="curve" smooth="yes"/>
      <point x="143" y="778"/>
      <point x="165" y="800"/>
      <point x="192" y="800" type="curve" smooth="yes"/>
      <point x="219" y="800"/>
      <point x="241" y="778"/>
      <point x="241" y="751" type="curve" smooth="yes"/>
      <point x="241" y="724"/>
      <point x="219" y="702"/>
      <point x="192" y="702" type="curve" smooth="yes"/>
      <point x="165" y="702"/>
      <point x="143" y="724"/>
    </contour>
    <contour>
      <point x="359" y="751" type="curve" smooth="yes"/>
      <point x="359" y="778"/>
      <point x="381" y="800"/>
      <point x="408" y="800" type="curve" smooth="yes"/>
      <point x="435" y="800"/>
      <point x="457" y="778"/>
      <point x="457" y="751" type="curve" smooth="yes"/>
      <point x="457" y="724"/>
      <point x="435" y="702"/>
      <point x="408" y="702" type="curve" smooth="yes"/>
      <point x="381" y="702"/>
      <point x="359" y="724"/>
    </contour>
  </outline>
</glyph>
<glyph name="Aring" format="1">
  <advance width="600"/>
  <unicode hex="00C5"/>
  <outline>
    <contour>
      <point x="296" y="663" type="line"/>
      <point x="527" y="36" type="line"/>
      <point x="575" y="36" type="line"/>
      <point x="575" y="0" type="line"/>
      <point x="392" y="0" type="line"/>
      <point x="392" y="36" type="line"/>
      <point x="485" y="36" type="line"/>
      <point x="428" y="192" type="line"/>
      <point x="167" y="192" type="line"/>
      <point x="113" y="36" type="line"/>
      <point x="206" y="36" type="line"/>
      <point x="206" y="0" type="line"/>
      <point x="25" y="0" type="line"/>
      <point x="25" y="36" type="line"/>
      <point x="73" y="36" type="line"/>
    </contour>
    <contour>
      <point x="416" y="228" type="line"/>
      <point x="295" y="560" type="line"/>
      <point x="180" y="228" type="line"/>
    </contour>
    <contour>
      <point x="218" y="754" type="curve" smooth="yes"/>
      <point x="218" y="799"/>
      <point x="255" y="836"/>
      <point x="300" y="836" type="curve" smooth="yes"/>
      <point x="345" y="836"/>
      <point x="382" y="799"/>
      <point x="382" y="754" type="curve" smooth="yes"/>
      <point x="382" y="709"/>
      <point x="345" y="672"/>
      <point x="300" y="672" type="curve" smooth="yes"/>
      <point x="255" y="672"/>
      <point x="218" y="709"/>
    </contour>
    <contour>
      <point x="260" y="754" type="curve" smooth="yes"/>
      <point x="260" y="732"/>
      <point x="276" y="708"/>
      <point x="300" y="708" type="curve" smooth="yes"/>
      <point x="324" y="708"/>
      <point x="340" y="732"/>
      <point x="340" y="754" type="curve" smooth="yes"/>
      <point x="340" y="777"/>
      <point x="324" y="800"/>
      <point x="300" y="800" type="curve" smooth="yes"/>
      <point x="276" y="800"/>
      <point x="260" y="777"/>
    </contour>
  </outline>
</glyph>
<glyph name="AE" format="1">
  <advance width="600"/>
  <unicode hex="00C6"/>
  <outline>
    <contour>
      <point x="565" y="600" type="line"/>
      <point x="565" y="449" type="line"/>
      <point x="526" y="449" type="line"/>
      <point x="526" y="470" type="line" smooth="yes"/>
      <point x="526" y="538"/>
      <point x="504" y="564"/>
      <point x="440" y="564" type="curve" smooth="yes"/>
      <point x="351" y="564" type="line"/>
      <point x="351" y="345" type="line"/>
      <point x="441" y="345" type="line"/>
      <point x="441" y="414" type="line"/>
      <point x="480" y="414" type="line"/>
      <point x="480" y="242" type="line"/>
      <point x="441" y="242" type="line"/>
      <point x="441" y="309" type="line"/>
      <point x="351" y="309" type="line"/>
      <point x="351" y="36" type="line"/>
      <point x="428" y="36" type="line" smooth="yes"/>
      <point x="513" y="36"/>
      <point x="526" y="43"/>
      <point x="526" y="142" type="curve" smooth="yes"/>
      <point x="526" y="177" type="line"/>
      <point x="565" y="177" type="line"/>
      <point x="565" y="0" type="line"/>
      <point x="265" y="0" type="line"/>
      <point x="265" y="36" type="line"/>
      <point x="312" y="36" type="line"/>
      <point x="312" y="193" type="line"/>
      <point x="143" y="193" type="line"/>
      <point x="90" y="36" type="line"/>
      <point x="178" y="36" type="line"/>
      <point x="178" y="0" type="line"/>
      <point x="23" y="0" type="line"/>
      <point x="23" y="36" type="line"/>
      <point x="52" y="36" type="line"/>
      <point x="244" y="600" type="line"/>
    </contour>
    <contour>
      <point x="312" y="229" type="line"/>
      <point x="312" y="564" type="line"/>
      <point x="269" y="564" type="line"/>
      <point x="156" y="229" type="line"/>
    </contour>
  </outline>
</glyph>
<glyph name="Ccedilla" format="1">
  <advance width="600"/>
  <unicode hex="00C7"/>
  <outline>
    <contour>
      <point x="475" y="571" type="curve"/>
      <point x="487" y="609" type="line"/>
      <point x="522" y="597" type="line"/>
      <point x="516" y="581"/>
      <point x="513" y="564"/>
      <point x="511" y="547" type="curve" smooth="yes"/>
      <point x="509" y="530"/>
      <point x="507" y="513"/>
      <point x="508" y="496" type="curve" smooth="yes"/>
      <point x="511" y="426" type="line"/>
      <point x="475" y="420" type="line"/>
      <point x="471" y="517"/>
      <point x="435" y="576"/>
      <point x="330" y="576" type="curve" smooth="yes"/>
      <point x="181" y="576"/>
      <point x="128" y="427"/>
      <point x="128" y="302" type="curve" smooth="yes"/>
      <point x="128" y="179"/>
      <point x="183" y="24"/>
      <point x="329" y="24" type="curve" smooth="yes"/>
      <point x="433" y="24"/>
      <point x="483" y="92"/>
      <point x="483" y="192" type="curve"/>
      <point x="522" y="192" type="line"/>
      <point x="522" y="75" type="line"/>
      <point x="469" y="22"/>
      <point x="401" y="-12"/>
      <point x="326" y="-12" type="curve" smooth="yes"/>
      <point x="321" y="-12"/>
      <point x="317" y="-12"/>
      <point x="313" y="-11" type="curve"/>
      <point x="302" y="-68" type="line"/>
      <point x="321" y="-68" type="line" smooth="yes"/>
      <point x="370" y="-68"/>
      <point x="416" y="-93"/>
      <point x="416" y="-147" type="curve" smooth="yes"/>
      <point x="416" y="-211"/>
      <point x="353" y="-235"/>
      <point x="298" y="-235" type="curve" smooth="yes"/>
      <point x="264" y="-235"/>
      <point x="223" y="-227"/>
      <point x="194" y="-210" type="curve"/>
      <point x="194" y="-173" type="line"/>
      <point x="225" y="-188"/>
      <point x="260" y="-199"/>
      <point x="294" y="-199" type="curve" smooth="yes"/>
      <point x="327" y="-199"/>
      <point x="374" y="-186"/>
      <point x="374" y="-146" type="curve" smooth="yes"/>
      <point x="374" y="-111"/>
      <point x="329" y="-103"/>
      <point x="303" y="-105" type="curve" smooth="yes"/>
      <point x="255" y="-108" type="line"/>
      <point x="277" y="-5" type="line"/>
      <point x="182" y="17"/>
      <point x="86" y="107"/>
      <point x="86" y="306" type="curve" smooth="yes"/>
      <point x="86" y="537"/>
      <point x="222" y="612"/>
      <point x="328" y="612" type="curve" smooth="yes"/>
      <point x="379" y="612"/>
      <point x="431" y="597"/>
    </contour>
  </outline>
</glyph>
<glyph name="Ecircumflex" format="1">
  <advance width="600"/>
  <unicode hex="00CA"/>
  <outline>
    <contour>
      <point x="527" y="0" type="line"/>
      <point x="47" y="0" type="line"/>
      <point x="47" y="36" type="line"/>
      <point x="150" y="36" type="line"/>
      <point x="150" y="564" type="line"/>
      <point x="47" y="564" type="line"/>
      <point x="47" y="600" type="line"/>
      <point x="509" y="600" type="line"/>
      <point x="509" y="442" type="line"/>
      <point x="470" y="442" type="line"/>
      <point x="470" y="457" type="line" smooth="yes"/>
      <point x="470" y="548"/>
      <point x="462" y="564"/>
      <point x="373" y="564" type="curve" smooth="yes"/>
      <point x="189" y="564" type="line"/>
      <point x="189" y="346" type="line"/>
      <point x="353" y="346" type="line"/>
      <point x="353" y="433" type="line"/>
      <point x="392" y="433" type="line"/>
      <point x="392" y="212" type="line"/>
      <point x="353" y="212" type="line"/>
      <point x="353" y="310" type="line"/>
      <point x="189" y="310" type="line"/>
      <point x="189" y="36" type="line"/>
      <point x="369" y="36" type="line" smooth="yes"/>
      <point x="484" y="36"/>
      <point x="488" y="58"/>
      <point x="488" y="157" type="curve" smooth="yes"/>
      <point x="488" y="180" type="line"/>
      <point x="527" y="180" type="line"/>
    </contour>
    <contour>
      <point x="300" y="765" type="line"/>
      <point x="158" y="667" type="line"/>
      <point x="135" y="690" type="line"/>
      <point x="300" y="835" type="line"/>
      <point x="465" y="690" type="line"/>
      <point x="442" y="667" type="line"/>
    </contour>
  </outline>
</glyph>
<glyph name="Iacute" format="1">
  <advance width="600"/>
  <unicode hex="00CD"/>
  <outline>
    <contour>
      <point x="117" y="600" type="line"/>
      <point x="483" y="600" type="line"/>
      <point x="483" y="564" type="line"/>
      <point x="320" y="564" type="line"/>
      <point x="320" y="36" type="line"/>
      <point x="483" y="36" type="line"/>
      <point x="483" y="0" type="line"/>
      <point x="117" y="0" type="line"/>
      <point x="117" y="36" type="line"/>
      <point x="281" y="36" type="line"/>
      <point x="281" y="564" type="line"/>
      <point x="117" y="564" type="line"/>
    </contour>
    <contour>
      <point x="407" y="837" type="line"/>
      <point x="444" y="792" type="line"/>
      <point x="256" y="665" type="line"/>
      <point x="233" y="695" type="line"/>
    </contour>
  </outline>
</glyph>
<glyph name="Icircumflex" format="1">
  <advance width="600"/>
  <unicode hex="00CE"/>
  <outline>
    <contour>
      <point x="117" y="600" type="line"/>
      <point x="483" y="600" type="line"/>
      <point x="483" y="564" type="line"/>
      <point x="320" y="564" type="line"/>
      <point x="320" y="36" type="line"/>
      <point x="483" y="36" type="line"/>
      <point x="483" y="0" type="line"/>
      <point x="117" y="0" type="line"/>
      <point x="117" y="36" type="line"/>
      <point x="281" y="36" type="line"/>
      <point x="281" y="564" type="line"/>
      <point x="117" y="564" type="line"/>
    </contour>
    <contour>
      <point x="300" y="765" type="line"/>
      <point x="158" y="667" type="line"/>
      <point x="135" y="690" type="line"/>
      <point x="300" y="835" type="line"/>
      <point x="465" y="690" type="line"/>
      <point x="442" y="667" type="line"/>
    </contour>
  </outline>
</glyph>
<glyph name="Idieresis" format="1">
  <advance width="600"/>
  <unicode hex="00CF"/>
  <outline>
    <contour>
      <point x="117" y="600" type="line"/>
      <point x="483" y="600" type="line"/>
      <point x="483" y="564" type="line"/>
      <point x="320" y="564" type="line"/>
      <point x="320" y="36" type="line"/>
      <point x="483" y="36" type="line"/>
      <point x="483" y="0" type="line"/>
      <point x="117" y="0" type="line"/>
      <point x="117" y="36" type="line"/>
      <point x="281" y="36" type="line"/>
      <point x="281" y="564" type="line"/>
      <point x="117" y="564" type="line"/>
    </contour>
    <contour>
      <point x="143" y="751" type="curve" smooth="yes"/>
      <point x="143" y="778"/>
      <point x="165" y="800"/>
      <point x="192" y="800" type="curve" smooth="yes"/>
      <point x="219" y="800"/>
      <point x="241" y="778"/>
      <point x="241" y="751" type="curve" smooth="yes"/>
      <point x="241" y="724"/>
      <point x="219" y="702"/>
      <point x="192" y="702" type="curve" smooth="yes"/>
      <point x="165" y="702"/>
      <point x="143" y="724"/>
    </contour>
    <contour>
      <point x="359" y="751" type="curve" smooth="yes"/>
      <point x="359" y="778"/>
      <point x="381" y="800"/>
      <point x="408" y="800" type="curve" smooth="yes"/>
      <point x="435" y="800"/>
      <point x="457" y="778"/>
      <point x="457" y="751" type="curve" smooth="yes"/>
      <point x="457" y="724"/>
      <point x="435" y="702"/>
      <point x="408" y="702" type="curve" smooth="yes"/>
      <point x="381" y="702"/>
      <point x="359" y="724"/>
    </contour>
  </outline>
</glyph>
<glyph name="Ntilde" format="1">
  <advance width="600"/>
  <unicode hex="00D1"/>
  <outline>
    <contour>
      <point x="503" y="564" type="line"/>
      <point x="503" y="0" type="line"/>
      <point x="457" y="0" type="line"/>
      <point x="149" y="543" type="line"/>
      <point x="147" y="543" type="line"/>
      <point x="147" y="36" type="line"/>
      <point x="241" y="36" type="line"/>
      <point x="241" y="0" type="line"/>
      <point x="32" y="0" type="line"/>
      <point x="32" y="36" type="line"/>
      <point x="108" y="36" type="line"/>
      <point x="108" y="564" type="line"/>
      <point x="32" y="564" type="line"/>
      <point x="32" y="600" type="line"/>
      <point x="159" y="600" type="line"/>
      <point x="462" y="64" type="line"/>
      <point x="464" y="64" type="line"/>
      <point x="464" y="564" type="line"/>
      <point x="367" y="564" type="line"/>
      <point x="367" y="600" type="line"/>
      <point x="567" y="600" type="line"/>
      <point x="567" y="564" type="line"/>
    </contour>
    <contour>
      <point x="189" y="704" type="curve"/>
      <point x="148" y="704" type="line"/>
      <point x="146" y="754"/>
      <point x="168" y="803"/>
      <point x="226" y="803" type="curve" smooth="yes"/>
      <point x="254" y="803"/>
      <point x="280" y="789"/>
      <point x="304" y="775" type="curve" smooth="yes"/>
      <point x="328" y="761"/>
      <point x="350" y="748"/>
      <point x="369" y="748" type="curve" smooth="yes"/>
      <point x="400" y="748"/>
      <point x="408" y="782"/>
      <point x="408" y="807" type="curve"/>
      <point x="451" y="807" type="line"/>
      <point x="453" y="755"/>
      <point x="429" y="706"/>
      <point x="370" y="706" type="curve" smooth="yes"/>
      <point x="343" y="706"/>
      <point x="314" y="723"/>
      <point x="291" y="737" type="curve" smooth="yes"/>
      <point x="274" y="747"/>
      <point x="250" y="761"/>
      <point x="229" y="761" type="curve" smooth="yes"/>
      <point x="197" y="761"/>
      <point x="188" y="730"/>
    </contour>
  </outline>
</glyph>
<glyph name="Oacute" format="1">
  <advance width="600"/>
  <unicode hex="00D3"/>
  <outline>
    <contour>
      <point x="300" y="-12" type="curve" smooth="yes"/>
      <point x="198" y="-12"/>
      <point x="67" y="66"/>
      <point x="67" y="300" type="curve" smooth="yes"/>
      <point x="67" y="534"/>
      <point x="198" y="612"/>
      <point x="300" y="612" type="curve" smooth="yes"/>
      <point x="402" y="612"/>
      <point x="533" y="534"/>
      <point x="533" y="300" type="curve" smooth="yes"/>
      <point x="533" y="66"/>
      <point x="402" y="-12"/>
    </contour>
    <contour>
      <point x="300" y="24" type="curve" smooth="yes"/>
      <point x="391" y="24"/>
      <point x="491" y="96"/>
      <point x="491" y="300" type="curve" smooth="yes"/>
      <point x="491" y="504"/>
      <point x="391" y="576"/>
      <point x="300" y="576" type="curve" smooth="yes"/>
      <point x="209" y="576"/>
      <point x="109" y="504"/>
      <point x="109" y="300" type="curve" smooth="yes"/>
      <point x="109" y="96"/>
      <point x="209" y="24"/>
    </contour>
    <contour>
      <point x="407" y="837" type="line"/>
      <point x="444" y="792" type="line"/>
      <point x="256" y="665" type="line"/>
      <point x="233" y="695" type="line"/>
    </contour>
  </outline>
</glyph>
<glyph name="Ocircumflex" format="1">
  <advance width="600"/>
  <unicode hex="00D4"/>
  <outline>
    <contour>
      <point x="300" y="-12" type="curve" smooth="yes"/>
      <point x="198" y="-12"/>
      <point x="67" y="66"/>
      <point x="67" y="300" type="curve" smooth="yes"/>
      <point x="67" y="534"/>
      <point x="198" y="612"/>
      <point x="300" y="612" type="curve" smooth="yes"/>
      <point x="402" y="612"/>
      <point x="533" y="534"/>
      <point x="533" y="300" type="curve" smooth="yes"/>
      <point x="533" y="66"/>
      <point x="402" y="-12"/>
    </contour>
    <contour>
      <point x="300" y="24" type="curve" smooth="yes"/>
      <point x="391" y="24"/>
      <point x="491" y="96"/>
      <point x="491" y="300" type="curve" smooth="yes"/>
      <point x="491" y="504"/>
      <point x="391" y="576"/>
      <point x="300" y="576" type="curve" smooth="yes"/>
      <point x="209" y="576"/>
      <point x="109" y="504"/>
      <point x="109" y="300" type="curve" smooth="yes"/>
      <point x="109" y="96"/>
      <point x="209" y="24"/>
    </contour>
    <contour>
      <point x="300" y="765" type="line"/>
      <point x="158" y="667" type="line"/>
      <point x="135" y="690" type="line"/>
      <point x="300" y="835" type="line"/>
      <point x="465" y="690" type="line"/>
      <point x="442" y="667" type="line"/>
    </contour>
  </outline>
</glyph>
<glyph name="Otilde" format="1">
  <advance width="600"/>
  <unicode hex="00D5"/>
  <outline>
    <contour>
      <point x="300" y="-12" type="curve" smooth="yes"/>
      <point x="198" y="-12"/>
      <point x="67" y="66"/>
      <point x="67" y="300" type="curve" smooth="yes"/>
      <point x="67" y="534"/>
      <point x="198" y="612"/>
      <point x="300" y="612" type="curve" smooth="yes"/>
      <point x="402" y="612"/>
      <point x="533" y="534"/>
      <point x="533" y="300" type="curve" smooth="yes"/>
      <point x="533" y="66"/>
      <point x="402" y="-12"/>
    </contour>
    <contour>
      <point x="300" y="24" type="curve" smooth="yes"/>
      <point x="391" y="24"/>
      <point x="491" y="96"/>
      <point x="491" y="300" type="curve" smooth="yes"/>
      <point x="491" y="504"/>
      <point x="391" y="576"/>
      <point x="300" y="576" type="curve" smooth="yes"/>
      <point x="209" y="576"/>
      <point x="109" y="504"/>
      <point x="109" y="300" type="curve" smooth="yes"/>
      <point x="109" y="96"/>
      <point x="209" y="24"/>
    </contour>
    <contour>
      <point x="189" y="704" type="curve"/>
      <point x="148" y="704" type="line"/>
      <point x="146" y="754"/>
      <point x="168" y="803"/>
      <point x="226" y="803" type="curve" smooth="yes"/>
      <point x="254" y="803"/>
      <point x="280" y="789"/>
      <point x="304" y="775" type="curve" smooth="yes"/>
      <point x="328" y="761"/>
      <point x="350" y="748"/>
      <point x="369" y="748" type="curve" smooth="yes"/>
      <point x="400" y="748"/>
      <point x="408" y="782"/>
      <point x="408" y="807" type="curve"/>
      <point x="451" y="807" type="line"/>
      <point x="453" y="755"/>
      <point x="429" y="706"/>
      <point x="370" y="706" type="curve" smooth="yes"/>
      <point x="343" y="706"/>
      <point x="314" y="723"/>
      <point x="291" y="737" type="curve" smooth="yes"/>
      <point x="274" y="747"/>
      <point x="250" y="761"/>
      <point x="229" y="761" type="curve" smooth="yes"/>
      <point x="197" y="761"/>
      <point x="188" y="730"/>
    </contour>
  </outline>
</glyph>
<glyph name="Odieresis" format="1">
  <advance width="600"/>
  <unicode hex="00D6"/>
  <outline>
    <contour>
      <point x="300" y="-12" type="curve" smooth="yes"/>
      <point x="198" y="-12"/>
      <point x="67" y="66"/>
      <point x="67" y="300" type="curve" smooth="yes"/>
      <point x="67" y="534"/>
      <point x="198" y="612"/>
      <point x="300" y="612" type="curve" smooth="yes"/>
      <point x="402" y="612"/>
      <point x="533" y="534"/>
      <point x="533" y="300" type="curve" smooth="yes"/>
      <point x="533" y="66"/>
      <point x="402" y="-12"/>
    </contour>
    <contour>
      <point x="300" y="24" type="curve" smooth="yes"/>
      <point x="391" y="24"/>
      <point x="491" y="96"/>
      <point x="491" y="300" type="curve" smooth="yes"/>
      <point x="491" y="504"/>
      <point x="391" y="576"/>
      <point x="300" y="576" type="curve" smooth="yes"/>
      <point x="209" y="576"/>
      <point x="109" y="504"/>
      <point x="109" y="300" type="curve" smooth="yes"/>
      <point x="109" y="96"/>
      <point x="209" y="24"/>
    </contour>
    <contour>
      <point x="143" y="751" type="curve" smooth="yes"/>
      <point x="143" y="778"/>
      <point x="165" y="800"/>
      <point x="192" y="800" type="curve" smooth="yes"/>
      <point x="219" y="800"/>
      <point x="241" y="778"/>
      <point x="241" y="751" type="curve" smooth="yes"/>
      <point x="241" y="724"/>
      <point x="219" y="702"/>
      <point x="192" y="702" type="curve" smooth="yes"/>
      <point x="165" y="702"/>
      <point x="143" y="724"/>
    </contour>
    <contour>
      <point x="359" y="751" type="curve" smooth="yes"/>
      <point x="359" y="778"/>
      <point x="381" y="800"/>
      <point x="408" y="800" type="curve" smooth="yes"/>
      <point x="435" y="800"/>
      <point x="457" y="778"/>
      <point x="457" y="751" type="curve" smooth="yes"/>
      <point x="457" y="724"/>
      <point x="435" y="702"/>
      <point x="408" y="702" type="curve" smooth="yes"/>
      <point x="381" y="702"/>
      <point x="359" y="724"/>
    </contour>
  </outline>
</glyph>
<glyph name="multiply" format="1">
  <advance width="600"/>
  <unicode hex="00D7"/>
  <outline>
    <contour>
      <point x="566" y="126" type="line"/>
      <point x="535" y="94" type="line"/>
      <point x="300" y="329" type="line"/>
      <point x="65" y="94" type="line"/>
      <point x="34" y="126" type="line"/>
      <point x="269" y="360" type="line"/>
      <point x="34" y="595" type="line"/>
      <point x="65" y="626" type="line"/>
      <point x="300" y="391" type="line"/>
      <point x="535" y="626" type="line"/>
      <point x="566" y="595" type="line"/>
      <point x="331" y="360" type="line"/>
    </contour>
  </outline>
</glyph>
<glyph name="Oslash" format="1">
  <advance width="600"/>
  <unicode hex="00D8"/>
  <outline>
    <contour>
      <point x="161" y="42" type="curve"/>
      <point x="121" y="-21" type="line"/>
      <point x="90" y="-1" type="line"/>
      <point x="134" y="70" type="line"/>
      <point x="85" y="130"/>
      <point x="67" y="224"/>
      <point x="67" y="300" type="curve" smooth="yes"/>
      <point x="67" y="534"/>
      <point x="198" y="612"/>
      <point x="300" y="612" type="curve" smooth="yes"/>
      <point x="353" y="612"/>
      <point x="398" y="594"/>
      <point x="439" y="558" type="curve"/>
      <point x="475" y="616" type="line"/>
      <point x="507" y="596" type="line"/>
      <point x="466" y="530" type="line"/>
      <point x="515" y="470"/>
      <point x="533" y="377"/>
      <point x="533" y="300" type="curve" smooth="yes"/>
      <point x="533" y="66"/>
      <point x="402" y="-12"/>
      <point x="300" y="-12" type="curve" smooth="yes"/>
      <point x="247" y="-12"/>
      <point x="199" y="6"/>
    </contour>
    <contour>
      <point x="443" y="494" type="curve"/>
      <point x="181" y="75" type="line"/>
      <point x="213" y="42"/>
      <point x="254" y="24"/>
      <point x="300" y="24" type="curve" smooth="yes"/>
      <point x="391" y="24"/>
      <point x="491" y="96"/>
      <point x="491" y="300" type="curve" smooth="yes"/>
      <point x="491" y="362"/>
      <point x="478" y="442"/>
    </contour>
    <contour>
      <point x="157" y="106" type="curve"/>
      <point x="418" y="525" type="line"/>
      <point x="388" y="558"/>
      <point x="345" y="576"/>
      <point x="300" y="576" type="curve" smooth="yes"/>
      <point x="209" y="576"/>
      <point x="109" y="504"/>
      <point x="109" y="300" type="curve" smooth="yes"/>
      <point x="109" y="238"/>
      <point x="122" y="158"/>
    </contour>
  </outline>
</glyph>
<glyph name="Uacute" format="1">
  <advance width="600"/>
  <unicode hex="00DA"/>
  <outline>
    <contour>
      <point x="366" y="600" type="line"/>
      <point x="550" y="600" type="line"/>
      <point x="550" y="564" type="line"/>
      <point x="480" y="564" type="line"/>
      <point x="480" y="172" type="line" smooth="yes"/>
      <point x="480" y="39"/>
      <point x="420" y="-12"/>
      <point x="300" y="-12" type="curve" smooth="yes"/>
      <point x="180" y="-12"/>
      <point x="120" y="39"/>
      <point x="120" y="172" type="curve" smooth="yes"/>
      <point x="120" y="564" type="line"/>
      <point x="50" y="564" type="line"/>
      <point x="50" y="600" type="line"/>
      <point x="234" y="600" type="line"/>
      <point x="234" y="564" type="line"/>
      <point x="159" y="564" type="line"/>
      <point x="159" y="184" type="line" smooth="yes"/>
      <point x="159" y="67"/>
      <point x="203" y="24"/>
      <point x="300" y="24" type="curve" smooth="yes"/>
      <point x="397" y="24"/>
      <point x="441" y="67"/>
      <point x="441" y="184" type="curve" smooth="yes"/>
      <point x="441" y="564" type="line"/>
      <point x="366" y="564" type="line"/>
    </contour>
    <contour>
      <point x="407" y="837" type="line"/>
      <point x="444" y="792" type="line"/>
      <point x="256" y="665" type="line"/>
      <point x="233" y="695" type="line"/>
    </contour>
  </outline>
</glyph>
<glyph name="Udieresis" format="1">
  <advance width="600"/>
  <unicode hex="00DC"/>
  <outline>
    <contour>
      <point x="366" y="600" type="line"/>
      <point x="550" y="600" type="line"/>
      <point x="550" y="564" type="line"/>
      <point x="480" y="564" type="line"/>
      <point x="480" y="172" type="line" smooth="yes"/>
      <point x="480" y="39"/>
      <point x="420" y="-12"/>
      <point x="300" y="-12" type="curve" smooth="yes"/>
      <point x="180" y="-12"/>
      <point x="120" y="39"/>
      <point x="120" y="172" type="curve" smooth="yes"/>
      <point x="120" y="564" type="line"/>
      <point x="50" y="564" type="line"/>
      <point x="50" y="600" type="line"/>
      <point x="234" y="600" type="line"/>
      <point x="234" y="564" type="line"/>
      <point x="159" y="564" type="line"/>
      <point x="159" y="184" type="line" smooth="yes"/>
      <point x="159" y="67"/>
      <point x="203" y="24"/>
      <point x="300" y="24" type="curve" smooth="yes"/>
      <point x="397" y="24"/>
      <point x="441" y="67"/>
      <point x="441" y="184" type="curve" smooth="yes"/>
      <point x="441" y="564" type="line"/>
      <point x="366" y="564" type="line"/>
    </contour>
    <contour>
      <point x="143" y="751" type="curve" smooth="yes"/>
      <point x="143" y="778"/>
      <point x="165" y="800"/>
      <point x="192" y="800" type="curve" smooth="yes"/>
      <point x="219" y="800"/>
      <point x="241" y="778"/>
      <point x="241" y="751" type="curve" smooth="yes"/>
      <point x="241" y="724"/>
      <point x="219" y="702"/>
      <point x="192" y="702" type="curve" smooth="yes"/>
      <point x="165" y="702"/>
      <point x="143" y="724"/>
    </contour>
    <contour>
      <point x="359" y="751" type="curve" smooth="yes"/>
      <point x="359" y="778"/>
      <point x="381" y="800"/>
      <point x="408" y="800" type="curve" smooth="yes"/>
      <point x="435" y="800"/>
      <point x="457" y="778"/>
      <point x="457" y="751" type="curve" smooth="yes"/>
      <point x="457" y="724"/>
      <point x="435" y="702"/>
      <point x="408" y="702" type="curve" smooth="yes"/>
      <point x="381" y="702"/>
      <point x="359" y="724"/>
    </contour>
  </outline>
</glyph>
<glyph name="Yacute" format="1">
  <advance width="600"/>
  <unicode hex="00DD"/>
  <outline>
    <contour>
      <point x="38" y="600" type="line"/>
      <point x="230" y="600" type="line"/>
      <point x="230" y="564" type="line"/>
      <point x="139" y="564" type="line"/>
      <point x="301" y="297" type="line"/>
      <point x="463" y="564" type="line"/>
      <point x="370" y="564" type="line"/>
      <point x="370" y="600" type="line"/>
      <point x="562" y="600" type="line"/>
      <point x="562" y="564" type="line"/>
      <point x="504" y="564" type="line"/>
      <point x="320" y="261" type="line"/>
      <point x="320" y="36" type="line"/>
      <point x="454" y="36" type="line"/>
      <point x="454" y="0" type="line"/>
      <point x="147" y="0" type="line"/>
      <point x="147" y="36" type="line"/>
      <point x="281" y="36" type="line"/>
      <point x="281" y="261" type="line"/>
      <point x="97" y="564" type="line"/>
      <point x="38" y="564" type="line"/>
    </contour>
    <contour>
      <point x="407" y="837" type="line"/>
      <point x="444" y="792" type="line"/>
      <point x="256" y="665" type="line"/>
      <point x="233" y="695" type="line"/>
    </contour>
  </outline>
</glyph>
<glyph name="Thorn" format="1">
  <advance width="600"/>
  <unicode hex="00DE"/>
  <outline>
    <contour>
      <point x="183" y="36" type="line"/>
      <point x="183" y="564" type="line"/>
      <point x="98" y="564" type="line"/>
      <point x="98" y="600" type="line"/>
      <point x="312" y="600" type="line"/>
      <point x="312" y="564" type="line"/>
      <point x="222" y="564" type="line"/>
      <point x="222" y="500" type="line"/>
      <point x="354" y="500" type="line" smooth="yes"/>
      <point x="438" y="500"/>
      <point x="502" y="459"/>
      <point x="502" y="365" type="curve" smooth="yes"/>
      <point x="502" y="261"/>
      <point x="421" y="214"/>
      <point x="312" y="214" type="curve" smooth="yes"/>
      <point x="222" y="214" type="line"/>
      <point x="222" y="36" type="line"/>
      <point x="312" y="36" type="line"/>
      <point x="312" y="0" type="line"/>
      <point x="98" y="0" type="line"/>
      <point x="98" y="36" type="line"/>
    </contour>
    <contour>
      <point x="222" y="464" type="line"/>
      <point x="222" y="250" type="line"/>
      <point x="334" y="250" type="line" smooth="yes"/>
      <point x="401" y="250"/>
      <point x="460" y="295"/>
      <point x="460" y="365" type="curve" smooth="yes"/>
      <point x="460" y="418"/>
      <point x="421" y="464"/>
      <point x="374" y="464" type="curve" smooth="yes"/>
    </contour>
  </outline>
</glyph>
<glyph name="germandbls" format="1">
  <advance width="600"/>
  <unicode hex="00DF"/>
  <outline>
    <contour>
      <point x="288" y="302" type="curve"/>
      <point x="288" y="342" type="line"/>
      <point x="364" y="345"/>
      <point x="434" y="361"/>
      <point x="434" y="453" type="curve" smooth="yes"/>
      <point x="434" y="533"/>
      <point x="383" y="576"/>
      <point x="306" y="576" type="curve" smooth="yes"/>
      <point x="178" y="576"/>
      <point x="184" y="462"/>
      <point x="184" y="367" type="curve" smooth="yes"/>
      <point x="184" y="0" type="line"/>
      <point x="65" y="0" type="line"/>
      <point x="65" y="36" type="line"/>
      <point x="145" y="36" type="line"/>
      <point x="145" y="422" type="line" smooth="yes"/>
      <point x="145" y="563"/>
      <point x="220" y="612"/>
      <point x="301" y="612" type="curve" smooth="yes"/>
      <point x="398" y="612"/>
      <point x="476" y="558"/>
      <point x="476" y="461" type="curve" smooth="yes"/>
      <point x="476" y="390"/>
      <point x="444" y="337"/>
      <point x="372" y="325" type="curve"/>
      <point x="372" y="323" type="line"/>
      <point x="459" y="320"/>
      <point x="513" y="243"/>
      <point x="513" y="159" type="curve" smooth="yes"/>
      <point x="513" y="67"/>
      <point x="457" y="-12"/>
      <point x="359" y="-12" type="curve" smooth="yes"/>
      <point x="280" y="-12"/>
      <point x="240" y="40"/>
      <point x="240" y="116" type="curve" smooth="yes"/>
      <point x="240" y="129" type="line"/>
      <point x="276" y="129" type="line"/>
      <point x="274" y="71"/>
      <point x="297" y="24"/>
      <point x="361" y="24" type="curve" smooth="yes"/>
      <point x="432" y="24"/>
      <point x="471" y="89"/>
      <point x="471" y="154" type="curve" smooth="yes"/>
      <point x="471" y="269"/>
      <point x="388" y="300"/>
    </contour>
  </outline>
</glyph>
<glyph name="aacute" format="1">
  <advance width="600"/>
  <unicode hex="00E1"/>
  <outline>
    <contour>
      <point x="409" y="0" type="line"/>
      <point x="409" y="38" type="line"/>
      <point x="345" y="9"/>
      <point x="283" y="-12"/>
      <point x="211" y="-12" type="curve" smooth="yes"/>
      <point x="143" y="-12"/>
      <point x="80" y="19"/>
      <point x="80" y="96" type="curve" smooth="yes"/>
      <point x="80" y="187"/>
      <point x="166" y="235"/>
      <point x="409" y="238" type="curve"/>
      <point x="409" y="295" type="line" smooth="yes"/>
      <point x="409" y="354"/>
      <point x="404" y="384"/>
      <point x="322" y="384" type="curve" smooth="yes"/>
      <point x="269" y="384"/>
      <point x="215" y="368"/>
      <point x="171" y="338" type="curve"/>
      <point x="171" y="282" type="line"/>
      <point x="132" y="282" type="line"/>
      <point x="132" y="365" type="line"/>
      <point x="188" y="398"/>
      <point x="258" y="420"/>
      <point x="322" y="420" type="curve" smooth="yes"/>
      <point x="420" y="420"/>
      <point x="448" y="393"/>
      <point x="448" y="301" type="curve" smooth="yes"/>
      <point x="448" y="36" type="line"/>
      <point x="533" y="36" type="line"/>
      <point x="533" y="0" type="line"/>
    </contour>
    <contour>
      <point x="409" y="79" type="curve"/>
      <point x="409" y="202" type="line"/>
      <point x="174" y="194"/>
      <point x="122" y="156"/>
      <point x="122" y="96" type="curve" smooth="yes"/>
      <point x="122" y="41"/>
      <point x="166" y="24"/>
      <point x="214" y="24" type="curve" smooth="yes"/>
      <point x="282" y="24"/>
      <point x="348" y="50"/>
    </contour>
    <contour>
      <point x="407" y="645" type="line"/>
      <point x="444" y="600" type="line"/>
      <point x="256" y="473" type="line"/>
      <point x="233" y="503" type="line"/>
    </contour>
  </outline>
</glyph>
<glyph name="atilde" format="1">
  <advance width="600"/>
  <unicode hex="00E3"/>
  <outline>
    <contour>
      <point x="409" y="0" type="line"/>
      <point x="409" y="38" type="line"/>
      <point x="345" y="9"/>
      <point x="283" y="-12"/>
      <point x="211" y="-12" type="curve" smooth="yes"/>
      <point x="143" y="-12"/>
      <point x="80" y="19"/>
      <point x="80" y="96" type="curve" smooth="yes"/>
      <point x="80" y="187"/>
      <point x="166" y="235"/>
      <point x="409" y="238" type="curve"/>
      <point x="409" y="295" type="line" smooth="yes"/>
      <point x="409" y="354"/>
      <point x="404" y="384"/>
      <point x="322" y="384" type="curve" smooth="yes"/>
      <point x="269" y="384"/>
      <point x="215" y="368"/>
      <point x="171" y="338" type="curve"/>
      <point x="171" y="282" type="line"/>
      <point x="132" y="282" type="line"/>
      <point x="132" y="365" type="line"/>
      <point x="188" y="398"/>
      <point x="258" y="420"/>
      <point x="322" y="420" type="curve" smooth="yes"/>
      <point x="420" y="420"/>
      <point x="448" y="393"/>
      <point x="448" y="301" type="curve" smooth="yes"/>
      <point x="448" y="36" type="line"/>
      <point x="533" y="36" type="line"/>
      <point x="533" y="0" type="line"/>
    </contour>
    <contour>
      <point x="409" y="79" type="curve"/>
      <point x="409" y="202" type="line"/>
      <point x="174" y="194"/>
      <point x="122" y="156"/>
      <point x="122" y="96" type="curve" smooth="yes"/>
      <point x="122" y="41"/>
      <point x="166" y="24"/>
      <point x="214" y="24" type="curve" smooth="yes"/>
      <point x="282" y="24"/>
      <point x="348" y="50"/>
    </contour>
    <contour>
      <point x="189" y="512" type="curve"/>
      <point x="148" y="512" type="line"/>
      <point x="146" y="562"/>
      <point x="168" y="611"/>
      <point x="226" y="611" type="curve" smooth="yes"/>
      <point x="254" y="611"/>
      <point x="280" y="597"/>
      <point x="304" y="583" type="curve" smooth="yes"/>
      <point x="328" y="569"/>
      <point x="350" y="556"/>
      <point x="369" y="556" type="curve" smooth="yes"/>
      <point x="400" y="556"/>
      <point x="408" y="590"/>
      <point x="408" y="615" type="curve"/>
      <point x="451" y="615" type="line"/>
      <point x="453" y="563"/>
      <point x="429" y="514"/>
      <point x="370" y="514" type="curve" smooth="yes"/>
      <point x="343" y="514"/>
      <point x="314" y="531"/>
      <point x="291" y="545" type="curve" smooth="yes"/>
      <point x="274" y="555"/>
      <point x="250" y="569"/>
      <point x="229" y="569" type="curve" smooth="yes"/>
      <point x="197" y="569"/>
      <point x="188" y="538"/>
    </contour>
  </outline>
</glyph>
<glyph name="aring" format="1">
  <advance width="600"/>
  <unicode hex="00E5"/>
  <outline>
    <contour>
      <point x="409" y="0" type="line"/>
      <point x="409" y="38" type="line"/>
      <point x="345" y="9"/>
      <point x="283" y="-12"/>
      <point x="211" y="-12" type="curve" smooth="yes"/>
      <point x="143" y="-12"/>
      <point x="80" y="19"/>
      <point x="80" y="96" type="curve" smooth="yes"/>
      <point x="80" y="187"/>
      <point x="166" y="235"/>
      <point x="409" y="238" type="curve"/>
      <point x="409" y="295" type="line" smooth="yes"/>
      <point x="409" y="354"/>
      <point x="404" y="384"/>
      <point x="322" y="384" type="curve" smooth="yes"/>
      <point x="269" y="384"/>
      <point x="215" y="368"/>
      <point x="171" y="338" type="curve"/>
      <point x="171" y="282" type="line"/>
      <point x="132" y="282" type="line"/>
      <point x="132" y="365" type="line"/>
      <point x="188" y="398"/>
      <point x="258" y="420"/>
      <point x="322" y="420" type="curve" smooth="yes"/>
      <point x="420" y="420"/>
      <point x="448" y="393"/>
      <point x="448" y="301" type="curve" smooth="yes"/>
      <point x="448" y="36" type="line"/>
      <point x="533" y="36" type="line"/>
      <point x="533" y="0" type="line"/>
    </contour>
    <contour>
      <point x="409" y="79" type="curve"/>
      <point x="409" y="202" type="line"/>
      <point x="174" y="194"/>
      <point x="122" y="156"/>
      <point x="122" y="96" type="curve" smooth="yes"/>
      <point x="122" y="41"/>
      <point x="166" y="24"/>
      <point x="214" y="24" type="curve" smooth="yes"/>
      <point x="282" y="24"/>
      <point x="348" y="50"/>
    </contour>
    <contour>
      <point x="218" y="562" type="curve" smooth="yes"/>
      <point x="218" y="607"/>
      <point x="255" y="644"/>
      <point x="300" y="644" type="curve" smooth="yes"/>
      <point x="345" y="644"/>
      <point x="382" y="607"/>
      <point x="382" y="562" type="curve" smooth="yes"/>
      <point x="382" y="517"/>
      <point x="345" y="480"/>
      <point x="300" y="480" type="curve" smooth="yes"/>
      <point x="255" y="480"/>
      <point x="218" y="517"/>
    </contour>
    <contour>
      <point x="260" y="562" type="curve" smooth="yes"/>
      <point x="260" y="540"/>
      <point x="276" y="516"/>
      <point x="300" y="516" type="curve" smooth="yes"/>
      <point x="324" y="516"/>
      <point x="340" y="540"/>
      <point x="340" y="562" type="curve" smooth="yes"/>
      <point x="340" y="585"/>
      <point x="324" y="608"/>
      <point x="300" y="608" type="curve" smooth="yes"/>
      <point x="276" y="608"/>
      <point x="260" y="585"/>
    </contour>
  </outline>
</glyph>
<glyph name="ae" format="1">
  <advance width="600"/>
  <unicode hex="00E6"/>
  <outline>
    <contour>
      <point x="336" y="284" type="curve" smooth="yes"/>
      <point x="336" y="222" type="line"/>
      <point x="530" y="222" type="line"/>
      <point x="532" y="297"/>
      <point x="506" y="384"/>
      <point x="418" y="384" type="curve" smooth="yes"/>
      <point x="355" y="384"/>
      <point x="336" y="340"/>
    </contour>
    <contour>
      <point x="297" y="186" type="line"/>
      <point x="221" y="186" type="line" smooth="yes"/>
      <point x="112" y="186"/>
      <point x="81" y="154"/>
      <point x="81" y="107" type="curve" smooth="yes"/>
      <point x="81" y="52"/>
      <point x="131" y="24"/>
      <point x="181" y="24" type="curve" smooth="yes"/>
      <point x="226" y="24"/>
      <point x="265" y="42"/>
      <point x="297" y="72" type="curve"/>
    </contour>
    <contour>
      <point x="564" y="232" type="curve" smooth="yes"/>
      <point x="564" y="186" type="line"/>
      <point x="336" y="186" type="line"/>
      <point x="336" y="122" type="line" smooth="yes"/>
      <point x="336" y="52"/>
      <point x="360" y="24"/>
      <point x="426" y="24" type="curve" smooth="yes"/>
      <point x="475" y="24"/>
      <point x="519" y="50"/>
      <point x="556" y="82" type="curve"/>
      <point x="577" y="53" type="line"/>
      <point x="531" y="15"/>
      <point x="478" y="-12"/>
      <point x="417" y="-12" type="curve" smooth="yes"/>
      <point x="378" y="-12"/>
      <point x="336" y="4"/>
      <point x="314" y="39" type="curve"/>
      <point x="277" y="5"/>
      <point x="231" y="-12"/>
      <point x="181" y="-12" type="curve" smooth="yes"/>
      <point x="112" y="-12"/>
      <point x="39" y="26"/>
      <point x="39" y="103" type="curve" smooth="yes"/>
      <point x="39" y="174"/>
      <point x="78" y="222"/>
      <point x="223" y="222" type="curve" smooth="yes"/>
      <point x="297" y="222" type="line"/>
      <point x="297" y="279" type="line" smooth="yes"/>
      <point x="297" y="345"/>
      <point x="273" y="384"/>
      <point x="218" y="384" type="curve" smooth="yes"/>
      <point x="182" y="384"/>
      <point x="143" y="367"/>
      <point x="111" y="350" type="curve"/>
      <point x="111" y="291" type="line"/>
      <point x="72" y="291" type="line"/>
      <point x="72" y="375" type="line"/>
      <point x="115" y="395"/>
      <point x="171" y="420"/>
      <point x="218" y="420" type="curve" smooth="yes"/>
      <point x="259" y="420"/>
      <point x="299" y="401"/>
      <point x="316" y="363" type="curve"/>
      <point x="340" y="403"/>
      <point x="375" y="420"/>
      <point x="422" y="420" type="curve" smooth="yes"/>
      <point x="516" y="420"/>
      <point x="564" y="337"/>
    </contour>
  </outline>
</glyph>
<glyph name="ccedilla" format="1">
  <advance width="600"/>
  <unicode hex="00E7"/>
  <outline>
    <contour>
      <point x="485" y="65" type="curve"/>
      <point x="498" y="32" type="line"/>
      <point x="446" y="4"/>
      <point x="375" y="-12"/>
      <point x="315" y="-12" type="curve" smooth="yes"/>
      <point x="313" y="-12" type="line"/>
      <point x="302" y="-68" type="line"/>
      <point x="321" y="-68" type="line" smooth="yes"/>
      <point x="370" y="-68"/>
      <point x="416" y="-93"/>
      <point x="416" y="-147" type="curve" smooth="yes"/>
      <point x="416" y="-211"/>
      <point x="353" y="-235"/>
      <point x="298" y="-235" type="curve" smooth="yes"/>
      <point x="264" y="-235"/>
      <point x="223" y="-227"/>
      <point x="194" y="-210" type="curve"/>
      <point x="194" y="-173" type="line"/>
      <point x="225" y="-188"/>
      <point x="260" y="-199"/>
      <point x="294" y="-199" type="curve" smooth="yes"/>
      <point x="327" y="-199"/>
      <point x="374" y="-186"/>
      <point x="374" y="-146" type="curve" smooth="yes"/>
      <point x="374" y="-111"/>
      <point x="329" y="-103"/>
      <point x="303" y="-105" type="curve" smooth="yes"/>
      <point x="255" y="-108" type="line"/>
      <point x="276" y="-9" type="line"/>
      <point x="171" y="6"/>
      <point x="94" y="84"/>
      <point x="94" y="200" type="curve" smooth="yes"/>
      <point x="94" y="328"/>
      <point x="187" y="420"/>
      <point x="315" y="420" type="curve" smooth="yes"/>
      <point x="367" y="420"/>
      <point x="433" y="404"/>
      <point x="459" y="355" type="curve"/>
      <point x="459" y="264" type="line"/>
      <point x="423" y="264" type="line"/>
      <point x="423" y="282" type="line" smooth="yes"/>
      <point x="423" y="355"/>
      <point x="382" y="384"/>
      <point x="311" y="384" type="curve" smooth="yes"/>
      <point x="207" y="384"/>
      <point x="136" y="308"/>
      <point x="136" y="206" type="curve" smooth="yes"/>
      <point x="136" y="99"/>
      <point x="210" y="24"/>
      <point x="317" y="24" type="curve" smooth="yes"/>
      <point x="372" y="24"/>
      <point x="435" y="40"/>
    </contour>
  </outline>
</glyph>
<glyph name="edieresis" format="1">
  <advance width="600"/>
  <unicode hex="00EB"/>
  <outline>
    <contour>
      <point x="504" y="186" type="line"/>
      <point x="136" y="186" type="line"/>
      <point x="140" y="74"/>
      <point x="226" y="24"/>
      <point x="333" y="24" type="curve" smooth="yes"/>
      <point x="397" y="24"/>
      <point x="451" y="42"/>
      <point x="515" y="68" type="curve"/>
      <point x="527" y="36" type="line"/>
      <point x="463" y="5"/>
      <point x="390" y="-12"/>
      <point x="319" y="-12" type="curve" smooth="yes"/>
      <point x="196" y="-12"/>
      <point x="94" y="64"/>
      <point x="94" y="194" type="curve" smooth="yes"/>
      <point x="94" y="318"/>
      <point x="184" y="420"/>
      <point x="311" y="420" type="curve" smooth="yes"/>
      <point x="432" y="420"/>
      <point x="517" y="342"/>
      <point x="507" y="222" type="curve" smooth="yes"/>
    </contour>
    <contour>
      <point x="139" y="222" type="curve"/>
      <point x="466" y="222" type="line"/>
      <point x="471" y="317"/>
      <point x="400" y="384"/>
      <point x="311" y="384" type="curve" smooth="yes"/>
      <point x="222" y="384"/>
      <point x="147" y="315"/>
    </contour>
    <contour>
      <point x="143" y="559" type="curve" smooth="yes"/>
      <point x="143" y="586"/>
      <point x="165" y="608"/>
      <point x="192" y="608" type="curve" smooth="yes"/>
      <point x="219" y="608"/>
      <point x="241" y="586"/>
      <point x="241" y="559" type="curve" smooth="yes"/>
      <point x="241" y="532"/>
      <point x="219" y="510"/>
      <point x="192" y="510" type="curve" smooth="yes"/>
      <point x="165" y="510"/>
      <point x="143" y="532"/>
    </contour>
    <contour>
      <point x="359" y="559" type="curve" smooth="yes"/>
      <point x="359" y="586"/>
      <point x="381" y="608"/>
      <point x="408" y="608" type="curve" smooth="yes"/>
      <point x="435" y="608"/>
      <point x="457" y="586"/>
      <point x="457" y="559" type="curve" smooth="yes"/>
      <point x="457" y="532"/>
      <point x="435" y="510"/>
      <point x="408" y="510" type="curve" smooth="yes"/>
      <point x="381" y="510"/>
      <point x="359" y="532"/>
    </contour>
  </outline>
</glyph>
<glyph name="iacute" format="1">
  <advance width="600"/>
  <unicode hex="00ED"/>
  <outline>
    <contour>
      <point x="89" y="0" type="line"/>
      <point x="89" y="36" type="line"/>
      <point x="292" y="36" type="line"/>
      <point x="292" y="374" type="line"/>
      <point x="264" y="368"/>
      <point x="173" y="360"/>
      <point x="99" y="358" type="curve"/>
      <point x="93" y="394" type="line"/>
      <point x="166" y="395"/>
      <point x="273" y="400"/>
      <point x="294" y="425" type="curve" smooth="yes"/>
      <point x="300" y="432"/>
      <point x="305" y="438"/>
      <point x="316" y="438" type="curve" smooth="yes"/>
      <point x="330" y="438"/>
      <point x="331" y="413"/>
      <point x="331" y="399" type="curve" smooth="yes"/>
      <point x="331" y="36" type="line"/>
      <point x="511" y="36" type="line"/>
      <point x="511" y="0" type="line"/>
    </contour>
    <contour>
      <point x="407" y="645" type="line"/>
      <point x="444" y="600" type="line"/>
      <point x="256" y="473" type="line"/>
      <point x="233" y="503" type="line"/>
    </contour>
  </outline>
</glyph>
<glyph name="idieresis" format="1">
  <advance width="600"/>
  <unicode hex="00EF"/>
  <outline>
    <contour>
      <point x="89" y="0" type="line"/>
      <point x="89" y="36" type="line"/>
      <point x="292" y="36" type="line"/>
      <point x="292" y="374" type="line"/>
      <point x="264" y="368"/>
      <point x="173" y="360"/>
      <point x="99" y="358" type="curve"/>
      <point x="93" y="394" type="line"/>
      <point x="166" y="395"/>
      <point x="273" y="400"/>
      <point x="294" y="425" type="curve" smooth="yes"/>
      <point x="300" y="432"/>
      <point x="305" y="438"/>
      <point x="316" y="438" type="curve" smooth="yes"/>
      <point x="330" y="438"/>
      <point x="331" y="413"/>
      <point x="331" y="399" type="curve" smooth="yes"/>
      <point x="331" y="36" type="line"/>
      <point x="511" y="36" type="line"/>
      <point x="511" y="0" type="line"/>
    </contour>
    <contour>
      <point x="143" y="559" type="curve" smooth="yes"/>
      <point x="143" y="586"/>
      <point x="165" y="608"/>
      <point x="192" y="608" type="curve" smooth="yes"/>
      <point x="219" y="608"/>
      <point x="241" y="586"/>
      <point x="241" y="559" type="curve" smooth="yes"/>
      <point x="241" y="532"/>
      <point x="219" y="510"/>
      <point x="192" y="510" type="curve" smooth="yes"/>
      <point x="165" y="510"/>
      <point x="143" y="532"/>
    </contour>
    <contour>
      <point x="359" y="559" type="curve" smooth="yes"/>
      <point x="359" y="586"/>
      <point x="381" y="608"/>
      <point x="408" y="608" type="curve" smooth="yes"/>
      <point x="435" y="608"/>
      <point x="457" y="586"/>
      <point x="457" y="559" type="curve" smooth="yes"/>
      <point x="457" y="532"/>
      <point x="435" y="510"/>
      <point x="408" y="510" type="curve" smooth="yes"/>
      <point x="381" y="510"/>
      <point x="359" y="532"/>
    </contour>
  </outline>
</glyph>
<glyph name="eth" format="1">
  <advance width="600"/>
  <unicode hex="00F0"/>
  <outline>
    <contour>
      <point x="142" y="192" type="curve" smooth="yes"/>
      <point x="142" y="102"/>
      <point x="205" y="24"/>
      <point x="298" y="24" type="curve" smooth="yes"/>
      <point x="395" y="24"/>
      <point x="458" y="103"/>
      <point x="458" y="197" type="curve" smooth="yes"/>
      <point x="458" y="293"/>
      <point x="394" y="363"/>
      <point x="298" y="363" type="curve" smooth="yes"/>
      <point x="199" y="363"/>
      <point x="142" y="286"/>
    </contour>
    <contour>
      <point x="237" y="547" type="line"/>
      <point x="333" y="612" type="line"/>
      <point x="351" y="585" type="line"/>
      <point x="261" y="524" type="line"/>
      <point x="363" y="425" type="line" smooth="yes"/>
      <point x="434" y="357"/>
      <point x="500" y="298"/>
      <point x="500" y="198" type="curve" smooth="yes"/>
      <point x="500" y="83"/>
      <point x="414" y="-12"/>
      <point x="298" y="-12" type="curve" smooth="yes"/>
      <point x="187" y="-12"/>
      <point x="100" y="84"/>
      <point x="100" y="193" type="curve" smooth="yes"/>
      <point x="100" y="301"/>
      <point x="179" y="399"/>
      <point x="292" y="399" type="curve" smooth="yes"/>
      <point x="308" y="399"/>
      <point x="324" y="397"/>
      <point x="343" y="397" type="curve"/>
      <point x="232" y="505" type="line"/>
      <point x="128" y="434" type="line"/>
      <point x="110" y="461" type="line"/>
      <point x="209" y="528" type="line"/>
      <point x="147" y="588" type="line"/>
      <point x="171" y="612" type="line"/>
    </contour>
  </outline>
</glyph>
